<?xml version="1.0" encoding="UTF-8" standalone="no"?>
<svg xmlns:dc="http://purl.org/dc/elements/1.1/" xmlns:cc="http://creativecommons.org/ns#" xmlns:rdf="http://www.w3.org/1999/02/22-rdf-syntax-ns#" xmlns:svg="http://www.w3.org/2000/svg" xmlns="http://www.w3.org/2000/svg" xmlns:sodipodi="http://sodipodi.sourceforge.net/DTD/sodipodi-0.dtd" xmlns:inkscape="http://www.inkscape.org/namespaces/inkscape" height="768" version="1.1" width="640" xml:space="preserve" id="svg2144" sodipodi:docname="Isotopes_and_half-life - v203.svg" inkscape:version="0.92.3 (2405546, 2018-03-11)"><metadata id="metadata2150"><rdf:RDF><cc:Work rdf:about=""><dc:format>image/svg+xml</dc:format><dc:type rdf:resource="http://purl.org/dc/dcmitype/StillImage"/><dc:title/></cc:Work></rdf:RDF></metadata><defs id="defs2148"/><sodipodi:namedview pagecolor="#ffffff" bordercolor="#666666" borderopacity="1" objecttolerance="10" gridtolerance="10" guidetolerance="10" inkscape:pageopacity="0" inkscape:pageshadow="2" inkscape:window-width="1440" inkscape:window-height="837" id="namedview2146" showgrid="false" inkscape:zoom="0.91796875" inkscape:cx="320" inkscape:cy="384" inkscape:window-x="-8" inkscape:window-y="-8" inkscape:window-maximized="1" inkscape:current-layer="svg2144"/><rect fill="white" height="768" width="640" id="rect1596"/><path d="M81.5 728.5v-712M121.5 728.5v-712M161.5 728.5v-712M201.5 728.5v-712M241.5 728.5v-712M281.5 728.5v-712M321.5 728.5v-712M361.5 728.5v-712M401.5 728.5v-712M441.5 728.5v-712M481.5 728.5v-712M39.5 686.5h472M39.5 646.5h472M39.5 606.5h472M39.5 566.5h472M39.5 526.5h472M39.5 486.5h472M39.5 446.5h472M39.5 406.5h472M39.5 366.5h472M39.5 326.5h472M39.5 286.5h472M39.5 246.5h472M39.5 206.5h472M39.5 166.5h472M39.5 126.5h472M39.5 86.5h472M39.5 46.5h472" fill="none" stroke="lightgray" stroke-width="1" id="path1598"/><line stroke="black" stroke-width="0.707" x1="19.5" x2="512.5" y1="748.5" y2="255.5" id="line1600"/><g stroke="none" transform="translate(40.05,727.95) scale(4,-4)" id="g1720"><path d="M1 31v9m0 1v9m0 1v9m1-39v9m0 11v9m0 21v9m1-79v9m0 1v9m1-9v9m0 11v9m0 41v9m1-79v9m0 11v9m0 61v9m1-99v9m1 11v9m1-9v9m1 11v9m0 1v9m1-19v9m1 1v9m1-9v9" fill="none" stroke="#f4f4ff" stroke-width="0.9" transform="scale(1,0.1) translate(0.45,9)" id="path1602"/><path d="M3 81v9m2 31v9m1 11v9m9-59v9m2 11v9m0 1v9m1-19v9m1 11v9m0 1v9m16 181v9m2 11v9" fill="none" stroke="#e8e8ff" stroke-width="0.9" transform="scale(1,0.1) translate(0.45,9)" id="path1604"/><path d="M7 161v9m1 1v9m1 1v9m1 41v9m1-169v9m0 171v9m2-189v9m1 201v9m2-199v9m4 31v9m3 41v9m6 51v9m4 41v9m27 671v9m12-179v9m15 461v9m2-9v9m2-9v9" fill="none" stroke="#ddddff" stroke-width="0.9" transform="scale(1,0.1) translate(0.45,9)" id="path1606"/><path d="M4 101v9m0 1v9m4 61v9m0 1v9m1 11v9m1 1v9m1 11v9m1-9v9m0 1v9m0 1v9m0 1v9m1-19v9m0 1v9m0 1v9m0 1v9m2-9v9m0 1v9m1 1v9m0 1v9m1-29v9m0 1v9m0 11v9m1-19v9m3-159v9m4 1v9m1 261v9m1-229v9m0 231v9m2-249v9m1 271v9m0 1v9m1 11v9m1-279v9m0 251v9m0 11v9m0 1v9m1-29v9m0 1v9m0 1v9m0 1v9m1-289v9m0 251v9m0 31v9m0 1v9m1-19v9m0 1v9m0 1v9m4-259v9m1 1v9m1 11v9m0 311v9m3 21v9m0 1v9m1 1v9m1 11v9m0 1v9m6 61v9m0 1v9m0 1v9m1 11v9m3 31v9m1-19v9m0 1v9m0 1v9m1-19v9m0 1v9m0 1v9m1-19v9m0 1v9m1-319v9m0 301v9m4-259v9m1 1v9m3 21v9m1 321v9m1-299v9m2 341v9m1 21v9m1-19v9m0 11v9m0 1v9m2 41v9m0 1v9m1-39v9m0 1v9m0 11v9m1 1v9m1-9v9m0 1v9m0 1v9m0 1v9m0 1v9m1-19v9m0 1v9m0 1v9m0 1v9m0 1v9m0 1v9m0 1v9m1-69v9m0 1v9m0 11v9m0 1v9m0 1v9m0 1v9m1-29v9m0 1v9m0 1v9m0 1v9m0 1v9m1-29v9m0 1v9m0 1v9m0 1v9m0 1v9m0 1v9m1-139v9m0 61v9m0 1v9m0 21v9m0 1v9m0 1v9m0 1v9m0 1v9m1-159v9m0 111v9m0 1v9m0 1v9m0 1v9m0 1v9m1-169v9m0 151v9m0 1v9m1 1v9m1-189v9m2-9v9" fill="none" stroke="#d2d2ff" stroke-width="0.9" transform="scale(1,0.1) translate(0.45,9)" id="path1608"/><path d="M14 291v9m3 21v9m1 1v9m0 1v9m1 1v9m0 1v9m1-9v9m0 1v9m1-9v9m0 1v9m0 1v9m1-9v9m0 1v9m1 1v9m0 1v9m1 1v9m1 1v9m0 1v9m1 1v9m0 1v9m1 1v9m1 11v9m1 1v9m0 1v9m1 1v9m0 1v9m1 1v9m1 11v9m3 41v9m1 11v9m1 1v9m1 11v9m0 1v9m1 1v9m1 1v9m0 1v9m1 1v9m0 1v9m1-9v9m0 1v9m1 1v9m0 1v9m1-9v9m0 1v9m0 1v9m0 1v9m1-29v9m0 1v9m0 1v9m0 1v9m1 1v9m4 51v9m1 1v9m1-369v9m0 371v9m1 1v9m1 11v9m2 11v9m29 321v9m2-9v9m4-9v9m1-9v9" fill="none" stroke="#c6c6ff" stroke-width="0.9" transform="scale(1,0.1) translate(0.45,9)" id="path1610"/><path d="M14 231v9m21 81v9m2 11v9m1 1v9m6 61v9m1 1v9m1 1v9m5 61v9m18 221v9m4 401v9m4-289v9m9 401v9m2-9v9m1-9v9m1-9v9m2 1v9m10 151v9m8 101v9" fill="none" stroke="#bbbbff" stroke-width="0.9" transform="scale(1,0.1) translate(0.45,9)" id="path1612"/><path d="M69 751v9m15 521v9m6 1v9m1-9v9m9 111v9m2 51v9" fill="none" stroke="#b0b0ff" stroke-width="0.9" transform="scale(1,0.1) translate(0.45,9)" id="path1614"/><path d="M55 571v9m24 331v9m8 371v9m1-9v9m1-9v9m3 1v9m12 181v9" fill="none" stroke="#a4a4ff" stroke-width="0.9" transform="scale(1,0.1) translate(0.45,9)" id="path1616"/><path d="M52 531v9m1 11v9m24 301v9m3 31v9m3 101v9m3 271v9m6-39v9m12 211v9" fill="none" stroke="#9999ff" stroke-width="0.9" transform="scale(1,0.1) translate(0.45,9)" id="path1618"/><path d="M78 871v9m1 21v9m1 1v9m2 31v9m2 71v9m0 251v9m1-9v9m0 1v9m5-49v9m1-9v9m19 311v9m0 1v9m0 21v9m3 11v9" fill="none" stroke="#8e8eff" stroke-width="0.9" transform="scale(1,0.1) translate(0.45,9)" id="path1620"/><path d="M55 561v9m8 91v9m2 21v9m10 141v9m0 1v9m1-19v9m2 31v9m2 31v9m6 141v9m0 221v9m3-49v9m3-19v9m0 51v9m8 81v9m0 161v9m1-149v9m7 101v9m0 1v9m4 131v9" fill="none" stroke="#8282ff" stroke-width="0.9" transform="scale(1,0.1) translate(0.45,9)" id="path1622"/><path d="M5 131v9m4 51v9m2 31v9m15-59v9m2 1v9m2 31v9m22 301v9m21 261v9m1 11v9m2 11v9m2 31v9m2 31v9m4 81v9m0 21v9m0 241v9m1-259v9m1 1v9m1 231v9m1-189v9m0 131v9m2-99v9m0 1v9m0 111v9m0 1v9m1-19v9m9 121v9m2 111v9m4-49v9m2 41v9m0 1v9m1-19v9m1 31v9" fill="none" stroke="#7777ff" stroke-width="0.9" transform="scale(1,0.1) translate(0.45,9)" id="path1624"/><path d="M3 71v9m1 11v9m1-9v9m0 11v9m1 31v9m2-119v9m1 111v9m0 1v9m1 11v9m0 1v9m0 1v9m1-9v9m0 1v9m1 1v9m1 1v9m0 1v9m15-59v9m8 421v9m6-239v9m25 311v9m0 1v9m7 101v9m2 11v9m2 31v9m3 31v9m1 11v9m0 1v9m2 61v9m2 31v9m0 1v9m1 161v9m4-69v9m0 1v9m0 31v9m0 51v9m9 271v9m2-9v9m2-89v9m2 11v9m0 11v9m3 41v9m0 41v9m2-59v9m0 11v9m0 31v9m5 71v9" fill="none" stroke="#6c6cff" stroke-width="0.9" transform="scale(1,0.1) translate(0.45,9)" id="path1626"/><path d="M4 71v9m1-19v9m0 1v9m0 1v9m1 41v9m1-99v9m0 91v9m0 1v9m3 1v9m0 1v9m0 1v9m1-29v9m0 21v9m0 1v9m1 1v9m1 11v9m1-169v9m0 181v9m0 1v9m1 1v9m1-189v9m2 11v9m1 201v9m0 1v9m1-209v9m0 191v9m0 1v9m1-19v9m0 1v9m0 1v9m1-209v9m0 191v9m0 1v9m0 1v9m1 1v9m0 1v9m1-239v9m0 1v9m0 211v9m0 1v9m1 1v9m0 1v9m1-249v9m0 1v9m0 231v9m1 11v9m1-259v9m0 1v9m1 21v9m1-19v9m0 1v9m3 41v9m3 311v9m2-289v9m1 331v9m6-249v9m2 11v9m7 71v9m3 41v9m2 11v9m4 51v9m9 151v9m1-9v9m3 31v9m1 1v9m1 21v9m1 1v9m0 1v9m1 1v9m0 1v9m1-9v9m2 41v9m0 11v9m1 31v9m1-9v9m0 1v9m1 181v9m1-159v9m0 191v9m1-189v9m0 1v9m0 151v9m0 1v9m1-159v9m0 1v9m0 121v9m1-119v9m0 51v9m1-39v9m0 1v9m1 1v9m6 141v9m6 131v9m0 11v9m3-29v9m0 1v9m2 31v9m6 151v9m1-19v9m0 11v9m1-9v9" fill="none" stroke="#6060ff" stroke-width="0.9" transform="scale(1,0.1) translate(0.45,9)" id="path1628"/><path d="M6 111v9m0 1v9m1 1v9m1 1v9m0 1v9m1-9v9m2 11v9m0 1v9m1-119v9m0 111v9m0 1v9m0 11v9m1-149v9m0 91v9m0 1v9m0 1v9m0 1v9m0 1v9m1-149v9m0 131v9m0 11v9m0 1v9m1-159v9m0 151v9m0 1v9m1 1v9m0 1v9m2 11v9m2 1v9m0 1v9m1-9v9m1-169v9m0 1v9m0 151v9m0 1v9m1-169v9m0 151v9m0 1v9m0 1v9m0 1v9m1-199v9m0 1v9m0 181v9m1-199v9m0 1v9m0 161v9m0 1v9m0 1v9m0 1v9m1-209v9m0 1v9m0 201v9m1-219v9m0 201v9m0 1v9m0 1v9m1-229v9m0 1v9m1 11v9m1-9v9m0 1v9m1 1v9m0 231v9m1-249v9m1 31v9m1-29v9m1 31v9m0 231v9m1-269v9m0 1v9m0 251v9m0 1v9m0 1v9m1-259v9m0 241v9m0 1v9m0 1v9m0 1v9m1-289v9m0 261v9m0 1v9m0 1v9m0 1v9m1-299v9m0 1v9m0 261v9m0 1v9m0 1v9m1-299v9m0 281v9m0 1v9m0 1v9m1-299v9m0 271v9m0 1v9m0 1v9m1-9v9m0 1v9m0 1v9m1-309v9m0 281v9m0 1v9m0 1v9m3 31v9m1 21v9m0 1v9m0 1v9m1-9v9m0 1v9m0 1v9m1-369v9m0 361v9m2 11v9m2-339v9m1 1v9m1 371v9m0 1v9m0 1v9m14-199v9m2 11v9m0 1v9m0 31v9m2 1v9m1 1v9m2 21v9m1 1v9m1 21v9m0 1v9m4 41v9m0 1v9m1 31v9m1 31v9m1 231v9m1-219v9m0 1v9m0 191v9m1-199v9m0 1v9m1 11v9m1 21v9m0 121v9m1-119v9m0 1v9m0 11v9m2 81v9m1-9v9m13 241v9m1-59v9m1 51v9m5 91v9m2 21v9m0 1v9m1 31v9m1-9v9" fill="none" stroke="#5555ff" stroke-width="0.9" transform="scale(1,0.1) translate(0.45,9)" id="path1630"/><path d="M2 51v9m1-9v9m3-39v9m0 71v9m1 11v9m3-69v9m0 81v9m1-9v9m1-79v9m0 91v9m2-99v9m0 1v9m1 1v9m0 1v9m0 101v9m0 1v9m0 1v9m1-149v9m0 1v9m0 131v9m0 1v9m1-149v9m0 1v9m0 131v9m0 1v9m1-169v9m0 1v9m0 151v9m1-159v9m0 161v9m1-179v9m0 1v9m1 11v9m1 1v9m0 131v9m1-139v9m0 111v9m0 11v9m1-139v9m0 141v9m0 1v9m0 1v9m1-169v9m0 11v9m0 91v9m0 21v9m1-149v9m0 1v9m0 161v9m0 1v9m1-189v9m0 1v9m0 1v9m0 91v9m0 11v9m0 11v9m0 1v9m0 1v9m1-179v9m0 1v9m0 201v9m0 1v9m0 1v9m1-229v9m0 211v9m0 1v9m1-229v9m0 211v9m1-219v9m0 1v9m0 201v9m0 11v9m1-249v9m0 1v9m0 231v9m1-239v9m1 1v9m0 231v9m1 1v9m1-239v9m0 221v9m0 1v9m1-9v9m0 1v9m0 1v9m1-9v9m0 1v9m0 1v9m1 1v9m0 1v9m1 1v9m0 1v9m1-19v9m0 1v9m0 1v9m1-9v9m0 1v9m0 1v9m1-19v9m0 1v9m0 1v9m1 1v9m0 1v9m0 1v9m1-19v9m0 1v9m0 1v9m0 1v9m1-19v9m0 1v9m0 1v9m1-19v9m0 1v9m0 1v9m0 1v9m0 1v9m1-9v9m0 1v9m0 1v9m1-19v9m0 1v9m0 1v9m0 1v9m0 1v9m1 1v9m0 1v9m3 11v9m0 1v9m1 1v9m0 1v9m0 1v9m1-19v9m0 1v9m1 1v9m16-99v9m1-29v9m1-9v9m1 31v9m1 21v9m1 1v9m2 31v9m0 1v9m1 1v9m0 1v9m1-19v9m0 1v9m2 61v9m1 31v9m0 221v9m1-239v9m0 171v9m2-129v9m1 11v9m0 1v9m1 11v9m0 11v9m0 31v9m1-39v9m1 11v9m9 171v9m2 141v9m1-99v9m3 51v9m2 111v9m2 11v9m1-19v9m1 31v9m1-29v9m1 11v9m1 11v9" fill="none" stroke="#4a4aff" stroke-width="0.9" transform="scale(1,0.1) translate(0.45,9)" id="path1632"/><path d="M2 31v9m1 1v9m2-29v9m1 61v9m1 1v9m0 1v9m2 21v9m1-9v9m1-69v9m1 81v9m1-89v9m0 71v9m1 21v9m0 1v9m1 1v9m2 31v9m0 1v9m1-129v9m0 131v9m1-139v9m0 131v9m0 1v9m1-149v9m0 1v9m1 1v9m0 1v9m0 111v9m1-129v9m1 1v9m0 1v9m0 101v9m1-119v9m0 121v9m1-129v9m0 111v9m0 1v9m1 11v9m0 1v9m0 1v9m1-19v9m1 41v9m0 1v9m0 1v9m1-9v9m0 1v9m0 1v9m1-9v9m0 1v9m1 1v9m1 1v9m0 1v9m1-9v9m0 1v9m1 1v9m1 1v9m0 1v9m2 1v9m1 1v9m0 1v9m1-19v9m0 11v9m0 1v9m0 1v9m1 1v9m0 1v9m1-9v9m1 11v9m1-259v9m0 231v9m0 1v9m0 1v9m1 1v9m0 1v9m0 1v9m1-19v9m0 1v9m0 1v9m1-269v9m0 261v9m0 1v9m1-9v9m0 1v9m1 11v9m0 1v9m0 1v9m1-9v9m0 1v9m1-309v9m0 341v9m1-329v9m0 11v9m0 271v9m0 11v9m0 1v9m0 1v9m2-309v9m0 291v9m0 1v9m1-319v9m0 311v9m0 1v9m1-319v9m0 11v9m0 271v9m0 1v9m0 1v9m1-339v9m0 1v9m0 311v9m0 1v9m0 1v9m1-9v9m2-309v9m0 1v9m1 1v9m2 11v9m1 31v9m2 51v9m1-49v9m0 11v9m1-9v9m0 11v9m2 1v9m0 1v9m0 1v9m1-19v9m0 41v9m1-39v9m0 1v9m0 21v9m1-29v9m1 21v9m1 1v9m1 1v9m0 1v9m1 11v9m1 1v9m0 1v9m1 11v9m0 1v9m4 41v9m0 1v9m1 31v9m1 31v9m0 161v9m1-179v9m0 1v9m0 1v9m1 1v9m1 21v9m2 41v9m0 11v9m0 1v9m1 81v9m0 1v9m1-19v9m1 1v9m1-9v9m5 41v9m3 51v9m1 31v9m1 1v9m2 31v9m1-19v9m1 31v9m0 1v9m1 11v9m1 41v9m0 11v9m2 31v9m2-9v9m1 11v9m0 1v9m0 1v9" fill="none" stroke="#3e3eff" stroke-width="0.9" transform="scale(1,0.1) translate(0.45,9)" id="path1634"/><path d="M6 81v9m2 41v9m1-9v9m1-69v9m1 61v9m1 11v9m1-69v9m1 1v9m0 71v9m1 11v9m1-89v9m0 1v9m0 91v9m0 1v9m1-109v9m0 1v9m0 81v9m1-99v9m0 111v9m1-119v9m0 111v9m2 11v9m1-9v9m0 1v9m2 11v9m1-29v9m1 41v9m1-9v9m1 41v9m0 1v9m1 1v9m0 1v9m1 1v9m0 1v9m1-9v9m0 1v9m0 1v9m1 1v9m1 1v9m1 11v9m1 1v9m1 1v9m0 1v9m1-9v9m1 1v9m1 11v9m1-19v9m0 11v9m0 1v9m0 1v9m1-69v9m0 11v9m0 21v9m0 11v9m1-229v9m0 231v9m1-229v9m1-9v9m0 1v9m0 211v9m0 1v9m1-229v9m0 211v9m0 1v9m1-229v9m0 241v9m1-249v9m0 241v9m1-259v9m0 1v9m0 251v9m0 1v9m1-269v9m0 201v9m0 11v9m0 11v9m0 1v9m0 1v9m0 1v9m1-279v9m0 311v9m0 1v9m1-309v9m0 291v9m1-289v9m0 281v9m0 1v9m1-289v9m0 21v9m0 11v9m0 221v9m1-289v9m0 1v9m0 271v9m0 1v9m1-289v9m0 261v9m0 1v9m1-289v9m0 1v9m0 281v9m1-279v9m0 271v9m0 1v9m1-299v9m0 291v9m0 1v9m1-299v9m0 11v9m0 11v9m0 251v9m1-289v9m1-9v9m0 1v9m0 1v9m0 281v9m1-299v9m0 11v9m0 281v9m1-289v9m0 41v9m0 11v9m0 221v9m1-319v9m0 11v9m1 1v9m0 1v9m0 31v9m1-39v9m1 11v9m0 21v9m1-49v9m0 1v9m0 1v9m1 11v9m0 21v9m1-39v9m0 1v9m0 21v9m1-29v9m1-19v9m0 31v9m1 1v9m0 1v9m0 301v9m1-319v9m0 1v9m1 1v9m0 1v9m0 291v9m1-299v9m2 41v9m1-9v9m0 1v9m0 1v9m1-9v9m0 1v9m1-19v9m0 11v9m3 311v9m1-9v9m1-199v9m1 21v9m1 11v9m0 1v9m0 51v9m2-19v9m1 81v9m3-9v9m6 111v9m0 121v9m1-139v9m1 31v9m0 31v9m2-39v9m0 51v9m0 1v9m1-89v9m0 1v9m0 1v9m0 21v9m0 1v9m1 1v9m1 11v9" fill="none" stroke="#3333ff" stroke-width="0.9" transform="scale(1,0.1) translate(0.45,9)" id="path1636"/><path d="M7 81v9m0 1v9m1 21v9m1-19v9m0 1v9m3-39v9m1 11v9m0 41v9m1-49v9m0 51v9m1-59v9m0 61v9m1 21v9m1 1v9m1 21v9m1 1v9m1 21v9m1-19v9m2 1v9m1 11v9m1-9v9m1 21v9m2 41v9m1-139v9m0 131v9m0 1v9m1 11v9m1 1v9m1 11v9m0 1v9m1 1v9m1 11v9m1 1v9m1 1v9m1-9v9m0 1v9m1-189v9m0 1v9m1 31v9m0 131v9m0 1v9m1-189v9m0 1v9m0 181v9m1-189v9m0 1v9m0 161v9m0 1v9m0 11v9m1-209v9m0 201v9m0 1v9m1-209v9m0 11v9m0 111v9m0 51v9m1-189v9m1-9v9m0 191v9m1-199v9m0 1v9m0 211v9m1-229v9m0 171v9m0 31v9m0 1v9m1-229v9m0 231v9m1-239v9m0 171v9m0 41v9m1-229v9m0 1v9m1 21v9m0 1v9m1-9v9m1 11v9m0 1v9m0 241v9m2-239v9m1-9v9m0 1v9m0 251v9m1-259v9m0 1v9m0 231v9m0 1v9m1-259v9m0 1v9m0 1v9m0 231v9m0 1v9m1-269v9m0 11v9m0 221v9m0 11v9m0 1v9m1-269v9m0 1v9m0 251v9m0 1v9m1-269v9m0 1v9m0 11v9m0 51v9m0 171v9m1-279v9m0 11v9m0 251v9m0 1v9m1-269v9m0 261v9m0 1v9m1-279v9m0 1v9m0 261v9m1-269v9m0 41v9m0 211v9m1-269v9m0 1v9m0 1v9m1-9v9m0 1v9m1-9v9m0 1v9m1 1v9m0 1v9m0 11v9m1-29v9m1 21v9m1 1v9m1 11v9m0 271v9m1-279v9m0 1v9m1 1v9m0 1v9m0 1v9m0 1v9m0 231v9m0 1v9m1-279v9m0 1v9m0 1v9m0 271v9m0 1v9m1-309v9m0 1v9m0 1v9m0 1v9m0 1v9m0 1v9m0 211v9m0 1v9m1-249v9m1 11v9m0 1v9m1-9v9m0 11v9m1-39v9m0 11v9m1 1v9m0 1v9m1 21v9m1 31v9m0 1v9m1 1v9m0 1v9m1 1v9m0 1v9m0 161v9m1-159v9m0 261v9m1-249v9m0 1v9m1 21v9m0 71v9m10 81v9m1 21v9m3 81v9m0 1v9m0 1v9m1-39v9m0 11v9m1-29v9m3 71v9m1 71v9m2-9v9m1 11v9m1 1v9" fill="none" stroke="#2d46f9" stroke-width="0.9" transform="scale(1,0.1) translate(0.45,9)" id="path1638"/><path d="M4 61v9m2-39v9m2 61v9m0 1v9m1-19v9m1-29v9m1 1v9m1 1v9m3 71v9m1 31v9m2 31v9m1 1v9m1 11v9m0 1v9m1-19v9m3 21v9m3 21v9m1 21v9m0 1v9m0 1v9m1-29v9m0 21v9m1 1v9m0 11v9m1 1v9m1-139v9m0 131v9m0 1v9m1-19v9m0 11v9m0 1v9m1-159v9m0 161v9m1-169v9m0 161v9m1-179v9m0 1v9m1 1v9m1 181v9m1-179v9m0 1v9m1 161v9m1-149v9m0 131v9m1-149v9m0 1v9m1 1v9m0 101v9m0 61v9m1-189v9m0 191v9m1-189v9m0 121v9m0 11v9m0 11v9m0 1v9m1 21v9m0 1v9m1-209v9m0 121v9m1-129v9m0 211v9m1-219v9m0 1v9m0 131v9m0 41v9m1-189v9m1 31v9m0 1v9m1-19v9m0 1v9m0 231v9m0 1v9m1-9v9m1-249v9m0 1v9m0 241v9m1-239v9m0 31v9m0 11v9m0 161v9m1-229v9m0 1v9m0 211v9m0 1v9m1-229v9m0 1v9m0 201v9m2-189v9m0 211v9m1-229v9m0 1v9m0 211v9m0 1v9m1-229v9m0 41v9m0 171v9m0 1v9m1-239v9m0 231v9m1-239v9m0 1v9m0 1v9m0 41v9m0 161v9m0 1v9m1-239v9m0 1v9m0 231v9m1-239v9m0 11v9m0 201v9m0 1v9m1-229v9m1 11v9m0 221v9m1-239v9m0 1v9m0 1v9m1 11v9m1-9v9m1 1v9m0 1v9m0 241v9m1-259v9m0 1v9m1 1v9m0 1v9m0 1v9m0 221v9m1-239v9m0 1v9m1 21v9m0 201v9m1-219v9m0 1v9m1 21v9m0 1v9m0 231v9m1-269v9m0 1v9m0 1v9m0 231v9m0 1v9m1-249v9m0 1v9m0 11v9m0 171v9m1-219v9m0 11v9m1-19v9m0 1v9m0 1v9m1-9v9m0 1v9m1 11v9m3 321v9m0 11v9m1-249v9m0 1v9m0 121v9m0 91v9m0 1v9m1-219v9m0 1v9m0 81v9m0 111v9m0 1v9m7-119v9m1 11v9m3 51v9m0 1v9m1 21v9m1-9v9m0 1v9m0 1v9m1 51v9m1-49v9m0 1v9m0 1v9m2 41v9m1 1v9m0 1v9m1-9v9m0 41v9m1-39v9m2 81v9m1-19v9m1 21v9m1-9v9" fill="none" stroke="#2659f2" stroke-width="0.9" transform="scale(1,0.1) translate(0.45,9)" id="path1640"/><path d="M8 51v9m1 11v9m1 41v9m1 1v9m4 51v9m2 21v9m0 1v9m5 61v9m1-19v9m0 1v9m2 1v9m1 31v9m1-19v9m2-59v9m0 101v9m1-109v9m0 121v9m1-129v9m0 121v9m1-139v9m1 11v9m0 131v9m1-149v9m0 161v9m1-149v9m0 131v9m0 1v9m1 11v9m1-159v9m0 31v9m0 11v9m0 81v9m1 11v9m1-149v9m1-9v9m0 1v9m1 11v9m1 151v9m0 1v9m0 1v9m1-39v9m0 21v9m1-149v9m0 151v9m1-169v9m0 91v9m0 41v9m1 21v9m1-169v9m0 181v9m1-189v9m0 1v9m0 181v9m1-189v9m0 101v9m1-109v9m0 251v9m0 1v9m1-229v9m0 1v9m2 1v9m0 201v9m1-219v9m0 1v9m0 211v9m1-219v9m0 1v9m0 51v9m0 131v9m2-179v9m0 1v9m0 171v9m1-199v9m0 1v9m0 191v9m0 1v9m1-199v9m0 1v9m0 1v9m0 51v9m1-79v9m0 1v9m1 1v9m0 61v9m0 121v9m1-209v9m0 1v9m1 21v9m0 181v9m1-199v9m0 1v9m0 191v9m0 1v9m2-199v9m0 211v9m1-209v9m0 1v9m0 191v9m1-199v9m0 191v9m0 11v9m1-209v9m0 201v9m1-219v9m0 1v9m1 1v9m0 1v9m0 1v9m0 201v9m1-229v9m0 1v9m0 11v9m1-9v9m0 1v9m1-9v9m0 1v9m1 11v9m1 1v9m0 1v9m1 21v9m0 1v9m0 151v9m1-179v9m0 1v9m1 1v9m0 191v9m0 1v9m0 1v9m1-219v9m0 1v9m0 221v9m1-239v9m0 1v9m0 211v9m1-229v9m0 1v9m0 1v9m1-9v9m0 1v9m0 1v9m0 221v9m0 1v9m1-229v9m1 11v9m0 1v9m0 171v9m0 21v9m0 1v9m0 1v9m1-229v9m0 1v9m0 151v9m0 71v9m1-219v9m0 1v9m0 31v9m0 121v9m0 11v9m0 1v9m1-89v9m1 101v9m0 1v9m3-119v9m1-9v9m1-9v9m1 11v9m1 1v9m1 11v9m1 1v9m0 1v9m1 21v9m0 1v9m1 11v9m2 21v9m0 1v9m3 41v9m2 51v9m0 31v9" fill="none" stroke="#206cec" stroke-width="0.9" transform="scale(1,0.1) translate(0.45,9)" id="path1642"/><path d="M8 61v9m2 61v9m3 1v9m2-9v9m1 51v9m3 51v9m2 11v9m1 1v9m1-19v9m1 11v9m5 51v9m0 21v9m1-109v9m0 101v9m1-89v9m0 101v9m2-99v9m1 11v9m0 121v9m1-129v9m0 111v9m1-119v9m0 131v9m1-139v9m0 121v9m1-139v9m0 1v9m3 41v9m1 1v9m1 1v9m0 1v9m1-19v9m0 141v9m0 1v9m1-149v9m1-9v9m0 1v9m0 161v9m1-169v9m0 1v9m0 71v9m0 71v9m1 11v9m1-169v9m0 1v9m0 131v9m1-149v9m0 1v9m0 211v9m0 1v9m1-179v9m0 31v9m0 131v9m0 1v9m1-229v9m0 1v9m1 21v9m0 41v9m1-59v9m0 181v9m1-179v9m0 61v9m1-79v9m0 1v9m0 11v9m1 1v9m0 1v9m1-19v9m0 1v9m0 151v9m1-69v9m0 71v9m0 1v9m2-159v9m0 1v9m0 11v9m0 121v9m0 1v9m0 1v9m1-179v9m0 1v9m1 21v9m1-9v9m0 161v9m1 11v9m0 1v9m1-189v9m0 1v9m1 11v9m0 1v9m0 141v9m0 1v9m0 1v9m1-179v9m0 191v9m1-189v9m0 1v9m0 51v9m0 111v9m1-189v9m0 1v9m0 1v9m0 181v9m1-189v9m0 1v9m0 11v9m0 141v9m0 1v9m1-199v9m0 21v9m0 11v9m0 151v9m0 1v9m1-199v9m0 1v9m0 171v9m1-189v9m0 1v9m1 1v9m0 1v9m0 51v9m0 91v9m1-159v9m0 1v9m0 1v9m0 181v9m1-179v9m1-9v9m0 181v9m1-179v9m1 1v9m0 1v9m0 161v9m0 11v9m1-199v9m0 1v9m0 1v9m0 141v9m0 1v9m0 1v9m0 1v9m0 31v9m1-229v9m0 221v9m1-219v9m0 1v9m0 141v9m0 41v9m1-199v9m0 191v9m0 21v9m1-209v9m0 171v9m0 1v9m1-179v9m0 191v9m1-169v9m0 1v9m0 91v9m0 21v9m0 1v9m0 11v9m1-159v9m0 151v9m0 11v9m0 1v9m1-109v9m0 61v9m0 11v9m0 1v9m1 21v9m1-129v9m0 111v9m2-119v9m0 1v9m0 111v9m0 1v9m0 1v9m1-159v9m1 11v9m0 1v9m0 11v9m2-49v9m0 31v9m0 11v9m0 1v9m1-19v9m0 1v9m1 31v9m1 1v9m1 1v9m0 1v9m1 11v9m1 31v9m3 71v9" fill="none" stroke="#1a80e6" stroke-width="0.9" transform="scale(1,0.1) translate(0.45,9)" id="path1644"/><path d="M0 1v9m7 41v9m5 81v9m1 1v9m5 81v9m0 1v9m1-79v9m1 91v9m2-9v9m2 21v9m2-59v9m0 71v9m3-29v9m2 1v9m0 81v9m2-79v9m0 91v9m2-39v9m1-59v9m1 131v9m1 21v9m1-119v9m0 111v9m1-119v9m1 11v9m1-19v9m0 21v9m0 91v9m0 1v9m1-29v9m0 31v9m2-119v9m0 11v9m2 1v9m0 1v9m1-19v9m0 1v9m1 11v9m0 51v9m1-59v9m1 31v9m0 21v9m0 31v9m1-79v9m0 1v9m0 171v9m1-169v9m1-9v9m0 181v9m1-169v9m0 151v9m1-169v9m0 21v9m0 141v9m1-149v9m0 1v9m0 31v9m0 11v9m0 61v9m1-139v9m0 141v9m1-149v9m0 1v9m0 11v9m0 101v9m1-149v9m0 1v9m0 151v9m0 1v9m2-149v9m0 1v9m0 11v9m0 131v9m0 1v9m2 11v9m1-19v9m1-139v9m0 161v9m0 1v9m1-159v9m0 21v9m0 1v9m0 31v9m1-89v9m1 21v9m0 1v9m0 131v9m0 1v9m1-139v9m0 11v9m0 131v9m1-159v9m0 21v9m0 111v9m1-159v9m1 21v9m0 71v9m0 71v9m1-159v9m0 1v9m0 151v9m1-159v9m0 1v9m0 1v9m0 1v9m0 121v9m1-139v9m0 151v9m1-149v9m0 141v9m1-159v9m1 11v9m0 1v9m0 1v9m1-9v9m0 161v9m1-159v9m1-9v9m0 1v9m0 1v9m0 11v9m0 151v9m1-179v9m0 1v9m0 161v9m1-179v9m0 1v9m0 1v9m0 201v9m1-209v9m0 1v9m1 1v9m0 1v9m0 181v9m1-59v9m2 61v9m1-79v9m0 91v9m0 21v9m1-39v9m0 1v9m1-109v9m1 21v9m0 81v9m1-119v9m1 21v9m0 121v9m2-89v9m1-9v9m0 121v9m1-119v9m2 41v9m3 61v9" fill="none" stroke="#1393df" stroke-width="0.9" transform="scale(1,0.1) translate(0.45,9)" id="path1646"/><path d="M6 41v9m11 151v9m2 31v9m0 1v9m4-29v9m1 1v9m1 1v9m4 41v9m1 11v9m1 51v9m1-49v9m1 11v9m1-19v9m0 101v9m0 11v9m1-109v9m0 51v9m0 31v9m2-89v9m0 1v9m0 81v9m1-89v9m1 11v9m0 91v9m1-119v9m3 161v9m1-119v9m1 11v9m0 91v9m1-109v9m0 1v9m0 111v9m1-69v9m0 81v9m1 11v9m1-129v9m0 91v9m1-99v9m0 11v9m1 21v9m0 141v9m0 1v9m1-19v9m0 21v9m1-169v9m0 81v9m0 51v9m1-159v9m0 1v9m1 21v9m0 41v9m0 71v9m1 11v9m2-139v9m1 31v9m0 81v9m0 11v9m1-119v9m0 1v9m0 11v9m1 1v9m1 121v9m1 11v9m0 1v9m1-159v9m1 161v9m1-139v9m1 21v9m0 31v9m0 1v9m0 31v9m1-99v9m0 1v9m0 11v9m1 1v9m0 1v9m1-19v9m0 41v9m1-19v9m0 101v9m1-119v9m1 11v9m0 1v9m0 121v9m1-129v9m0 1v9m0 31v9m0 101v9m1-129v9m1-9v9m0 151v9m2-149v9m0 141v9m1-119v9m0 1v9m0 91v9m0 1v9m1-129v9m0 1v9m0 161v9m1-169v9m0 1v9m1 1v9m0 141v9m0 21v9m1-169v9m0 1v9m0 121v9m0 1v9m1-139v9m0 1v9m1 1v9m0 1v9m1 1v9m0 1v9m0 21v9m0 81v9m0 11v9m1-129v9m0 101v9m1 21v9m2-39v9m0 61v9m0 21v9m1-109v9m0 71v9m1 21v9m0 21v9m1-129v9m0 11v9m1-29v9m0 1v9m0 11v9m1 91v9m0 1v9m1 21v9m2-99v9m0 1v9m1 11v9m0 71v9m1-79v9m1 21v9m0 1v9m2 31v9" fill="none" stroke="#0da6d9" stroke-width="0.9" transform="scale(1,0.1) translate(0.45,9)" id="path1648"/><path d="M9 81v9m5 71v9m3 41v9m1 1v9m3 41v9m4 21v9m2 21v9m1 21v9m2 11v9m1-29v9m1-39v9m0 81v9m0 21v9m1-19v9m2-59v9m0 71v9m1-79v9m0 91v9m2-99v9m0 111v9m1-89v9m1 1v9m1 1v9m0 71v9m2-69v9m1 1v9m3 41v9m0 1v9m1-19v9m0 1v9m0 111v9m1-109v9m1 171v9m0 1v9m2-149v9m0 1v9m0 111v9m1-109v9m0 1v9m0 101v9m1-109v9m2 1v9m0 21v9m0 91v9m1-99v9m0 101v9m1-109v9m1 21v9m1 21v9m0 71v9m1-9v9m1-99v9m3 11v9m0 1v9m1 21v9m0 121v9m1-109v9m0 41v9m1-49v9m0 41v9m1-19v9m1-9v9m0 121v9m0 1v9m2 21v9m1-109v9m1 1v9m0 1v9m2 11v9m1 1v9m0 111v9m1-119v9m0 1v9m0 1v9m3 41v9m0 1v9m1 1v9m0 1v9m1 1v9m0 1v9m0 91v9m1-89v9m1 1v9m0 1v9m1 1v9m0 131v9m2 31v9m1-29v9m2 71v9m1-119v9m1 91v9m2-59v9m0 1v9m0 61v9m1-89v9m0 101v9m1 1v9m1 21v9m1-79v9m1 51v9m1-19v9m0 21v9m1-19v9m3 41v9" fill="none" stroke="#06b9d2" stroke-width="0.9" transform="scale(1,0.1) translate(0.45,9)" id="path1650"/><path d="M16 211v9m5-9v9m0 1v9m1-9v9m4 21v9m3 51v9m2 91v9m3-39v9m2 121v9m1-89v9m2 81v9m3-59v9m1 21v9m1 91v9m2-69v9m1 91v9m0 1v9m1-79v9m1 1v9m0 1v9m1-19v9m1 51v9m0 111v9m2 31v9m2-109v9m2 21v9m0 1v9m0 71v9m1-109v9m1 51v9m0 51v9m1-89v9m5 51v9m0 1v9m1 11v9m0 31v9m1 81v9m1-79v9m0 91v9m1-69v9m0 61v9m2 31v9m1 31v9m1-129v9m0 21v9m0 31v9m0 31v9m4-49v9m2 41v9m0 1v9m1-19v9m0 1v9m1 21v9m0 1v9m0 1v9m1 81v9m2-79v9m0 21v9m1 1v9m0 1v9m0 1v9m4 81v9m0 31v9m2 31v9m3 51v9m2-69v9m1 21v9m0 1v9m0 51v9m1-49v9m1 11v9m1-9v9m0 21v9m1 11v9m2 21v9" fill="none" stroke="#00cccc" stroke-width="0.9" transform="scale(1,0.1) translate(0.45,9)" id="path1652"/><path d="M11 121v9m1 21v9m7 61v9m0 1v9m5-9v9m3 31v9m2 61v9m1-39v9m1 21v9m0 51v9m1 31v9m1-69v9m0 31v9m2-29v9m1-19v9m2 121v9m1-69v9m0 61v9m1-89v9m0 101v9m1-89v9m0 51v9m2-39v9m2 21v9m1 71v9m0 21v9m4 41v9m1 51v9m1-109v9m0 71v9m1-59v9m0 61v9m0 21v9m1-129v9m0 21v9m0 91v9m3-39v9m1-19v9m0 11v9m1 31v9m3 101v9m1-9v9m1 1v9m1-99v9m0 1v9m0 11v9m1-9v9m1 91v9m1-29v9m4 1v9m0 1v9m0 11v9m1 1v9m1 101v9m1-79v9m0 61v9m0 1v9m1-89v9m0 1v9m1 1v9m0 1v9m0 1v9m0 61v9m1-69v9m0 71v9m0 21v9m1-89v9m1 1v9m1 31v9m1-19v9m0 1v9m0 101v9m1-109v9m0 1v9m3 31v9m4 151v9m1-49v9m1 101v9m2-89v9m0 101v9m1-79v9m0 21v9m0 11v9m5 21v9m0 21v9m5 91v9" fill="none" stroke="#07d3aa" stroke-width="0.9" transform="scale(1,0.1) translate(0.45,9)" id="path1654"/><path d="M21 251v9m0 1v9m7 11v9m0 81v9m1-9v9m1 31v9m1-69v9m1 1v9m1 1v9m0 51v9m2-29v9m0 41v9m1-49v9m2 11v9m1 21v9m0 21v9m1-29v9m2 71v9m2-49v9m1 61v9m1-69v9m2 121v9m1-59v9m2 51v9m0 21v9m1 81v9m3-69v9m1-29v9m1 101v9m1-79v9m0 81v9m2-59v9m1 71v9m0 11v9m1 1v9m2-89v9m1 41v9m1 111v9m2-89v9m0 111v9m1-89v9m0 61v9m1-79v9m1 11v9m0 1v9m2 41v9m2 21v9m1 91v9m1-69v9m1 11v9m0 101v9m1-99v9m0 31v9m0 1v9m1-39v9m1 21v9m1 1v9m6 141v9m1 1v9m2 1v9m0 21v9m2 31v9m0 1v9m1 61v9m1-89v9m1 101v9m1-79v9m1-19v9m1 31v9m1 1v9m5 91v9" fill="none" stroke="#0eda88" stroke-width="0.9" transform="scale(1,0.1) translate(0.45,9)" id="path1656"/><path d="M20 261v9m5-9v9m3 1v9m4 101v9m2-19v9m9 141v9m4 101v9m3 101v9m1 1v9m1-109v9m1 41v9m0 61v9m1 1v9m1-39v9m0 1v9m1-29v9m4 111v9m1-9v9m2-59v9m0 1v9m1 11v9m1 41v9m0 1v9m0 41v9m3 41v9m1-39v9m1 61v9m1-59v9m0 1v9m0 41v9m2 31v9m2 1v9m3-19v9m1 61v9m4 51v9m0 31v9m1-59v9m2 131v9m2-19v9m1 1v9m3 21v9m0 51v9m1-49v9m1 101v9m3-49v9m2 91v9" fill="none" stroke="#14e066" stroke-width="0.9" transform="scale(1,0.1) translate(0.45,9)" id="path1658"/><path d="M15 161v9m0 1v9m3 1v9m5 51v9m1 11v9m9 131v9m4 51v9m0 11v9m1-59v9m3 91v9m4-9v9m1 21v9m5 171v9m1-69v9m1 31v9m1-9v9m1 71v9m1 21v9m2-19v9m1 1v9m4-9v9m0 81v9m7 51v9m4 41v9m1 41v9m1 51v9m1-39v9m0 1v9m4 71v9m2 1v9m5 141v9m2-9v9m0 61v9m1-59v9m0 21v9m1-49v9m4 51v9m0 1v9m2 91v9m1-19v9m2 41v9" fill="none" stroke="#1be744" stroke-width="0.9" transform="scale(1,0.1) translate(0.45,9)" id="path1660"/><path d="M4 21v9m12 151v9m5 51v9m5 71v9m1-49v9m0 11v9m6 81v9m4 51v9m1 1v9m0 31v9m1-29v9m0 21v9m1-49v9m0 61v9m4 31v9m3-19v9m3 41v9m1 91v9m2-19v9m10 121v9m0 1v9m1-49v9m1 121v9m4 31v9m3 31v9m0 51v9m1-9v9m1 11v9m0 21v9m1-69v9m1 1v9m1 51v9m3 71v9m14 191v9m4 121v9m1-9v9m1 1v9m1-9v9" fill="none" stroke="#22ee22" stroke-width="0.9" transform="scale(1,0.1) translate(0.45,9)" id="path1662"/><path d="M20 241v9m3 1v9m2 21v9m2 1v9m3 41v9m2 1v9m2 41v9m11 151v9m5 151v9m8 71v9m0 41v9m3-49v9m0 1v9m1-9v9m2 31v9m0 11v9m2 31v9m3 71v9m5 51v9m5 81v9m5 91v9m12 191v9m1 51v9m1-29v9m1 41v9" fill="none" stroke="#4bee1b" stroke-width="0.9" transform="scale(1,0.1) translate(0.45,9)" id="path1664"/><path d="M11 101v9m15 171v9m18 321v9m4-19v9m3 121v9m4 41v9m6 61v9m8 151v9m2-9v9m1-29v9m1 51v9m11 171v9m6 131v9m3 31v9m1-9v9m4 111v9m1-19v9" fill="none" stroke="#74ee14" stroke-width="0.9" transform="scale(1,0.1) translate(0.45,9)" id="path1666"/><path d="M27 321v9m18 221v9m16 281v9m2 51v9m0 1v9m8 101v9m5 141v9m5 41v9m7 161v9m9 101v9" fill="none" stroke="#9cee0e" stroke-width="0.9" transform="scale(1,0.1) translate(0.45,9)" id="path1668"/><path d="M1 11v9m35 461v9m2 21v9m17 291v9m1-59v9m5 61v9m2 41v9m19 381v9m1-49v9m6 131v9m5 81v9m2-9v9m0 1v9m2 31v9" fill="none" stroke="#c5ee07" stroke-width="0.9" transform="scale(1,0.1) translate(0.45,9)" id="path1670"/><path d="M18 231v9m4-29v9m40 661v9m1-29v9m1-39v9m1 71v9m13 221v9m14 241v9m2 31v9" fill="none" stroke="#eeee00" stroke-width="0.9" transform="scale(1,0.1) translate(0.45,9)" id="path1672"/><path d="M14 171v9m4 21v9m10 131v9m37 571v9m19 311v9" fill="none" stroke="#eed600" stroke-width="0.9" transform="scale(1,0.1) translate(0.45,9)" id="path1674"/><path d="M41 491v9m39 631v9m15 311v9m3 41v9m0 11v9" fill="none" stroke="#eebe00" stroke-width="0.9" transform="scale(1,0.1) translate(0.45,9)" id="path1676"/><path d="M88 1371v9m9 111v9" fill="none" stroke="#eea700" stroke-width="0.9" transform="scale(1,0.1) translate(0.45,9)" id="path1678"/><path d="M6 71v9m36 421v9m25 441v9m23 421v9m4 61v9m1 11v9m1 1v9m0 1v9m0 31v9" fill="none" stroke="#ee8f00" stroke-width="0.9" transform="scale(1,0.1) translate(0.45,9)" id="path1680"/><path d="M41 521v9m53 911v9" fill="none" stroke="#ee7700" stroke-width="0.9" transform="scale(1,0.1) translate(0.45,9)" id="path1682"/><path d="M28 301v9m29 481v9m25 391v9m8 191v9m1-9v9" fill="none" stroke="#ee5f00" stroke-width="0.9" transform="scale(1,0.1) translate(0.45,9)" id="path1684"/><path d="M17 181v9m3 11v9m14 231v9m2-9v9m7 101v9m7 191v9m42 641v9m0 1v9m1 1v9" fill="none" stroke="#ee4700" stroke-width="0.9" transform="scale(1,0.1) translate(0.45,9)" id="path1686"/><path d="M13 121v9m70 1111v9m11 221v9m2 31v9" fill="none" stroke="#ee3000" stroke-width="0.9" transform="scale(1,0.1) translate(0.45,9)" id="path1688"/><path d="M4 51v9m22 271v9m14 181v9m15 261v9m9 51v9m2 11v9m27 551v9" fill="none" stroke="#ee1800" stroke-width="0.9" transform="scale(1,0.1) translate(0.45,9)" id="path1690"/><path d="M25 271v9m18 251v9m0 1v9m3 51v9m26 481v9" fill="none" stroke="#ee0000" stroke-width="0.9" transform="scale(1,0.1) translate(0.45,9)" id="path1692"/><path d="M53 751v9m29 461v9m10 201v9m4 61v9" fill="none" stroke="#e70000" stroke-width="0.9" transform="scale(1,0.1) translate(0.45,9)" id="path1694"/><path d="M41 501v9m53 981v9" fill="none" stroke="#e00000" stroke-width="0.9" transform="scale(1,0.1) translate(0.45,9)" id="path1696"/><path d="M62 831v9" fill="none" stroke="#d90000" stroke-width="0.9" transform="scale(1,0.1) translate(0.45,9)" id="path1698"/><path d="M92 1421v9" fill="none" stroke="#d20000" stroke-width="0.9" transform="scale(1,0.1) translate(0.45,9)" id="path1700"/><path d="M19 201v9" fill="none" stroke="#cc0000" stroke-width="0.9" transform="scale(1,0.1) translate(0.45,9)" id="path1702"/><path d="M92 1451v9" fill="none" stroke="#c50000" stroke-width="0.9" transform="scale(1,0.1) translate(0.45,9)" id="path1704"/><path d="M90 1411v9" fill="none" stroke="#be0000" stroke-width="0.9" transform="scale(1,0.1) translate(0.45,9)" id="path1706"/><path d="M37 491v9m34 541v9m4 61v9" fill="none" stroke="#b70000" stroke-width="0.9" transform="scale(1,0.1) translate(0.45,9)" id="path1708"/><path d="M57 801v9m5 31v9" fill="none" stroke="#b00000" stroke-width="0.9" transform="scale(1,0.1) translate(0.45,9)" id="path1710"/><path d="M78 1111v9" fill="none" stroke="#a90000" stroke-width="0.9" transform="scale(1,0.1) translate(0.45,9)" id="path1712"/><path d="M64 871v9" fill="none" stroke="#870000" stroke-width="0.9" transform="scale(1,0.1) translate(0.45,9)" id="path1714"/><path d="M40 551v9m2 11v9m6 61v9m0 21v9m1-29v9m1-49v9m2 131v9m8 71v9m0 51v9m2-49v9m10 151v9m4 71v9" fill="none" stroke="#800000" stroke-width="0.9" transform="scale(1,0.1) translate(0.45,9)" id="path1716"/><path d="M1-9v9m0 1v9m1-9v9m0 1v9m1 1v9m0 1v9m1 1v9m1-9v9m0 1v9m1-9v9m0 1v9m1-9v9m0 1v9m1-9v9m0 1v9m0 1v9m1-9v9m1-9v9m0 1v9m0 1v9m1-9v9m1-9v9m0 1v9m0 1v9m1-9v9m1-9v9m0 1v9m0 1v9m1-9v9m1-9v9m0 1v9m0 1v9m0 11v9m1-29v9m0 11v9m1-29v9m0 11v9m0 11v9m1-29v9m0 11v9m1-29v9m0 11v9m0 1v9m0 1v9m0 11v9m0 11v9m1-49v9m1-9v9m0 1v9m0 1v9m0 1v9m0 1v9m1-19v9m0 1v9m1-29v9m0 11v9m0 1v9m0 1v9m1-9v9m1-29v9m0 11v9m0 1v9m0 1v9m1-9v9m1-29v9m0 11v9m0 1v9m0 1v9m0 11v9m1-29v9m0 11v9m1-29v9m0 11v9m0 1v9m0 1v9m0 11v9m1-29v9m0 11v9m1-29v9m0 11v9m0 1v9m0 1v9m0 11v9m1-29v9m1-29v9m0 11v9m0 1v9m0 1v9m0 11v9m0 11v9m1-49v9m0 11v9m1-49v9m0 11v9m0 11v9m0 1v9m0 1v9m0 11v9m1-29v9m1-29v9m0 11v9m0 1v9m0 1v9m1-9v9m1-9v9m0 1v9m0 1v9m0 11v9m1-29v9m1-29v9m0 11v9m0 1v9m0 1v9m0 1v9m0 1v9m2-49v9m0 11v9m0 1v9m0 1v9m0 1v9m0 1v9m0 11v9m1-29v9m1-29v9m0 11v9m0 1v9m0 1v9m0 11v9m0 11v9m1-49v9m0 11v9m1-49v9m0 11v9m0 11v9m0 1v9m0 1v9m0 11v9m1-29v9m1-9v9m0 1v9m0 1v9m0 1v9m0 1v9m0 1v9m0 1v9m0 11v9m0 11v9m1-49v9m0 11v9m1-49v9m0 11v9m0 1v9m0 1v9m0 1v9m0 1v9m0 31v9m1-49v9m1-49v9m0 11v9m0 11v9m0 1v9m0 1v9m0 1v9m0 1v9m0 11v9m0 11v9m1-49v9m1-49v9m0 11v9m0 11v9m0 1v9m0 1v9m0 1v9m0 1v9m1-9v9m1-49v9m0 11v9m0 11v9m0 11v9m1-29v9m1-9v9m0 1v9m0 11v9m0 1v9m0 11v9m2-69v9m0 41v9m0 1v9m0 11v9m0 11v9m1-49v9m0 11v9m1-9v9m0 1v9m0 1v9m0 1v9m0 1v9m0 11v9m1-29v9m1-49v9m0 11v9m0 11v9m0 1v9m0 1v9m0 1v9m0 1v9m1-9v9m1-49v9m0 11v9m0 11v9m0 1v9m0 1v9m0 11v9m1-29v9m1-29v9m0 11v9m0 1v9m0 1v9m0 1v9m0 1v9m0 11v9m1-29v9m1-9v9m0 1v9m0 1v9m0 1v9m0 1v9m1-9v9m1-29v9m0 11v9m0 1v9m0 1v9m0 11v9m1-29v9m1-29v9m0 21v9m0 1v9m0 1v9m0 1v9m0 11v9m1-29v9m0 11v9m1-29v9m0 11v9m0 1v9m0 1v9m0 11v9m1-29v9m1-29v9m0 11v9m0 1v9m0 1v9m0 1v9m0 1v9m0 11v9m1-29v9m0 11v9m1-29v9m0 11v9m0 1v9m0 1v9m1-9v9" fill="none" stroke="#300000" stroke-width="0.9" transform="scale(1,0.1) translate(0.45,9)" id="path1718"/></g><rect fill="none" height="713" stroke="black" stroke-width="1" width="473" x="39.5" y="15.5" id="rect1722"/><g stroke="none" id="g1856"><rect fill="#300000" height="11" width="25" x="530" y="16" id="rect1724"/><rect fill="#800000" height="11" width="25" x="530" y="27" id="rect1726"/><rect fill="#870000" height="11" width="25" x="530" y="38" id="rect1728"/><rect fill="#8e0000" height="11" width="25" x="530" y="49" id="rect1730"/><rect fill="#950000" height="12" width="25" x="530" y="60" id="rect1732"/><rect fill="#9c0000" height="11" width="25" x="530" y="72" id="rect1734"/><rect fill="#a20000" height="11" width="25" x="530" y="83" id="rect1736"/><rect fill="#a90000" height="11" width="25" x="530" y="94" id="rect1738"/><rect fill="#b00000" height="11" width="25" x="530" y="105" id="rect1740"/><rect fill="#b70000" height="11" width="25" x="530" y="116" id="rect1742"/><rect fill="#be0000" height="11" width="25" x="530" y="127" id="rect1744"/><rect fill="#c50000" height="11" width="25" x="530" y="138" id="rect1746"/><rect fill="#cc0000" height="11" width="25" x="530" y="149" id="rect1748"/><rect fill="#d20000" height="12" width="25" x="530" y="160" id="rect1750"/><rect fill="#d90000" height="11" width="25" x="530" y="172" id="rect1752"/><rect fill="#e00000" height="11" width="25" x="530" y="183" id="rect1754"/><rect fill="#e70000" height="11" width="25" x="530" y="194" id="rect1756"/><rect fill="#ee0000" height="11" width="25" x="530" y="205" id="rect1758"/><rect fill="#ee1800" height="11" width="25" x="530" y="216" id="rect1760"/><rect fill="#ee3000" height="11" width="25" x="530" y="227" id="rect1762"/><rect fill="#ee4700" height="11" width="25" x="530" y="238" id="rect1764"/><rect fill="#ee5f00" height="11" width="25" x="530" y="249" id="rect1766"/><rect fill="#ee7700" height="12" width="25" x="530" y="260" id="rect1768"/><rect fill="#ee8f00" height="11" width="25" x="530" y="272" id="rect1770"/><rect fill="#eea700" height="11" width="25" x="530" y="283" id="rect1772"/><rect fill="#eebe00" height="11" width="25" x="530" y="294" id="rect1774"/><rect fill="#eed600" height="11" width="25" x="530" y="305" id="rect1776"/><rect fill="#eeee00" height="11" width="25" x="530" y="316" id="rect1778"/><rect fill="#c5ee07" height="11" width="25" x="530" y="327" id="rect1780"/><rect fill="#9cee0e" height="11" width="25" x="530" y="338" id="rect1782"/><rect fill="#74ee14" height="11" width="25" x="530" y="349" id="rect1784"/><rect fill="#4bee1b" height="12" width="25" x="530" y="360" id="rect1786"/><rect fill="#22ee22" height="11" width="25" x="530" y="372" id="rect1788"/><rect fill="#1be744" height="11" width="25" x="530" y="383" id="rect1790"/><rect fill="#14e066" height="11" width="25" x="530" y="394" id="rect1792"/><rect fill="#0eda88" height="11" width="25" x="530" y="405" id="rect1794"/><rect fill="#07d3aa" height="11" width="25" x="530" y="416" id="rect1796"/><rect fill="#00cccc" height="11" width="25" x="530" y="427" id="rect1798"/><rect fill="#06b9d2" height="11" width="25" x="530" y="438" id="rect1800"/><rect fill="#0da6d9" height="11" width="25" x="530" y="449" id="rect1802"/><rect fill="#1393df" height="11" width="25" x="530" y="460" id="rect1804"/><rect fill="#1a80e6" height="12" width="25" x="530" y="471" id="rect1806"/><rect fill="#206cec" height="11" width="25" x="530" y="483" id="rect1808"/><rect fill="#2659f2" height="11" width="25" x="530" y="494" id="rect1810"/><rect fill="#2d46f9" height="11" width="25" x="530" y="505" id="rect1812"/><rect fill="#3333ff" height="11" width="25" x="530" y="516" id="rect1814"/><rect fill="#3e3eff" height="11" width="25" x="530" y="527" id="rect1816"/><rect fill="#4a4aff" height="11" width="25" x="530" y="538" id="rect1818"/><rect fill="#5555ff" height="11" width="25" x="530" y="549" id="rect1820"/><rect fill="#6060ff" height="11" width="25" x="530" y="560" id="rect1822"/><rect fill="#6c6cff" height="12" width="25" x="530" y="571" id="rect1824"/><rect fill="#7777ff" height="11" width="25" x="530" y="583" id="rect1826"/><rect fill="#8282ff" height="11" width="25" x="530" y="594" id="rect1828"/><rect fill="#8e8eff" height="11" width="25" x="530" y="605" id="rect1830"/><rect fill="#9999ff" height="11" width="25" x="530" y="616" id="rect1832"/><rect fill="#a4a4ff" height="11" width="25" x="530" y="627" id="rect1834"/><rect fill="#b0b0ff" height="11" width="25" x="530" y="638" id="rect1836"/><rect fill="#bbbbff" height="11" width="25" x="530" y="649" id="rect1838"/><rect fill="#c6c6ff" height="11" width="25" x="530" y="660" id="rect1840"/><rect fill="#d2d2ff" height="12" width="25" x="530" y="671" id="rect1842"/><rect fill="#ddddff" height="11" width="25" x="530" y="683" id="rect1844"/><rect fill="#e8e8ff" height="11" width="25" x="530" y="694" id="rect1846"/><rect fill="#f4f4ff" height="11" width="25" x="530" y="705" id="rect1848"/><rect fill="none" height="713" stroke="black" stroke-width="1" width="26" x="529.5" y="15.5" id="rect1850"/><line stroke="black" stroke-width="1" x1="529.5" x2="555.5" y1="716.5" y2="716.5" id="line1852"/><path d="M555 705.5h5M555 660.5h5M555 616.5h5M555 571.5h5M555 527.5h5M555 482.5h5M555 438.5h5M555 393.5h5M555 360.5h5M555 315.5h5M555 271.5h5M555 226.5h5M555 182.5h5M555 137.5h5M555 93.5h5M555 48.5h5M530.5 716.5h25" fill="none" stroke="black" stroke-width="1" id="path1854"/></g><g fill="black" font-family="Nimbus Roman No9 L, Times, serif" font-size="19" stroke="none" id="g2142"><switch id="switch1862"><text text-anchor="middle" x="122.0" y="748" id="trsvg59-uk" systemLanguage="uk"><tspan id="trsvg1-uk">20</tspan></text>

<text text-anchor="middle" x="122.0" y="748" id="trsvg59"><tspan id="trsvg1">20</tspan></text></switch><switch id="switch1868"><text text-anchor="middle" x="202.0" y="748" id="trsvg60-uk" systemLanguage="uk"><tspan id="trsvg2-uk">40</tspan></text>

<text text-anchor="middle" x="202.0" y="748" id="trsvg60"><tspan id="trsvg2">40</tspan></text></switch><switch id="switch1874"><text text-anchor="middle" x="282.0" y="748" id="trsvg61-uk" systemLanguage="uk"><tspan id="trsvg3-uk">60</tspan></text>

<text text-anchor="middle" x="282.0" y="748" id="trsvg61"><tspan id="trsvg3">60</tspan></text></switch><switch id="switch1880"><text text-anchor="middle" x="362.0" y="748" id="trsvg62-uk" systemLanguage="uk"><tspan id="trsvg4-uk">80</tspan></text>

<text text-anchor="middle" x="362.0" y="748" id="trsvg62"><tspan id="trsvg4">80</tspan></text></switch><switch id="switch1886"><text text-anchor="middle" x="442.0" y="748" id="trsvg63-uk" systemLanguage="uk"><tspan id="trsvg5-uk">100</tspan></text>

<text text-anchor="middle" x="442.0" y="748" id="trsvg63"><tspan id="trsvg5">100</tspan></text></switch><switch id="switch1892" style="-inkscape-font-specification:'sans-serif, Italic';font-family:sans-serif;font-weight:normal;font-style:italic;font-stretch:normal;font-variant:normal;font-size:19px;text-anchor:start;text-align:start;writing-mode:lr;font-variant-ligatures:normal;font-variant-caps:normal;font-variant-numeric:normal;font-feature-settings:normal;"><text x="40" y="748" id="trsvg64-uk" systemLanguage="uk"><tspan id="trsvg6-uk">Z</tspan></text>

<text x="40" y="748" id="trsvg64" style="-inkscape-font-specification:'sans-serif, Italic';font-family:sans-serif;font-weight:normal;font-style:italic;font-stretch:normal;font-variant:normal;font-size:19px;text-anchor:start;text-align:start;writing-mode:lr;font-variant-ligatures:normal;font-variant-caps:normal;font-variant-numeric:normal;font-feature-settings:normal;"><tspan id="trsvg6" style="-inkscape-font-specification:'sans-serif, Italic';font-family:sans-serif;font-weight:normal;font-style:italic;font-stretch:normal;font-variant:normal;font-size:19px;text-anchor:start;text-align:start;writing-mode:lr;font-variant-ligatures:normal;font-variant-caps:normal;font-variant-numeric:normal;font-feature-settings:normal;">Z</tspan></text></switch><switch id="switch1898"><text text-anchor="end" x="35" y="652.0" id="trsvg65-uk" systemLanguage="uk"><tspan id="trsvg7-uk">20</tspan></text>

<text text-anchor="end" x="35" y="652.0" id="trsvg65"><tspan id="trsvg7">20</tspan></text></switch><switch id="switch1904"><text text-anchor="end" x="35" y="572.0" id="trsvg66-uk" systemLanguage="uk"><tspan id="trsvg8-uk">40</tspan></text>

<text text-anchor="end" x="35" y="572.0" id="trsvg66"><tspan id="trsvg8">40</tspan></text></switch><switch id="switch1910"><text text-anchor="end" x="35" y="492.0" id="trsvg67-uk" systemLanguage="uk"><tspan id="trsvg9-uk">60</tspan></text>

<text text-anchor="end" x="35" y="492.0" id="trsvg67"><tspan id="trsvg9">60</tspan></text></switch><switch id="switch1916"><text text-anchor="end" x="35" y="412.0" id="trsvg68-uk" systemLanguage="uk"><tspan id="trsvg10-uk">80</tspan></text>

<text text-anchor="end" x="35" y="412.0" id="trsvg68"><tspan id="trsvg10">80</tspan></text></switch><switch id="switch1922"><text text-anchor="end" x="35" y="332.0" id="trsvg69-uk" systemLanguage="uk"><tspan id="trsvg11-uk">100</tspan></text>

<text text-anchor="end" x="35" y="332.0" id="trsvg69"><tspan id="trsvg11">100</tspan></text></switch><switch id="switch1928"><text text-anchor="end" x="35" y="252.0" id="trsvg70-uk" systemLanguage="uk"><tspan id="trsvg12-uk">120</tspan></text>

<text text-anchor="end" x="35" y="252.0" id="trsvg70"><tspan id="trsvg12">120</tspan></text></switch><switch id="switch1934"><text text-anchor="end" x="35" y="172.0" id="trsvg71-uk" systemLanguage="uk"><tspan id="trsvg13-uk">140</tspan></text>

<text text-anchor="end" x="35" y="172.0" id="trsvg71"><tspan id="trsvg13">140</tspan></text></switch><switch id="switch1940"><text text-anchor="end" x="35" y="92.0" id="trsvg72-uk" systemLanguage="uk"><tspan id="trsvg14-uk">160</tspan></text>

<text text-anchor="end" x="35" y="92.0" id="trsvg72"><tspan id="trsvg14">160</tspan></text></switch><switch id="switch1946" style="-inkscape-font-specification:'sans-serif, Italic';font-family:sans-serif;font-weight:normal;font-style:italic;font-stretch:normal;font-variant:normal;font-size:19px;text-anchor:end;text-align:end;writing-mode:lr;font-variant-ligatures:normal;font-variant-caps:normal;font-variant-numeric:normal;font-feature-settings:normal;"><text text-anchor="end" x="32" y="728" id="trsvg73-uk" systemLanguage="uk"><tspan id="trsvg15-uk">N</tspan></text>

<text text-anchor="end" x="32" y="728" id="trsvg73" style="-inkscape-font-specification:'sans-serif, Italic';font-family:sans-serif;font-weight:normal;font-style:italic;font-stretch:normal;font-variant:normal;font-size:19px;text-anchor:end;text-align:end;writing-mode:lr;font-variant-ligatures:normal;font-variant-caps:normal;font-variant-numeric:normal;font-feature-settings:normal;"><tspan id="trsvg15" style="-inkscape-font-specification:'sans-serif, Italic';font-family:sans-serif;font-weight:normal;font-style:italic;font-stretch:normal;font-variant:normal;font-size:19px;text-anchor:end;text-align:end;writing-mode:lr;font-variant-ligatures:normal;font-variant-caps:normal;font-variant-numeric:normal;font-feature-settings:normal;">N</tspan></text></switch><switch id="switch1952" style="-inkscape-font-specification:'sans-serif, Italic';font-family:sans-serif;font-weight:normal;font-style:italic;font-stretch:normal;font-variant:normal;font-size:19px;text-anchor:start;text-align:start;writing-mode:lr;font-variant-ligatures:normal;font-variant-caps:normal;font-variant-numeric:normal;font-feature-settings:normal;"><text x="390.4" y="397.6" id="trsvg74-uk" systemLanguage="uk"><tspan id="trsvg16-uk">Z=N</tspan></text>

<text x="390.4" y="397.6" id="trsvg74" style="-inkscape-font-specification:'sans-serif, Italic';font-family:sans-serif;font-weight:normal;font-style:italic;font-stretch:normal;font-variant:normal;font-size:19px;text-anchor:start;text-align:start;writing-mode:lr;font-variant-ligatures:normal;font-variant-caps:normal;font-variant-numeric:normal;font-feature-settings:normal;"><tspan id="trsvg16" style="-inkscape-font-specification:'sans-serif, Italic';font-family:sans-serif;font-weight:normal;font-style:italic;font-stretch:normal;font-variant:normal;font-size:19px;text-anchor:start;text-align:start;writing-mode:lr;font-variant-ligatures:normal;font-variant-caps:normal;font-variant-numeric:normal;font-feature-settings:normal;">Z = N</tspan></text></switch><switch id="switch1962"><text text-anchor="start" x="565" y="710" id="trsvg75-uk" systemLanguage="uk"><tspan id="trsvg17-uk">10</tspan><tspan dy="-6" font-size="13" id="trsvg18-uk">−8</tspan><tspan dy="6" id="trsvg19-uk"> с</tspan></text>

<text text-anchor="start" x="565" y="710" id="trsvg75"><tspan id="trsvg17">10</tspan><tspan dy="-6" font-size="13" id="trsvg18">−8</tspan><tspan dy="6" id="trsvg19"> s</tspan></text></switch><switch id="switch1972"><text text-anchor="start" x="565" y="665" id="trsvg76-uk" systemLanguage="uk"><tspan id="trsvg20-uk">10</tspan><tspan dy="-6" font-size="13" id="trsvg21-uk">−6</tspan><tspan dy="6" id="trsvg22-uk"> с</tspan></text>

<text text-anchor="start" x="565" y="665" id="trsvg76"><tspan id="trsvg20">10</tspan><tspan dy="-6" font-size="13" id="trsvg21">−6</tspan><tspan dy="6" id="trsvg22"> s</tspan></text></switch><switch id="switch1982"><text text-anchor="start" x="565" y="621" id="trsvg77-uk" systemLanguage="uk"><tspan id="trsvg23-uk">10</tspan><tspan dy="-6" font-size="13" id="trsvg24-uk">−4</tspan><tspan dy="6" id="trsvg25-uk"> с</tspan></text>

<text text-anchor="start" x="565" y="621" id="trsvg77"><tspan id="trsvg23">10</tspan><tspan dy="-6" font-size="13" id="trsvg24">−4</tspan><tspan dy="6" id="trsvg25"> s</tspan></text></switch><switch id="switch1992"><text text-anchor="start" x="565" y="576" id="trsvg78-uk" systemLanguage="uk"><tspan id="trsvg26-uk">10</tspan><tspan dy="-6" font-size="13" id="trsvg27-uk">−2</tspan><tspan dy="6" id="trsvg28-uk"> с</tspan></text>

<text text-anchor="start" x="565" y="576" id="trsvg78"><tspan id="trsvg26">10</tspan><tspan dy="-6" font-size="13" id="trsvg27">−2</tspan><tspan dy="6" id="trsvg28"> s</tspan></text></switch><switch id="switch1998"><text text-anchor="start" x="565" y="532" id="trsvg79-uk" systemLanguage="uk"><tspan id="trsvg29-uk">1 с</tspan></text>

<text text-anchor="start" x="565" y="532" id="trsvg79"><tspan id="trsvg29">1 s</tspan></text></switch><switch id="switch2004"><text text-anchor="start" x="565" y="487" id="trsvg80-uk" systemLanguage="uk"><tspan id="trsvg30-uk">100 с</tspan></text>

<text text-anchor="start" x="565" y="487" id="trsvg80"><tspan id="trsvg30">100 s</tspan></text></switch><switch id="switch2014"><text text-anchor="start" x="565" y="443" id="trsvg81-uk" systemLanguage="uk"><tspan id="trsvg31-uk">10</tspan><tspan dy="-6" font-size="13" id="trsvg32-uk">4</tspan><tspan dy="6" id="trsvg33-uk"> с</tspan></text>

<text text-anchor="start" x="565" y="443" id="trsvg81"><tspan id="trsvg31">10</tspan><tspan dy="-6" font-size="13" id="trsvg32">4</tspan><tspan dy="6" id="trsvg33"> s</tspan></text></switch><switch id="switch2024"><text text-anchor="start" x="565" y="398" id="trsvg82-uk" systemLanguage="uk"><tspan id="trsvg34-uk">10</tspan><tspan dy="-6" font-size="13" id="trsvg35-uk">6</tspan><tspan dy="6" id="trsvg36-uk"> с</tspan></text>

<text text-anchor="start" x="565" y="398" id="trsvg82"><tspan id="trsvg34">10</tspan><tspan dy="-6" font-size="13" id="trsvg35">6</tspan><tspan dy="6" id="trsvg36"> s</tspan></text></switch><switch id="switch2032"><text text-anchor="start" x="565" y="365" id="trsvg83-ca" systemLanguage="ca"><tspan id="trsvg37-ca">1 any</tspan></text>
<text text-anchor="start" x="565" y="365" id="trsvg83-uk" systemLanguage="uk"><tspan id="trsvg37-uk">1 рік</tspan></text>

<text text-anchor="start" x="565" y="365" id="trsvg83-fr" systemLanguage="fr"><tspan id="trsvg37-fr">1 an</tspan></text><text text-anchor="start" x="565" y="365" id="trsvg83-de" systemLanguage="de"><tspan id="trsvg37-de">1 a</tspan></text><text text-anchor="start" x="565" y="365" id="trsvg83-sk" systemLanguage="sk"><tspan id="trsvg37-sk">1 r</tspan></text><text text-anchor="start" x="565" y="365" id="trsvg83"><tspan id="trsvg37">1 yr</tspan></text></switch><switch id="switch2040"><text text-anchor="start" x="565" y="320" id="trsvg84-ca" systemLanguage="ca"><tspan id="trsvg38-ca">100 anys</tspan></text>
<text text-anchor="start" x="565" y="320" id="trsvg84-uk" systemLanguage="uk"><tspan id="trsvg38-uk">100 р.</tspan></text>

<text text-anchor="start" x="565" y="320" id="trsvg84-fr" systemLanguage="fr"><tspan id="trsvg38-fr">100 ans</tspan></text><text text-anchor="start" x="565" y="320" id="trsvg84-de" systemLanguage="de"><tspan id="trsvg38-de">100 a</tspan></text><text text-anchor="start" x="565" y="320" id="trsvg84-sk" systemLanguage="sk"><tspan id="trsvg38-sk">100 r</tspan></text><text text-anchor="start" x="565" y="320" id="trsvg84"><tspan id="trsvg38">100 yr</tspan></text></switch><switch id="switch2054"><text text-anchor="start" x="565" y="276" id="trsvg85-ca" systemLanguage="ca"><tspan id="trsvg39-ca">10</tspan><tspan dy="-6" font-size="13" id="trsvg40-ca">4</tspan><tspan dy="6" id="trsvg41-ca"> anys</tspan></text>
<text text-anchor="start" x="565" y="276" id="trsvg85-uk" systemLanguage="uk"><tspan id="trsvg39-uk">10</tspan><tspan dy="-6" font-size="13" id="trsvg40-uk">4</tspan><tspan dy="6" id="trsvg41-uk"> р.</tspan></text>

<text text-anchor="start" x="565" y="276" id="trsvg85-fr" systemLanguage="fr"><tspan id="trsvg39-fr">10</tspan><tspan dy="-6" font-size="13" id="trsvg40-fr">4</tspan><tspan dy="6" id="trsvg41-fr"> ans</tspan></text><text text-anchor="start" x="565" y="276" id="trsvg85-de" systemLanguage="de"><tspan id="trsvg39-de">10</tspan><tspan dy="-6" font-size="13" id="trsvg40-de">4</tspan><tspan dy="6" id="trsvg41-de"> a</tspan></text><text text-anchor="start" x="565" y="276" id="trsvg85-sk" systemLanguage="sk"><tspan id="trsvg39-sk">10</tspan><tspan dy="-6" font-size="13" id="trsvg40-sk">4</tspan><tspan dy="6" id="trsvg41-sk"> r</tspan></text><text text-anchor="start" x="565" y="276" id="trsvg85"><tspan id="trsvg39">10</tspan><tspan dy="-6" font-size="13" id="trsvg40">4</tspan><tspan dy="6" id="trsvg41"> yr</tspan></text></switch><switch id="switch2068"><text text-anchor="start" x="565" y="231" id="trsvg86-ca" systemLanguage="ca"><tspan id="trsvg42-ca">10</tspan><tspan dy="-6" font-size="13" id="trsvg43-ca">6</tspan><tspan dy="6" id="trsvg44-ca"> anys</tspan></text>
<text text-anchor="start" x="565" y="231" id="trsvg86-uk" systemLanguage="uk"><tspan id="trsvg42-uk">10</tspan><tspan dy="-6" font-size="13" id="trsvg43-uk">6</tspan><tspan dy="6" id="trsvg44-uk"> р.</tspan></text>

<text text-anchor="start" x="565" y="231" id="trsvg86-fr" systemLanguage="fr"><tspan id="trsvg42-fr">10</tspan><tspan dy="-6" font-size="13" id="trsvg43-fr">6</tspan><tspan dy="6" id="trsvg44-fr"> ans</tspan></text><text text-anchor="start" x="565" y="231" id="trsvg86-de" systemLanguage="de"><tspan id="trsvg42-de">10</tspan><tspan dy="-6" font-size="13" id="trsvg43-de">6</tspan><tspan dy="6" id="trsvg44-de"> a</tspan></text><text text-anchor="start" x="565" y="231" id="trsvg86-sk" systemLanguage="sk"><tspan id="trsvg42-sk">10</tspan><tspan dy="-6" font-size="13" id="trsvg43-sk">6</tspan><tspan dy="6" id="trsvg44-sk"> r</tspan></text><text text-anchor="start" x="565" y="231" id="trsvg86"><tspan id="trsvg42">10</tspan><tspan dy="-6" font-size="13" id="trsvg43">6</tspan><tspan dy="6" id="trsvg44"> yr</tspan></text></switch><switch id="switch2082"><text text-anchor="start" x="565" y="187" id="trsvg87-ca" systemLanguage="ca"><tspan id="trsvg45-ca">10</tspan><tspan dy="-6" font-size="13" id="trsvg46-ca">8</tspan><tspan dy="6" id="trsvg47-ca"> anys</tspan></text>
<text text-anchor="start" x="565" y="187" id="trsvg87-uk" systemLanguage="uk"><tspan id="trsvg45-uk">10</tspan><tspan dy="-6" font-size="13" id="trsvg46-uk">8</tspan><tspan dy="6" id="trsvg47-uk"> р.</tspan></text>

<text text-anchor="start" x="565" y="187" id="trsvg87-fr" systemLanguage="fr"><tspan id="trsvg45-fr">10</tspan><tspan dy="-6" font-size="13" id="trsvg46-fr">8</tspan><tspan dy="6" id="trsvg47-fr"> ans</tspan></text><text text-anchor="start" x="565" y="187" id="trsvg87-de" systemLanguage="de"><tspan id="trsvg45-de">10</tspan><tspan dy="-6" font-size="13" id="trsvg46-de">8</tspan><tspan dy="6" id="trsvg47-de"> a</tspan></text><text text-anchor="start" x="565" y="187" id="trsvg87-sk" systemLanguage="sk"><tspan id="trsvg45-sk">10</tspan><tspan dy="-6" font-size="13" id="trsvg46-sk">8</tspan><tspan dy="6" id="trsvg47-sk"> r</tspan></text><text text-anchor="start" x="565" y="187" id="trsvg87"><tspan id="trsvg45">10</tspan><tspan dy="-6" font-size="13" id="trsvg46">8</tspan><tspan dy="6" id="trsvg47"> yr</tspan></text></switch><switch id="switch2096"><text text-anchor="start" x="565" y="142" id="trsvg88-ca" systemLanguage="ca"><tspan id="trsvg48-ca">10</tspan><tspan dy="-6" font-size="13" id="trsvg49-ca">10</tspan><tspan dy="6" id="trsvg50-ca"> anys</tspan></text>
<text text-anchor="start" x="565" y="142" id="trsvg88-uk" systemLanguage="uk"><tspan id="trsvg48-uk">10</tspan><tspan dy="-6" font-size="13" id="trsvg49-uk">10</tspan><tspan dy="6" id="trsvg50-uk"> р.</tspan></text>

<text text-anchor="start" x="565" y="142" id="trsvg88-fr" systemLanguage="fr"><tspan id="trsvg48-fr">10</tspan><tspan dy="-6" font-size="13" id="trsvg49-fr">10</tspan><tspan dy="6" id="trsvg50-fr"> ans</tspan></text><text text-anchor="start" x="565" y="142" id="trsvg88-de" systemLanguage="de"><tspan id="trsvg48-de">10</tspan><tspan dy="-6" font-size="13" id="trsvg49-de">10</tspan><tspan dy="6" id="trsvg50-de"> a</tspan></text><text text-anchor="start" x="565" y="142" id="trsvg88-sk" systemLanguage="sk"><tspan id="trsvg48-sk">10</tspan><tspan dy="-6" font-size="13" id="trsvg49-sk">10</tspan><tspan dy="6" id="trsvg50-sk"> r</tspan></text><text text-anchor="start" x="565" y="142" id="trsvg88"><tspan id="trsvg48">10</tspan><tspan dy="-6" font-size="13" id="trsvg49">10</tspan><tspan dy="6" id="trsvg50"> yr</tspan></text></switch><switch id="switch2110"><text text-anchor="start" x="565" y="98" id="trsvg89-ca" systemLanguage="ca"><tspan id="trsvg51-ca">10</tspan><tspan dy="-6" font-size="13" id="trsvg52-ca">12</tspan><tspan dy="6" id="trsvg53-ca"> anys</tspan></text>
<text text-anchor="start" x="565" y="98" id="trsvg89-uk" systemLanguage="uk"><tspan id="trsvg51-uk">10</tspan><tspan dy="-6" font-size="13" id="trsvg52-uk">12</tspan><tspan dy="6" id="trsvg53-uk"> р.</tspan></text>

<text text-anchor="start" x="565" y="98" id="trsvg89-fr" systemLanguage="fr"><tspan id="trsvg51-fr">10</tspan><tspan dy="-6" font-size="13" id="trsvg52-fr">12</tspan><tspan dy="6" id="trsvg53-fr"> ans</tspan></text><text text-anchor="start" x="565" y="98" id="trsvg89-de" systemLanguage="de"><tspan id="trsvg51-de">10</tspan><tspan dy="-6" font-size="13" id="trsvg52-de">12</tspan><tspan dy="6" id="trsvg53-de"> a</tspan></text><text text-anchor="start" x="565" y="98" id="trsvg89-sk" systemLanguage="sk"><tspan id="trsvg51-sk">10</tspan><tspan dy="-6" font-size="13" id="trsvg52-sk">12</tspan><tspan dy="6" id="trsvg53-sk"> r</tspan></text><text text-anchor="start" x="565" y="98" id="trsvg89"><tspan id="trsvg51">10</tspan><tspan dy="-6" font-size="13" id="trsvg52">12</tspan><tspan dy="6" id="trsvg53"> yr</tspan></text></switch><switch id="switch2124"><text text-anchor="start" x="565" y="53" id="trsvg90-ca" systemLanguage="ca"><tspan id="trsvg54-ca">10</tspan><tspan dy="-6" font-size="13" id="trsvg55-ca">14</tspan><tspan dy="6" id="trsvg56-ca"> anys</tspan></text>
<text text-anchor="start" x="565" y="53" id="trsvg90-uk" systemLanguage="uk"><tspan id="trsvg54-uk">10</tspan><tspan dy="-6" font-size="13" id="trsvg55-uk">14</tspan><tspan dy="6" id="trsvg56-uk"> р.</tspan></text>

<text text-anchor="start" x="565" y="53" id="trsvg90-fr" systemLanguage="fr"><tspan id="trsvg54-fr">10</tspan><tspan dy="-6" font-size="13" id="trsvg55-fr">14</tspan><tspan dy="6" id="trsvg56-fr"> ans</tspan></text><text text-anchor="start" x="565" y="53" id="trsvg90-de" systemLanguage="de"><tspan id="trsvg54-de">10</tspan><tspan dy="-6" font-size="13" id="trsvg55-de">14</tspan><tspan dy="6" id="trsvg56-de"> a</tspan></text><text text-anchor="start" x="565" y="53" id="trsvg90-sk" systemLanguage="sk"><tspan id="trsvg54-sk">10</tspan><tspan dy="-6" font-size="13" id="trsvg55-sk">14</tspan><tspan dy="6" id="trsvg56-sk"> r</tspan></text><text text-anchor="start" x="565" y="53" id="trsvg90"><tspan id="trsvg54">10</tspan><tspan dy="-6" font-size="13" id="trsvg55">14</tspan><tspan dy="6" id="trsvg56"> yr</tspan></text></switch><switch id="switch2132" style="-inkscape-font-specification:'sans-serif, Normal';font-family:sans-serif;font-weight:normal;font-style:normal;font-stretch:normal;font-variant:normal;font-size:19px;text-anchor:start;text-align:start;writing-mode:lr;font-variant-ligatures:normal;font-variant-caps:normal;font-variant-numeric:normal;font-feature-settings:normal;"><text text-anchor="start" x="560" y="728" id="trsvg91-ca" systemLanguage="ca"><tspan id="trsvg57-ca">sense dades</tspan></text>
<text text-anchor="start" x="560" y="728" id="trsvg91-uk" systemLanguage="uk"><tspan id="trsvg57-uk">немає даних</tspan></text>

<text text-anchor="start" x="560" y="728" id="trsvg91-fr" style="-inkscape-font-specification:'sans-serif, Normal';font-family:sans-serif;font-weight:normal;font-style:normal;font-stretch:normal;font-variant:normal;font-size:19px;text-anchor:start;text-align:start;writing-mode:lr;font-variant-ligatures:normal;font-variant-caps:normal;font-variant-numeric:normal;font-feature-settings:normal;" systemLanguage="fr"><tspan id="trsvg57-fr" style="-inkscape-font-specification:'sans-serif, Normal';font-family:sans-serif;font-weight:normal;font-style:normal;font-stretch:normal;font-variant:normal;font-size:19px;text-anchor:start;text-align:start;writing-mode:lr;font-variant-ligatures:normal;font-variant-caps:normal;font-variant-numeric:normal;font-feature-settings:normal;">inconnu</tspan></text><text text-anchor="start" x="560" y="728" id="trsvg91-de" style="-inkscape-font-specification:'sans-serif, Normal';font-family:sans-serif;font-weight:normal;font-style:normal;font-stretch:normal;font-variant:normal;font-size:19px;text-anchor:start;text-align:start;writing-mode:lr;font-variant-ligatures:normal;font-variant-caps:normal;font-variant-numeric:normal;font-feature-settings:normal;" systemLanguage="de"><tspan id="trsvg57-de" style="-inkscape-font-specification:'sans-serif, Normal';font-family:sans-serif;font-weight:normal;font-style:normal;font-stretch:normal;font-variant:normal;font-size:19px;text-anchor:start;text-align:start;writing-mode:lr;font-variant-ligatures:normal;font-variant-caps:normal;font-variant-numeric:normal;font-feature-settings:normal;">Unbek.</tspan></text><text text-anchor="start" x="560" y="728" id="trsvg91-sk" style="-inkscape-font-specification:'sans-serif, Normal';font-family:sans-serif;font-weight:normal;font-style:normal;font-stretch:normal;font-variant:normal;font-size:19px;text-anchor:start;text-align:start;writing-mode:lr;font-variant-ligatures:normal;font-variant-caps:normal;font-variant-numeric:normal;font-feature-settings:normal;" systemLanguage="sk"><tspan id="trsvg57-sk" style="-inkscape-font-specification:'sans-serif, Normal';font-family:sans-serif;font-weight:normal;font-style:normal;font-stretch:normal;font-variant:normal;font-size:19px;text-anchor:start;text-align:start;writing-mode:lr;font-variant-ligatures:normal;font-variant-caps:normal;font-variant-numeric:normal;font-feature-settings:normal;">bez dát</tspan></text><text text-anchor="start" x="560" y="728" id="trsvg91" style="-inkscape-font-specification:'sans-serif, Normal';font-family:sans-serif;font-weight:normal;font-style:normal;font-stretch:normal;font-variant:normal;font-size:19px;text-anchor:start;text-align:start;writing-mode:lr;font-variant-ligatures:normal;font-variant-caps:normal;font-variant-numeric:normal;font-feature-settings:normal;"><tspan id="trsvg57" style="-inkscape-font-specification:'sans-serif, Normal';font-family:sans-serif;font-weight:normal;font-style:normal;font-stretch:normal;font-variant:normal;font-size:19px;text-anchor:start;text-align:start;writing-mode:lr;font-variant-ligatures:normal;font-variant-caps:normal;font-variant-numeric:normal;font-feature-settings:normal;">no data</tspan></text></switch><switch id="switch2140" style="-inkscape-font-specification:'sans-serif, Normal';font-family:sans-serif;font-weight:normal;font-style:normal;font-stretch:normal;font-variant:normal;font-size:19px;text-anchor:start;text-align:start;writing-mode:lr;font-variant-ligatures:normal;font-variant-caps:normal;font-variant-numeric:normal;font-feature-settings:normal;"><text text-anchor="start" x="560" y="28" id="trsvg92-ca" systemLanguage="ca"><tspan id="trsvg58-ca">estable</tspan></text>
<text text-anchor="start" x="560" y="28" id="trsvg92-uk" systemLanguage="uk"><tspan id="trsvg58-uk">стабільний</tspan></text>

<text text-anchor="start" x="560" y="28" id="trsvg92-de" style="-inkscape-font-specification:'sans-serif, Normal';font-family:sans-serif;font-weight:normal;font-style:normal;font-stretch:normal;font-variant:normal;font-size:19px;text-anchor:start;text-align:start;writing-mode:lr;font-variant-ligatures:normal;font-variant-caps:normal;font-variant-numeric:normal;font-feature-settings:normal;" systemLanguage="de"><tspan id="trsvg58-de" style="-inkscape-font-specification:'sans-serif, Normal';font-family:sans-serif;font-weight:normal;font-style:normal;font-stretch:normal;font-variant:normal;font-size:19px;text-anchor:start;text-align:start;writing-mode:lr;font-variant-ligatures:normal;font-variant-caps:normal;font-variant-numeric:normal;font-feature-settings:normal;">stabil</tspan></text><text text-anchor="start" x="560" y="28" id="trsvg92-sk" style="-inkscape-font-specification:'sans-serif, Normal';font-family:sans-serif;font-weight:normal;font-style:normal;font-stretch:normal;font-variant:normal;font-size:19px;text-anchor:start;text-align:start;writing-mode:lr;font-variant-ligatures:normal;font-variant-caps:normal;font-variant-numeric:normal;font-feature-settings:normal;" systemLanguage="sk"><tspan id="trsvg58-sk" style="-inkscape-font-specification:'sans-serif, Normal';font-family:sans-serif;font-weight:normal;font-style:normal;font-stretch:normal;font-variant:normal;font-size:19px;text-anchor:start;text-align:start;writing-mode:lr;font-variant-ligatures:normal;font-variant-caps:normal;font-variant-numeric:normal;font-feature-settings:normal;">stabilný</tspan></text><text text-anchor="start" x="560" y="28" id="trsvg92" style="-inkscape-font-specification:'sans-serif, Normal';font-family:sans-serif;font-weight:normal;font-style:normal;font-stretch:normal;font-variant:normal;font-size:19px;text-anchor:start;text-align:start;writing-mode:lr;font-variant-ligatures:normal;font-variant-caps:normal;font-variant-numeric:normal;font-feature-settings:normal;"><tspan id="trsvg58" style="-inkscape-font-specification:'sans-serif, Normal';font-family:sans-serif;font-weight:normal;font-style:normal;font-stretch:normal;font-variant:normal;font-size:19px;text-anchor:start;text-align:start;writing-mode:lr;font-variant-ligatures:normal;font-variant-caps:normal;font-variant-numeric:normal;font-feature-settings:normal;">stable</tspan></text></switch></g></svg>
