<svg version="1.1" xmlns="http://www.w3.org/2000/svg" viewBox="0 0 1094.7694725070905 656.1308468788293" width="1094.7694725070905" height="656.1308468788293" filter="invert(93%) hue-rotate(180deg)" class="excalidraw-svg">
  <!-- svg-source:excalidraw -->
  
  <defs>
    <style class="style-fonts">
      
    </style>
    
  </defs>
  <rect x="0" y="0" width="1094.7694725070905" height="656.1308468788293" fill="transparent"></rect><g stroke-linecap="round"><g transform="translate(57.752965163644376 493.36056865307626) rotate(0 0 -225.25)"><path d="M-0.76 0.71 C-0.61 -74.2, 0.59 -375.1, 0.62 -450.25 M1.05 0.04 C1.12 -75.18, 0.45 -377.45, 0 -452.24" stroke="#1e1e1e" stroke-width="1" fill="none"></path></g><g transform="translate(57.752965163644376 493.36056865307626) rotate(0 0 -225.25)"><path d="M8.64 -428.78 C7.59 -434.3, 4.42 -442.84, 0 -452.24 M8.64 -428.78 C6.73 -437.19, 3.45 -444.15, 0 -452.24" stroke="#1e1e1e" stroke-width="1" fill="none"></path></g><g transform="translate(57.752965163644376 493.36056865307626) rotate(0 0 -225.25)"><path d="M-8.46 -428.71 C-4.77 -434.15, -3.19 -442.7, 0 -452.24 M-8.46 -428.71 C-4.77 -437.07, -2.45 -444.05, 0 -452.24" stroke="#1e1e1e" stroke-width="1" fill="none"></path></g></g><mask></mask><g stroke-linecap="round"><g transform="translate(10.252965163644376 457.36056865307626) rotate(0 239.75 0)"><path d="M0.79 -0.05 C80.88 -0.13, 400.22 -0.77, 479.87 -0.94 M-0.25 -1.12 C79.77 -1.04, 398.88 -0.04, 479.11 0.1" stroke="#1e1e1e" stroke-width="1" fill="none"></path></g><g transform="translate(10.252965163644376 457.36056865307626) rotate(0 239.75 0)"><path d="M455.6 8.6 C461.31 6.97, 465.58 2.93, 479.11 0.1 M455.6 8.6 C461.61 6.57, 465.24 5.64, 479.11 0.1" stroke="#1e1e1e" stroke-width="1" fill="none"></path></g><g transform="translate(10.252965163644376 457.36056865307626) rotate(0 239.75 0)"><path d="M455.64 -8.51 C461.27 -5.94, 465.54 -5.79, 479.11 0.1 M455.64 -8.51 C461.62 -6.89, 465.24 -4.17, 479.11 0.1" stroke="#1e1e1e" stroke-width="1" fill="none"></path></g></g><mask></mask><g stroke-linecap="round" transform="translate(58.252965163644376 209.86056865307626) rotate(0 123 123)"><path d="M0 0 C0 0, 0 0, 0 0 M0 0 C0 0, 0 0, 0 0 M-0.26 6.4 C2.46 3.44, 3.8 2.22, 4.99 0.36 M-0.26 6.4 C0.84 5.1, 2.75 3.09, 4.99 0.36 M0.13 12.04 C2.34 9.48, 5.26 6.71, 10.63 -0.03 M0.13 12.04 C3.44 9.11, 5.37 5.99, 10.63 -0.03 M-0.13 18.44 C6.48 12.21, 13.23 6.29, 15.62 0.33 M-0.13 18.44 C5.59 11.36, 12.41 4.52, 15.62 0.33 M0.27 24.08 C6.56 18.28, 13.7 7.5, 21.26 -0.07 M0.27 24.08 C7.14 16.66, 14.85 6.76, 21.26 -0.07 M0 30.48 C8.63 22.19, 16.55 10.74, 26.25 0.29 M0 30.48 C8.18 22.08, 14.4 12.47, 26.25 0.29 M-0.26 36.88 C13.66 23.28, 22.77 10.79, 31.89 -0.1 M-0.26 36.88 C8.5 28.03, 15.44 19.41, 31.89 -0.1 M0.14 42.52 C9.74 30.51, 19.17 19.07, 36.88 0.26 M0.14 42.52 C7.39 33.48, 14.39 25.09, 36.88 0.26 M-0.12 48.92 C12.97 37.58, 23.55 23.73, 42.52 -0.14 M-0.12 48.92 C11.58 34.79, 23.58 20.56, 42.52 -0.14 M0.27 54.56 C16.63 34.52, 38.13 11.63, 47.51 0.22 M0.27 54.56 C17.1 35.1, 33.82 15.57, 47.51 0.22 M0.01 60.96 C18.35 40.96, 35.93 20.12, 53.15 -0.17 M0.01 60.96 C20.85 38.75, 39.68 15.01, 53.15 -0.17 M-0.25 67.36 C13.05 52.96, 28.2 36.97, 58.14 0.19 M-0.25 67.36 C16.72 46.8, 33.43 28.05, 58.14 0.19 M0.14 73 C17.04 51.87, 38.22 27.68, 63.78 -0.21 M0.14 73 C20.5 51.26, 38.21 28.66, 63.78 -0.21 M-0.12 79.4 C15.9 61.86, 34.14 42.73, 68.77 0.15 M-0.12 79.4 C25.19 50, 50.8 19.61, 68.77 0.15 M0.28 85.04 C17.36 63.93, 32.53 43.88, 74.41 -0.24 M0.28 85.04 C26.79 54.07, 54.92 21.86, 74.41 -0.24 M0.01 91.44 C19.34 72.01, 37.4 47.7, 79.4 0.12 M0.01 91.44 C22.01 65.76, 42.63 40.21, 79.4 0.12 M-0.25 97.84 C32.1 59.23, 64.76 25.19, 85.04 -0.28 M-0.25 97.84 C31.24 62.11, 62.6 25.15, 85.04 -0.28 M0.15 103.48 C22.35 76.59, 45.47 50.62, 90.03 0.08 M0.15 103.48 C24.51 76.08, 47.72 48.35, 90.03 0.08 M-0.11 109.88 C34.02 71.04, 70.51 28.64, 95.67 -0.31 M-0.11 109.88 C23.59 83.81, 49.29 54.69, 95.67 -0.31 M0.28 115.52 C35.42 74.53, 73.37 30.88, 100.66 0.05 M0.28 115.52 C34.33 76.2, 69.38 36.18, 100.66 0.05 M0.02 121.92 C33.04 84.08, 71.24 44.04, 106.3 -0.34 M0.02 121.92 C22.74 96.41, 45.98 69.71, 106.3 -0.34 M-0.24 128.32 C21.53 101.51, 44.68 75.33, 111.29 0.02 M-0.24 128.32 C32.19 91.1, 66.35 52.44, 111.29 0.02 M0.15 133.96 C27.65 99.64, 54.11 71.03, 116.27 0.38 M0.15 133.96 C28.57 100.9, 56.56 68.21, 116.27 0.38 M-0.11 140.36 C32.78 101.34, 70.62 58.97, 121.92 -0.02 M-0.11 140.36 C29.47 104.49, 60.28 70.03, 121.92 -0.02 M0.29 146 C47.19 92.14, 96.9 36.77, 126.91 0.34 M0.29 146 C45.69 93.08, 92.01 39.61, 126.91 0.34 M0.02 152.4 C35.31 110.56, 72.62 66.83, 132.55 -0.05 M0.02 152.4 C42.88 103.28, 86.45 53.63, 132.55 -0.05 M-0.24 158.8 C29.71 122.08, 62.35 84.78, 137.54 0.31 M-0.24 158.8 C48.92 102.81, 97.32 46.44, 137.54 0.31 M0.16 164.44 C42.98 113.24, 89.19 61.55, 143.18 -0.09 M0.16 164.44 C50.69 106.2, 101.04 49.83, 143.18 -0.09 M-0.1 170.84 C59.58 103.63, 116.25 34.66, 148.17 0.27 M-0.1 170.84 C41.8 122.54, 81.09 76.33, 148.17 0.27 M0.29 176.48 C45.58 125.36, 89.78 73.02, 153.81 -0.12 M0.29 176.48 C56.96 110.36, 112.98 45.55, 153.81 -0.12 M0.03 182.88 C46.22 129.3, 94.09 73.78, 158.8 0.24 M0.03 182.88 C55.21 122.45, 110.16 59.45, 158.8 0.24 M-0.23 189.27 C60.73 118.72, 122.49 47.57, 164.44 -0.16 M-0.23 189.27 C56.21 123.09, 113.7 56.48, 164.44 -0.16 M0.16 194.92 C46.82 142.6, 92.95 90.12, 169.43 0.2 M0.16 194.92 C39.14 152.95, 75.85 108.29, 169.43 0.2 M-0.1 201.32 C53.91 141.73, 103.91 84.36, 175.07 -0.19 M-0.1 201.32 C43.35 150.38, 87.12 99.78, 175.07 -0.19 M0.3 206.96 C47.59 154.09, 94.62 101.72, 180.06 0.17 M0.3 206.96 C65.62 134.45, 130.75 60.56, 180.06 0.17 M0.03 213.36 C42.83 164.86, 85.45 114.34, 185.7 -0.23 M0.03 213.36 C65.47 138.27, 129.5 63.99, 185.7 -0.23 M-0.23 219.75 C60.87 151.45, 121.01 83.58, 190.69 0.13 M-0.23 219.75 C46.4 167.99, 93.49 114.75, 190.69 0.13 M0.17 225.4 C69.44 146.69, 134.99 67.37, 196.33 -0.26 M0.17 225.4 C66.24 150.49, 132.12 75.63, 196.33 -0.26 M-0.09 231.8 C63.52 159.77, 129.95 85.09, 201.32 0.1 M-0.09 231.8 C65.59 156.86, 131.06 81.14, 201.32 0.1 M0.3 237.44 C53.32 174.02, 106.55 114.15, 206.96 -0.3 M0.3 237.44 C42.37 189.74, 84.16 141.68, 206.96 -0.3 M0.04 243.84 C56.02 180.9, 111.25 118.06, 211.95 0.06 M0.04 243.84 C72.9 161.94, 144.71 79.15, 211.95 0.06 M3.06 246.46 C79.25 161.27, 157.01 72.69, 217.59 -0.33 M3.06 246.46 C83.6 155.3, 163.09 63.17, 217.59 -0.33 M8.7 246.07 C81.67 163.01, 153.96 80.55, 222.58 0.03 M8.7 246.07 C81.61 161.86, 155.45 77.02, 222.58 0.03 M13.69 246.43 C70.38 178.81, 128.77 110.14, 228.22 -0.36 M13.69 246.43 C91.6 159.61, 168.98 71.27, 228.22 -0.36 M19.33 246.03 C79.35 178.55, 136.42 110.26, 233.21 0 M19.33 246.03 C83.67 172.3, 146.82 99.69, 233.21 0 M24.32 246.39 C71.42 187.71, 120.1 133.93, 238.19 0.36 M24.32 246.39 C89.39 174.86, 151.4 102.26, 238.19 0.36 M29.3 246.75 C113.82 151.36, 198.8 54.71, 243.84 -0.04 M29.3 246.75 C89.97 175.71, 151.32 105.24, 243.84 -0.04 M34.95 246.36 C96.75 175.19, 159.78 102.31, 246.2 3.34 M34.95 246.36 C83.48 191.52, 130.63 136.19, 246.2 3.34 M39.93 246.72 C112.09 167.59, 182.29 85.55, 245.94 9.74 M39.93 246.72 C94.85 181.86, 151.29 117.73, 245.94 9.74 M45.58 246.32 C109.33 173.59, 171.02 102.69, 246.33 15.38 M45.58 246.32 C87.23 199.82, 127.86 151.69, 246.33 15.38 M50.56 246.68 C124.89 160.73, 197.26 78, 246.07 21.78 M50.56 246.68 C127.87 160.38, 203.71 73.24, 246.07 21.78 M56.21 246.29 C130.11 160.34, 203.63 76.21, 246.47 27.42 M56.21 246.29 C95.92 203.69, 133.81 158.79, 246.47 27.42 M61.19 246.65 C115.53 188.12, 166.55 129.56, 246.2 33.82 M61.19 246.65 C99.61 203.78, 138.36 159.21, 246.2 33.82 M66.84 246.25 C134.53 165.45, 202.33 89.14, 245.94 40.22 M66.84 246.25 C136.26 167.53, 205.66 87.46, 245.94 40.22 M71.83 246.61 C109.97 201.37, 148.46 155.4, 246.34 45.86 M71.83 246.61 C120.92 191, 169.5 134.66, 246.34 45.86 M77.47 246.22 C116.19 201.37, 153.83 157.65, 246.08 52.26 M77.47 246.22 C120.57 198.06, 160.93 149.07, 246.08 52.26 M82.46 246.58 C132.15 184.9, 187.32 125.56, 246.47 57.9 M82.46 246.58 C116.67 208.44, 149.67 168.33, 246.47 57.9 M88.1 246.18 C122.73 205.54, 159.55 165.84, 246.21 64.3 M88.1 246.18 C134.13 194.78, 178.63 143.12, 246.21 64.3 M93.09 246.54 C136.87 197.4, 179.32 146.99, 245.95 70.7 M93.09 246.54 C148.89 184.63, 203.03 123.19, 245.95 70.7 M98.73 246.15 C147.22 190.84, 195.53 133.93, 246.34 76.34 M98.73 246.15 C143.75 194.09, 188.46 142.45, 246.34 76.34 M103.72 246.51 C149.74 192.33, 197.95 138.03, 246.08 82.74 M103.72 246.51 C153.62 188.73, 203.69 131.81, 246.08 82.74 M109.36 246.12 C143.68 205.64, 182.34 165.49, 246.47 88.38 M109.36 246.12 C152.71 193.81, 197.95 142.55, 246.47 88.38 M114.35 246.48 C158.55 200.33, 198.38 150.28, 246.21 94.78 M114.35 246.48 C164.5 187.82, 215.54 130.73, 246.21 94.78 M119.99 246.08 C146.4 216.09, 174.81 182.67, 245.95 101.18 M119.99 246.08 C154.24 205.71, 190.13 163.88, 245.95 101.18 M124.98 246.44 C174.13 190.67, 222.05 135.46, 246.35 106.82 M124.98 246.44 C163.97 204.59, 200.02 161.8, 246.35 106.82 M130.62 246.05 C169.23 200.95, 206.23 154.73, 246.08 113.22 M130.62 246.05 C167.14 203.16, 202.72 160.63, 246.08 113.22 M135.61 246.41 C173.44 200.32, 214.29 158.15, 246.48 118.86 M135.61 246.41 C171.87 205.55, 207.79 163.1, 246.48 118.86 M140.59 246.77 C168.9 218.02, 192.21 186.21, 246.22 125.26 M140.59 246.77 C170.31 211, 200.56 177.39, 246.22 125.26 M146.24 246.37 C166.58 219.06, 190.41 190.82, 245.96 131.66 M146.24 246.37 C177.66 212.99, 207.65 177.11, 245.96 131.66 M151.22 246.73 C180.66 211.16, 211.63 177.24, 246.35 137.3 M151.22 246.73 C173.9 220.71, 196.85 194.24, 246.35 137.3 M156.87 246.34 C191.61 206.41, 222.94 168.43, 246.09 143.7 M156.87 246.34 C182.58 217.99, 208.14 187.79, 246.09 143.7 M161.85 246.7 C180.19 225.21, 195.28 205.06, 246.48 149.34 M161.85 246.7 C192.66 209.88, 224.31 175.41, 246.48 149.34 M167.5 246.3 C197.43 212.86, 225.09 177.22, 246.22 155.74 M167.5 246.3 C194.02 214.95, 222.31 181.7, 246.22 155.74 M172.48 246.66 C196.28 221.74, 219.27 196.78, 245.96 162.14 M172.48 246.66 C190.68 224.86, 209.11 205.49, 245.96 162.14 M178.13 246.27 C195.41 226.37, 214.2 204.46, 246.36 167.78 M178.13 246.27 C202.79 217.51, 228.1 190.14, 246.36 167.78 M183.11 246.63 C201.01 225.38, 220.63 202.4, 246.09 174.18 M183.11 246.63 C205.31 219.37, 229.94 191.76, 246.09 174.18 M188.76 246.23 C212.19 220.84, 232.92 194.84, 246.49 179.82 M188.76 246.23 C202.62 231.13, 215.6 215.59, 246.49 179.82 M193.74 246.59 C204.54 235.42, 216.04 220.18, 246.23 186.22 M193.74 246.59 C206.98 230.83, 220.53 216.33, 246.23 186.22 M199.39 246.2 C214 230.96, 224.79 216.25, 245.97 192.62 M199.39 246.2 C210.17 232.7, 221.77 220.88, 245.97 192.62 M204.37 246.56 C217.8 229.05, 233.66 214.07, 246.36 198.26 M204.37 246.56 C217.09 230.18, 232.26 215.25, 246.36 198.26 M210.02 246.16 C220.19 237.15, 228.99 224.96, 246.1 204.66 M210.02 246.16 C221.33 233.39, 232.73 220.8, 246.1 204.66 M215 246.53 C226.18 235.15, 236.46 220.26, 246.49 210.3 M215 246.53 C227.01 232.34, 237.83 218.61, 246.49 210.3 M220.65 246.13 C230.02 236.26, 236.69 224.13, 246.23 216.7 M220.65 246.13 C230.47 236.72, 239.84 225.47, 246.23 216.7 M225.63 246.49 C230.6 240.12, 235.5 237.02, 245.97 223.09 M225.63 246.49 C233.71 236.71, 242.3 228.84, 245.97 223.09 M231.28 246.1 C237.85 237.54, 243.6 233.06, 246.37 228.74 M231.28 246.1 C235.45 240.14, 240.88 235.26, 246.37 228.74 M236.26 246.46 C239.17 242.08, 243.15 238.46, 246.1 235.14 M236.26 246.46 C239.27 243.68, 242.64 240.01, 246.1 235.14 M241.91 246.06 C244.09 243.64, 245.86 242.65, 246.5 240.78 M241.91 246.06 C243.1 244.38, 244.6 242.92, 246.5 240.78" stroke="#a5d8ff" stroke-width="0.5" fill="none"></path><path d="M0 0 C68.01 0.82, 132.54 -1.11, 246 0 M0 0 C90.36 -1.89, 179.44 -1.77, 246 0 M246 0 C244.08 67.38, 246.62 132.64, 246 246 M246 0 C245.62 74.26, 246.01 149.54, 246 246 M246 246 C185.04 245.39, 122.57 244.36, 0 246 M246 246 C182.36 245.45, 119.07 245.01, 0 246 M0 246 C-1.22 146.48, 1.25 49.4, 0 0 M0 246 C2.1 158.15, 1.94 71.92, 0 0" stroke="#1971c2" stroke-width="1" fill="none"></path></g><g transform="translate(445.7529651636444 496.36056865307626) rotate(0 12 -9.75)" stroke="none"><path fill="#1e1e1e" d="M -0.72,-1.21 Q -0.72,-1.21 -0.01,-1.65 0.70,-2.09 1.51,-2.46 2.32,-2.83 3.91,-3.55 5.50,-4.28 10.41,-8.94 15.33,-13.61 17.83,-15.30 20.32,-16.99 20.41,-17.05 20.50,-17.10 20.60,-17.13 20.70,-17.16 20.81,-17.15 20.91,-17.14 21.01,-17.10 21.11,-17.06 21.19,-16.99 21.27,-16.92 21.33,-16.83 21.38,-16.74 21.40,-16.64 21.42,-16.53 21.41,-16.43 21.40,-16.32 21.35,-16.23 21.31,-16.13 21.23,-16.05 21.16,-15.98 21.06,-15.93 20.97,-15.88 20.86,-15.86 20.76,-15.85 20.65,-15.87 20.55,-15.88 20.46,-15.94 20.36,-15.99 20.29,-16.06 20.22,-16.14 20.18,-16.24 20.13,-16.34 20.12,-16.44 20.11,-16.55 20.14,-16.65 20.16,-16.75 20.21,-16.85 20.27,-16.94 20.35,-17.00 20.43,-17.07 20.53,-17.11 20.63,-17.15 20.74,-17.15 20.84,-17.16 20.95,-17.13 21.05,-17.10 21.14,-17.04 21.22,-16.98 21.29,-16.89 21.35,-16.81 21.38,-16.70 21.42,-16.60 21.41,-16.50 21.41,-16.39 21.38,-16.29 21.34,-16.19 21.28,-16.11 21.21,-16.02 21.21,-16.02 21.21,-16.02 19.34,-13.66 17.47,-11.31 12.10,-6.45 6.74,-1.60 5.12,-0.90 3.49,-0.20 2.83,0.08 2.17,0.36 1.45,0.79 0.72,1.21 0.57,1.28 0.41,1.35 0.24,1.38 0.08,1.41 -0.08,1.40 -0.26,1.39 -0.42,1.34 -0.58,1.29 -0.73,1.20 -0.87,1.11 -0.99,0.99 -1.11,0.87 -1.20,0.72 -1.29,0.57 -1.34,0.41 -1.39,0.25 -1.40,0.08 -1.41,-0.09 -1.38,-0.25 -1.35,-0.42 -1.28,-0.58 -1.21,-0.73 -1.10,-0.87 -0.99,-1.00 -0.86,-1.11 -0.72,-1.21 -0.72,-1.21 L -0.72,-1.21 Z"></path></g><g transform="translate(457.2529651636444 468.86056865307626) rotate(0 5.75 15.75)" stroke="none"><path fill="#1e1e1e" d="M 1.00,0.70 Q 1.00,0.70 0.01,2.14 -0.97,3.58 -1.44,4.98 -1.92,6.38 -0.68,9.88 0.56,13.38 2.32,16.30 4.07,19.23 5.12,20.95 6.18,22.68 7.59,24.48 9.01,26.29 10.50,27.38 11.99,28.47 13.47,29.51 14.95,30.56 15.04,30.61 15.13,30.67 15.20,30.75 15.27,30.83 15.31,30.93 15.34,31.03 15.35,31.14 15.35,31.25 15.32,31.35 15.29,31.45 15.23,31.54 15.17,31.62 15.09,31.69 15.00,31.75 14.90,31.78 14.80,31.81 14.69,31.81 14.58,31.81 14.48,31.78 14.38,31.74 14.30,31.68 14.22,31.61 14.16,31.52 14.10,31.43 14.07,31.33 14.05,31.23 14.05,31.12 14.06,31.02 14.10,30.92 14.14,30.82 14.21,30.74 14.28,30.66 14.37,30.61 14.47,30.55 14.57,30.53 14.67,30.51 14.78,30.52 14.88,30.54 14.98,30.58 15.08,30.63 15.15,30.70 15.23,30.78 15.28,30.87 15.33,30.96 15.34,31.07 15.36,31.17 15.34,31.28 15.32,31.38 15.27,31.48 15.22,31.57 15.14,31.64 15.06,31.71 14.96,31.76 14.87,31.80 14.76,31.81 14.66,31.82 14.55,31.80 14.45,31.77 14.45,31.77 14.45,31.77 12.32,31.32 10.20,30.87 8.44,29.49 6.68,28.11 5.19,26.15 3.70,24.18 2.65,22.43 1.59,20.68 -0.24,17.45 -2.09,14.23 -3.24,10.03 -4.38,5.83 -3.71,4.00 -3.05,2.16 -2.02,0.72 -1.00,-0.70 -0.90,-0.81 -0.80,-0.92 -0.68,-1.00 -0.56,-1.08 -0.42,-1.13 -0.28,-1.19 -0.13,-1.20 0.00,-1.22 0.15,-1.20 0.30,-1.18 0.43,-1.13 0.57,-1.08 0.69,-0.99 0.81,-0.91 0.91,-0.80 1.01,-0.68 1.08,-0.55 1.14,-0.42 1.18,-0.28 1.21,-0.13 1.21,0.00 1.21,0.15 1.17,0.29 1.14,0.44 1.07,0.57 1.00,0.70 1.00,0.70 L 1.00,0.70 Z"></path></g><g transform="translate(475.2529651636444 508.36056865307626) rotate(0 7 0)" stroke="none"><path fill="#1e1e1e" d="M -0.52,-1.31 Q -0.52,-1.31 0.18,-1.60 0.90,-1.90 1.84,-2.44 2.78,-2.98 3.84,-3.77 4.90,-4.56 7.12,-6.98 9.34,-9.40 10.43,-10.26 11.52,-11.13 11.81,-11.31 12.09,-11.50 12.26,-11.60 12.42,-11.70 12.61,-11.76 12.80,-11.81 12.99,-11.82 13.19,-11.83 13.38,-11.80 13.57,-11.76 13.75,-11.68 13.92,-11.60 14.08,-11.48 14.23,-11.36 14.35,-11.20 14.47,-11.05 14.55,-10.87 14.62,-10.69 14.66,-10.50 14.69,-10.31 14.68,-10.11 14.67,-9.92 14.61,-9.73 14.55,-9.55 14.45,-9.38 14.34,-9.22 14.21,-9.08 14.07,-8.94 13.88,-7.97 13.70,-6.99 13.23,-5.43 12.76,-3.86 11.98,-1.45 11.19,0.95 10.60,3.62 10.00,6.30 9.15,8.65 8.31,11.00 8.28,11.10 8.24,11.20 8.18,11.29 8.12,11.37 8.03,11.43 7.94,11.49 7.84,11.52 7.74,11.55 7.63,11.55 7.53,11.54 7.43,11.51 7.33,11.47 7.25,11.40 7.17,11.33 7.11,11.24 7.05,11.15 7.03,11.05 7.01,10.94 7.02,10.84 7.03,10.73 7.07,10.64 7.11,10.54 7.18,10.46 7.26,10.38 7.35,10.33 7.44,10.28 7.55,10.26 7.65,10.24 7.76,10.26 7.86,10.28 7.96,10.32 8.05,10.37 8.13,10.45 8.20,10.53 8.24,10.62 8.29,10.72 8.30,10.82 8.32,10.93 8.29,11.03 8.27,11.14 8.22,11.23 8.17,11.32 8.09,11.39 8.01,11.46 7.91,11.50 7.81,11.54 7.70,11.55 7.60,11.55 7.49,11.53 7.39,11.50 7.30,11.44 7.21,11.38 7.15,11.30 7.08,11.22 7.05,11.12 7.01,11.02 7.01,10.91 7.01,10.80 7.01,10.80 7.01,10.80 6.91,8.19 6.82,5.58 7.46,2.76 8.10,-0.04 8.88,-2.42 9.65,-4.81 10.14,-6.41 10.63,-8.02 11.36,-9.76 12.09,-11.50 12.26,-11.60 12.42,-11.70 12.61,-11.76 12.80,-11.81 12.99,-11.82 13.19,-11.83 13.38,-11.80 13.57,-11.76 13.75,-11.68 13.92,-11.60 14.08,-11.48 14.23,-11.36 14.35,-11.20 14.47,-11.05 14.55,-10.87 14.62,-10.69 14.66,-10.50 14.69,-10.31 14.68,-10.11 14.67,-9.92 14.61,-9.73 14.55,-9.55 14.45,-9.38 14.34,-9.22 14.21,-9.08 14.07,-8.94 13.78,-8.76 13.50,-8.57 12.59,-7.88 11.67,-7.20 9.18,-4.62 6.68,-2.04 5.43,-1.21 4.18,-0.38 3.08,0.18 1.97,0.75 1.24,1.03 0.52,1.31 0.36,1.35 0.19,1.39 0.02,1.40 -0.14,1.40 -0.31,1.36 -0.47,1.32 -0.62,1.25 -0.78,1.17 -0.91,1.06 -1.04,0.95 -1.13,0.81 -1.23,0.67 -1.30,0.52 -1.36,0.36 -1.38,0.19 -1.41,0.02 -1.39,-0.14 -1.37,-0.31 -1.32,-0.47 -1.26,-0.63 -1.16,-0.77 -1.07,-0.91 -0.94,-1.03 -0.82,-1.14 -0.67,-1.23 -0.52,-1.31 -0.52,-1.31 L -0.52,-1.31 Z"></path></g><g transform="translate(16.752965163644376 41.36056865307626) rotate(0 10.25 -6.5)" stroke="none"><path fill="#1e1e1e" d="M -0.63,-1.11 Q -0.63,-1.11 0.36,-1.69 1.36,-2.27 2.38,-2.82 3.40,-3.36 5.31,-4.19 7.21,-5.03 10.73,-7.63 14.26,-10.22 16.03,-11.05 17.81,-11.87 17.90,-11.92 18.00,-11.96 18.10,-11.98 18.21,-11.99 18.31,-11.97 18.42,-11.95 18.51,-11.90 18.60,-11.85 18.67,-11.77 18.74,-11.69 18.79,-11.59 18.83,-11.50 18.84,-11.39 18.85,-11.28 18.82,-11.18 18.79,-11.08 18.74,-10.99 18.68,-10.90 18.60,-10.83 18.51,-10.76 18.42,-10.73 18.32,-10.69 18.21,-10.69 18.10,-10.69 18.00,-10.72 17.90,-10.75 17.81,-10.81 17.73,-10.87 17.67,-10.96 17.60,-11.04 17.57,-11.15 17.54,-11.25 17.54,-11.35 17.55,-11.46 17.58,-11.56 17.62,-11.66 17.69,-11.74 17.75,-11.82 17.84,-11.88 17.93,-11.94 18.03,-11.96 18.14,-11.99 18.24,-11.98 18.35,-11.97 18.45,-11.93 18.54,-11.89 18.62,-11.82 18.70,-11.75 18.75,-11.66 18.81,-11.56 18.83,-11.46 18.85,-11.35 18.83,-11.25 18.82,-11.14 18.77,-11.05 18.72,-10.95 18.65,-10.88 18.57,-10.80 18.57,-10.80 18.57,-10.80 17.23,-9.38 15.89,-7.96 12.08,-5.28 8.27,-2.59 6.45,-1.83 4.62,-1.06 3.64,-0.54 2.65,-0.02 1.64,0.54 0.63,1.11 0.49,1.17 0.35,1.23 0.19,1.26 0.04,1.28 -0.10,1.27 -0.26,1.26 -0.41,1.21 -0.55,1.16 -0.68,1.07 -0.81,0.99 -0.92,0.88 -1.03,0.76 -1.11,0.63 -1.18,0.50 -1.23,0.35 -1.27,0.20 -1.27,0.04 -1.28,-0.10 -1.25,-0.26 -1.22,-0.41 -1.15,-0.55 -1.08,-0.69 -0.98,-0.81 -0.88,-0.93 -0.76,-1.02 -0.63,-1.11 -0.63,-1.11 L -0.63,-1.11 Z"></path></g><g transform="translate(12.752965163644376 20.360568653076257) rotate(0 14 12.75)" stroke="none"><path fill="#1e1e1e" d="M 1.13,-0.67 Q 1.13,-0.67 1.57,0.03 2.01,0.74 2.49,1.45 2.96,2.17 3.72,3.14 4.49,4.11 8.26,8.37 12.04,12.62 15.29,15.38 18.55,18.14 20.23,19.48 21.92,20.81 23.28,21.61 24.64,22.42 26.07,23.49 27.51,24.57 27.60,24.63 27.69,24.69 27.75,24.77 27.82,24.85 27.86,24.95 27.89,25.05 27.90,25.16 27.90,25.26 27.87,25.36 27.84,25.47 27.78,25.55 27.71,25.64 27.63,25.70 27.54,25.76 27.44,25.79 27.34,25.83 27.23,25.82 27.13,25.82 27.03,25.78 26.93,25.75 26.84,25.68 26.76,25.61 26.70,25.52 26.65,25.43 26.62,25.33 26.59,25.23 26.60,25.12 26.61,25.02 26.65,24.92 26.70,24.82 26.77,24.74 26.84,24.66 26.93,24.61 27.02,24.56 27.13,24.54 27.23,24.52 27.34,24.53 27.44,24.55 27.54,24.59 27.63,24.64 27.71,24.72 27.78,24.79 27.83,24.89 27.88,24.98 27.89,25.09 27.90,25.19 27.89,25.30 27.87,25.40 27.81,25.49 27.76,25.59 27.68,25.66 27.60,25.73 27.50,25.77 27.41,25.81 27.30,25.82 27.20,25.83 27.09,25.80 26.99,25.78 26.99,25.78 26.99,25.78 25.04,25.40 23.09,25.02 21.56,24.10 20.04,23.18 18.31,21.81 16.59,20.44 13.18,17.52 9.78,14.60 5.99,10.21 2.21,5.83 1.43,4.74 0.64,3.65 0.17,2.89 -0.29,2.13 -0.71,1.40 -1.13,0.67 -1.19,0.53 -1.26,0.38 -1.28,0.23 -1.31,0.07 -1.30,-0.08 -1.29,-0.24 -1.24,-0.39 -1.20,-0.54 -1.11,-0.68 -1.03,-0.81 -0.92,-0.92 -0.80,-1.04 -0.67,-1.12 -0.53,-1.20 -0.38,-1.25 -0.23,-1.29 -0.07,-1.30 0.08,-1.31 0.24,-1.28 0.39,-1.25 0.54,-1.19 0.68,-1.12 0.81,-1.02 0.93,-0.92 1.03,-0.80 1.13,-0.67 1.13,-0.67 L 1.13,-0.67 Z"></path></g><g transform="translate(26.252965163644376 54.86056865307626) rotate(0 9.5 4.25)" stroke="none"><path fill="#1e1e1e" d="M -0.75,-1.12 Q -0.75,-1.12 0.11,-1.70 0.97,-2.28 2.13,-2.86 3.29,-3.45 5.47,-4.02 7.64,-4.59 8.84,-4.66 10.04,-4.74 10.95,-4.17 11.86,-3.60 12.05,-2.62 12.25,-1.63 11.15,-0.04 10.05,1.54 8.56,2.99 7.08,4.44 5.42,5.79 3.76,7.14 2.53,8.25 1.29,9.36 0.56,10.16 -0.17,10.95 1.67,10.80 3.51,10.66 5.80,10.74 8.08,10.83 10.60,10.72 13.12,10.61 16.53,10.78 19.94,10.96 20.05,10.97 20.15,10.98 20.25,11.02 20.35,11.06 20.43,11.13 20.51,11.20 20.56,11.30 20.61,11.39 20.63,11.49 20.65,11.60 20.63,11.70 20.62,11.81 20.57,11.90 20.53,12.00 20.45,12.07 20.37,12.15 20.28,12.19 20.18,12.24 20.08,12.25 19.97,12.27 19.87,12.25 19.76,12.23 19.67,12.18 19.58,12.12 19.51,12.04 19.44,11.96 19.40,11.87 19.36,11.77 19.35,11.66 19.34,11.56 19.36,11.45 19.39,11.35 19.45,11.26 19.51,11.17 19.59,11.11 19.67,11.04 19.77,11.00 19.87,10.97 19.98,10.96 20.08,10.96 20.19,10.99 20.29,11.02 20.37,11.09 20.46,11.15 20.52,11.24 20.58,11.32 20.61,11.42 20.64,11.53 20.64,11.63 20.64,11.74 20.60,11.84 20.56,11.94 20.50,12.02 20.43,12.10 20.34,12.16 20.25,12.22 20.15,12.24 20.04,12.27 20.04,12.27 20.04,12.27 16.64,12.97 13.24,13.68 10.60,13.77 7.95,13.86 5.54,13.74 3.12,13.62 1.13,13.32 -0.85,13.02 -1.52,12.58 -2.19,12.14 -2.29,10.74 -2.39,9.35 -1.48,8.31 -0.57,7.28 0.71,6.13 2.00,4.98 3.57,3.71 5.13,2.44 6.50,1.12 7.87,-0.19 8.91,-1.11 9.95,-2.03 9.13,-1.96 8.31,-1.88 6.40,-1.43 4.49,-0.97 3.48,-0.49 2.47,-0.01 1.61,0.55 0.75,1.12 0.60,1.19 0.45,1.27 0.30,1.30 0.14,1.34 -0.02,1.34 -0.18,1.33 -0.34,1.29 -0.49,1.25 -0.64,1.17 -0.78,1.10 -0.90,0.99 -1.02,0.88 -1.11,0.74 -1.20,0.60 -1.26,0.45 -1.31,0.30 -1.33,0.14 -1.35,-0.02 -1.32,-0.18 -1.30,-0.34 -1.24,-0.49 -1.18,-0.64 -1.09,-0.78 -0.99,-0.91 -0.87,-1.01 -0.74,-1.12 -0.74,-1.12 L -0.75,-1.12 Z"></path></g><g stroke-linecap="round"><g transform="translate(651.8008843850171 645.0057042764489) rotate(0 0 -300.9460161504687)"><path d="M-0.51 -0.98 C-0.76 -101.04, -1 -501.4, -1.11 -601.52 M1.42 1.13 C1.5 -99.2, 1.06 -503.22, 1.02 -603.45" stroke="#1e1e1e" stroke-width="1" fill="none"></path></g><g transform="translate(651.8008843850171 645.0057042764489) rotate(0 0 -300.9460161504687)"><path d="M9.59 -579.96 C5.35 -589.64, 4.75 -597.48, 1.02 -603.45 M9.59 -579.96 C6.03 -586.98, 4.87 -595.06, 1.02 -603.45" stroke="#1e1e1e" stroke-width="1" fill="none"></path></g><g transform="translate(651.8008843850171 645.0057042764489) rotate(0 0 -300.9460161504687)"><path d="M-7.51 -579.95 C-6.08 -589.56, -1 -597.4, 1.02 -603.45 M-7.51 -579.95 C-5.62 -586.85, -1.34 -594.94, 1.02 -603.45" stroke="#1e1e1e" stroke-width="1" fill="none"></path></g></g><mask></mask><g stroke-linecap="round"><g transform="translate(604.3008843850171 344.34344913248765) rotate(0 239.75 0)"><path d="M-1.11 0.37 C78.7 0.57, 398.35 0.43, 478.36 0.22 M0.51 -0.48 C80.72 -0.58, 400.91 -1.87, 480.47 -1.78" stroke="#1e1e1e" stroke-width="1" fill="none"></path></g><g transform="translate(604.3008843850171 344.34344913248765) rotate(0 239.75 0)"><path d="M456.99 6.81 C463.73 2.91, 469.52 1.63, 480.47 -1.78 M456.99 6.81 C463.08 4.64, 468.12 3.1, 480.47 -1.78" stroke="#1e1e1e" stroke-width="1" fill="none"></path></g><g transform="translate(604.3008843850171 344.34344913248765) rotate(0 239.75 0)"><path d="M456.96 -10.29 C463.57 -9.79, 469.37 -6.67, 480.47 -1.78 M456.96 -10.29 C462.89 -8.54, 467.94 -6.16, 480.47 -1.78" stroke="#1e1e1e" stroke-width="1" fill="none"></path></g></g><mask></mask><g transform="translate(1041.6795950099208 368.3914049192654) rotate(0 6.515824625949563 13.241837143058945)" stroke="none"><path fill="#1e1e1e" d="M 1.38,0.34 Q 1.38,0.34 1.11,1.81 0.84,3.29 0.32,4.86 -0.20,6.44 0.28,8.09 0.77,9.75 1.56,10.27 2.36,10.79 3.29,10.89 4.21,10.99 6.09,10.39 7.96,9.79 9.60,8.46 11.24,7.12 12.65,5.41 14.06,3.70 15.02,2.27 15.98,0.84 16.70,-0.75 17.42,-2.36 17.57,-3.35 17.73,-4.35 17.16,-3.98 16.59,-3.61 15.90,-2.58 15.21,-1.56 14.46,0.02 13.70,1.60 13.04,3.77 12.37,5.95 11.84,8.19 11.31,10.43 11.22,12.35 11.13,14.27 11.08,16.33 11.04,18.39 11.01,20.47 10.99,22.56 10.73,24.42 10.47,26.27 9.92,27.60 9.38,28.94 7.90,30.40 6.42,31.86 4.89,32.82 3.37,33.79 1.89,34.35 0.42,34.92 -0.74,35.05 -1.90,35.18 -3.49,34.67 -5.09,34.17 -6.28,33.13 -7.48,32.09 -7.95,30.37 -8.42,28.66 -8.02,26.89 -7.62,25.13 -6.01,22.82 -4.39,20.51 -2.28,18.76 -0.16,17.02 1.91,15.99 4.00,14.97 6.54,14.28 9.07,13.60 11.70,13.42 14.33,13.25 16.87,13.50 19.41,13.75 19.52,13.76 19.62,13.76 19.72,13.80 19.82,13.84 19.90,13.91 19.98,13.98 20.04,14.07 20.09,14.16 20.11,14.27 20.14,14.37 20.12,14.48 20.11,14.58 20.07,14.68 20.02,14.77 19.95,14.85 19.87,14.93 19.78,14.98 19.69,15.03 19.58,15.04 19.48,15.06 19.37,15.04 19.27,15.02 19.17,14.97 19.08,14.92 19.01,14.85 18.93,14.77 18.89,14.67 18.85,14.58 18.84,14.47 18.82,14.36 18.85,14.26 18.87,14.16 18.93,14.07 18.98,13.98 19.06,13.91 19.14,13.84 19.24,13.80 19.34,13.76 19.45,13.76 19.55,13.75 19.66,13.78 19.76,13.81 19.85,13.87 19.93,13.93 20.00,14.01 20.06,14.10 20.09,14.20 20.13,14.30 20.13,14.41 20.13,14.51 20.09,14.61 20.06,14.71 19.99,14.80 19.93,14.88 19.84,14.94 19.75,15.00 19.65,15.03 19.55,15.06 19.55,15.06 19.55,15.06 17.04,15.83 14.53,16.60 12.22,16.73 9.92,16.85 7.68,17.43 5.44,18.01 3.69,18.82 1.93,19.64 0.12,21.08 -1.69,22.52 -3.04,24.30 -4.40,26.08 -4.75,27.12 -5.11,28.16 -5.06,29.05 -5.01,29.94 -4.43,30.49 -3.86,31.03 -2.97,31.42 -2.08,31.81 -1.41,31.77 -0.73,31.72 0.42,31.31 1.58,30.89 2.84,30.12 4.10,29.34 5.20,28.42 6.29,27.49 6.69,26.62 7.08,25.75 7.32,24.14 7.55,22.52 7.57,20.42 7.59,18.31 7.64,16.20 7.68,14.08 7.81,11.87 7.94,9.65 8.50,7.28 9.06,4.92 9.82,2.51 10.58,0.10 11.47,-1.71 12.36,-3.52 13.26,-4.80 14.16,-6.08 15.13,-6.96 16.10,-7.84 17.08,-8.07 18.06,-8.29 19.39,-7.32 20.72,-6.34 20.93,-5.08 21.14,-3.81 20.86,-2.37 20.57,-0.94 19.70,0.91 18.84,2.76 17.76,4.34 16.69,5.91 15.01,7.87 13.33,9.82 11.14,11.43 8.94,13.03 6.33,13.66 3.71,14.29 2.04,13.86 0.38,13.44 -0.94,12.15 -2.26,10.87 -2.79,8.28 -3.31,5.69 -2.80,4.09 -2.29,2.50 -1.84,1.08 -1.38,-0.34 -1.32,-0.50 -1.26,-0.66 -1.16,-0.81 -1.06,-0.95 -0.93,-1.06 -0.80,-1.17 -0.65,-1.25 -0.50,-1.33 -0.33,-1.37 -0.16,-1.42 0.00,-1.42 0.17,-1.41 0.34,-1.37 0.51,-1.33 0.66,-1.25 0.81,-1.17 0.94,-1.05 1.07,-0.94 1.17,-0.80 1.26,-0.66 1.32,-0.49 1.39,-0.33 1.41,-0.16 1.43,0.00 1.40,0.17 1.38,0.34 1.38,0.34 L 1.38,0.34 Z"></path></g><g transform="translate(1068.5836450783581 391.932448729148) rotate(0 7.146388299428622 5.254697278991614)" stroke="none"><path fill="#1e1e1e" d="M -0.26,-1.33 Q -0.26,-1.33 0.32,-1.48 0.92,-1.62 1.53,-1.91 2.13,-2.19 4.79,-4.22 7.45,-6.25 9.13,-7.49 10.82,-8.73 11.36,-9.21 11.91,-9.69 12.04,-9.80 12.17,-9.90 12.33,-10.01 12.50,-10.12 12.68,-10.19 12.87,-10.26 13.06,-10.28 13.26,-10.31 13.45,-10.28 13.65,-10.26 13.83,-10.19 14.02,-10.12 14.18,-10.00 14.34,-9.89 14.47,-9.74 14.60,-9.59 14.69,-9.42 14.78,-9.24 14.83,-9.05 14.87,-8.86 14.87,-8.66 14.87,-8.47 14.82,-8.27 14.78,-8.08 14.68,-7.91 14.59,-7.73 14.46,-7.59 14.33,-7.44 14.02,-7.00 13.71,-6.55 12.96,-5.40 12.21,-4.24 11.47,-2.41 10.73,-0.58 10.16,1.05 9.59,2.69 9.01,5.47 8.43,8.26 8.19,10.97 7.95,13.67 7.45,16.15 6.95,18.62 6.93,18.73 6.92,18.83 6.87,18.93 6.82,19.02 6.74,19.09 6.67,19.17 6.57,19.21 6.47,19.26 6.37,19.27 6.26,19.28 6.16,19.26 6.05,19.24 5.96,19.18 5.87,19.13 5.80,19.05 5.73,18.97 5.69,18.87 5.65,18.77 5.65,18.66 5.64,18.56 5.67,18.46 5.70,18.35 5.76,18.26 5.82,18.18 5.90,18.11 5.98,18.05 6.08,18.01 6.18,17.98 6.29,17.98 6.40,17.98 6.50,18.01 6.60,18.04 6.68,18.11 6.77,18.17 6.83,18.26 6.89,18.35 6.92,18.45 6.95,18.55 6.94,18.66 6.94,18.76 6.90,18.86 6.86,18.96 6.79,19.04 6.72,19.12 6.63,19.18 6.54,19.23 6.44,19.26 6.33,19.28 6.23,19.27 6.12,19.26 6.03,19.22 5.93,19.17 5.85,19.10 5.77,19.03 5.72,18.93 5.67,18.84 5.66,18.73 5.64,18.63 5.64,18.63 5.64,18.63 5.11,15.99 4.58,13.36 4.86,10.46 5.14,7.57 5.79,4.58 6.44,1.59 7.05,-0.13 7.66,-1.85 8.55,-3.95 9.44,-6.04 10.26,-7.29 11.09,-8.55 11.63,-9.22 12.17,-9.90 12.33,-10.01 12.50,-10.12 12.68,-10.19 12.87,-10.26 13.06,-10.28 13.26,-10.31 13.45,-10.28 13.65,-10.26 13.83,-10.19 14.02,-10.12 14.18,-10.00 14.34,-9.89 14.47,-9.74 14.60,-9.59 14.69,-9.42 14.78,-9.24 14.83,-9.05 14.87,-8.86 14.87,-8.66 14.87,-8.47 14.82,-8.27 14.78,-8.08 14.68,-7.91 14.59,-7.74 14.46,-7.59 14.33,-7.44 14.19,-7.34 14.06,-7.24 13.40,-6.67 12.74,-6.10 11.04,-4.87 9.33,-3.63 6.29,-1.54 3.24,0.54 2.36,0.84 1.48,1.14 0.87,1.24 0.26,1.33 0.10,1.35 -0.06,1.36 -0.22,1.33 -0.38,1.31 -0.53,1.24 -0.68,1.17 -0.81,1.08 -0.94,0.98 -1.05,0.85 -1.15,0.72 -1.22,0.57 -1.29,0.42 -1.32,0.26 -1.36,0.10 -1.35,-0.06 -1.34,-0.22 -1.30,-0.38 -1.25,-0.54 -1.17,-0.68 -1.08,-0.82 -0.97,-0.94 -0.85,-1.06 -0.71,-1.14 -0.58,-1.23 -0.42,-1.28 -0.26,-1.33 -0.26,-1.33 L -0.26,-1.33 Z"></path></g><g transform="translate(604.9091571801359 15.885260952470617) rotate(0 5.044509387831965 16.39465551045393)" stroke="none"><path fill="#1e1e1e" d="M 1.12,0.33 Q 1.12,0.33 0.77,1.54 0.41,2.75 -0.44,5.79 -1.29,8.83 -1.16,10.40 -1.02,11.97 -0.76,12.54 -0.49,13.12 0.58,12.74 1.67,12.36 2.67,11.45 3.66,10.55 4.82,9.22 5.97,7.88 6.90,6.30 7.83,4.71 8.58,3.09 9.33,1.47 9.74,0.01 10.15,-1.44 10.19,-2.44 10.24,-3.43 10.20,-2.23 10.16,-1.04 9.96,0.60 9.75,2.24 9.66,4.25 9.57,6.26 9.65,8.77 9.73,11.28 9.88,13.56 10.04,15.84 9.74,18.99 9.44,22.14 8.94,24.82 8.45,27.50 7.85,29.31 7.25,31.13 6.35,32.72 5.44,34.31 4.41,35.62 3.37,36.94 1.90,37.87 0.42,38.81 -1.25,38.98 -2.94,39.15 -4.38,38.79 -5.82,38.43 -6.97,37.52 -8.11,36.62 -8.79,35.16 -9.46,33.71 -9.35,32.13 -9.23,30.55 -8.21,28.89 -7.19,27.24 -5.45,25.77 -3.72,24.31 -1.92,23.00 -0.12,21.69 1.83,20.30 3.80,18.90 5.86,17.56 7.93,16.22 9.71,14.85 11.49,13.47 12.80,12.20 14.12,10.92 16.10,9.44 18.08,7.96 18.16,7.89 18.24,7.82 18.33,7.78 18.43,7.74 18.54,7.73 18.64,7.73 18.75,7.75 18.85,7.78 18.94,7.84 19.03,7.90 19.09,7.98 19.16,8.07 19.19,8.17 19.23,8.27 19.23,8.37 19.23,8.48 19.20,8.58 19.17,8.68 19.10,8.77 19.04,8.85 18.95,8.91 18.87,8.97 18.76,9.00 18.66,9.03 18.56,9.03 18.45,9.02 18.35,8.99 18.25,8.95 18.17,8.88 18.09,8.81 18.03,8.72 17.98,8.63 17.95,8.53 17.93,8.42 17.94,8.32 17.95,8.21 17.99,8.12 18.03,8.02 18.11,7.94 18.18,7.86 18.27,7.81 18.36,7.76 18.47,7.74 18.57,7.72 18.68,7.74 18.78,7.76 18.88,7.80 18.97,7.85 19.05,7.93 19.12,8.01 19.17,8.10 19.21,8.20 19.23,8.30 19.24,8.41 19.22,8.51 19.20,8.62 19.14,8.71 19.09,8.80 19.09,8.80 19.09,8.80 17.67,10.98 16.25,13.15 14.80,14.52 13.35,15.89 11.46,17.33 9.57,18.76 7.55,20.06 5.54,21.35 3.58,22.73 1.63,24.12 -0.10,25.37 -1.83,26.62 -3.29,27.77 -4.75,28.91 -5.55,29.98 -6.35,31.06 -6.54,31.91 -6.73,32.77 -6.43,33.64 -6.13,34.51 -5.53,35.09 -4.94,35.68 -4.00,35.97 -3.06,36.26 -1.99,36.27 -0.91,36.28 0.11,35.69 1.15,35.10 2.04,33.97 2.94,32.85 3.73,31.53 4.51,30.20 5.06,28.58 5.60,26.96 6.08,24.41 6.56,21.85 6.86,18.94 7.15,16.02 7.00,13.70 6.84,11.37 6.76,8.75 6.68,6.12 6.78,4.00 6.88,1.87 7.13,0.05 7.37,-1.76 7.64,-2.77 7.91,-3.79 8.46,-4.89 9.02,-5.98 9.82,-6.25 10.61,-6.52 11.70,-5.73 12.80,-4.95 12.94,-4.10 13.08,-3.26 12.97,-1.96 12.87,-0.66 12.36,0.99 11.86,2.65 11.03,4.39 10.20,6.13 9.11,7.91 8.02,9.68 6.70,11.14 5.38,12.59 3.97,13.70 2.56,14.81 1.08,15.17 -0.39,15.54 -1.39,15.04 -2.39,14.55 -2.94,13.36 -3.50,12.18 -3.58,10.19 -3.66,8.20 -2.76,5.14 -1.86,2.07 -1.49,0.86 -1.12,-0.33 -1.07,-0.46 -1.01,-0.59 -0.92,-0.71 -0.84,-0.82 -0.73,-0.91 -0.62,-1.00 -0.49,-1.06 -0.36,-1.12 -0.22,-1.14 -0.08,-1.17 0.05,-1.16 0.20,-1.16 0.33,-1.12 0.47,-1.08 0.59,-1.00 0.71,-0.93 0.81,-0.83 0.92,-0.73 0.99,-0.61 1.07,-0.49 1.11,-0.36 1.15,-0.22 1.16,-0.08 1.17,0.05 1.15,0.19 1.12,0.33 1.12,0.33 L 1.12,0.33 Z"></path></g><g transform="translate(623.8260673845059 43.20968680322716) rotate(0 7.566764081747962 5.464885170151277)" stroke="none"><path fill="#1e1e1e" d="M -0.55,-0.99 Q -0.55,-0.99 0.51,-1.63 1.58,-2.26 2.77,-2.92 3.96,-3.57 6.26,-4.59 8.56,-5.61 8.71,-5.66 8.86,-5.72 9.02,-5.74 9.18,-5.76 9.34,-5.74 9.50,-5.72 9.65,-5.66 9.81,-5.60 9.94,-5.51 10.07,-5.42 10.18,-5.30 10.28,-5.18 10.36,-5.03 10.43,-4.89 10.47,-4.73 10.51,-4.58 10.51,-4.42 10.51,-4.25 10.47,-4.10 10.43,-3.94 10.36,-3.80 10.28,-3.66 10.17,-3.54 10.07,-3.41 9.93,-3.32 9.80,-3.23 10.30,-2.33 10.80,-1.42 9.84,0.84 8.89,3.12 7.97,4.53 7.06,5.95 5.80,7.44 4.54,8.92 3.43,10.25 2.33,11.58 1.62,12.39 0.90,13.20 0.75,13.74 0.60,14.28 1.55,14.60 2.50,14.93 5.69,14.56 8.87,14.19 11.89,13.88 14.91,13.57 15.01,13.56 15.12,13.55 15.22,13.58 15.33,13.60 15.42,13.66 15.51,13.72 15.57,13.80 15.64,13.88 15.68,13.98 15.72,14.08 15.72,14.19 15.72,14.29 15.69,14.39 15.66,14.50 15.60,14.58 15.54,14.67 15.46,14.73 15.37,14.79 15.27,14.83 15.17,14.86 15.06,14.86 14.96,14.86 14.86,14.82 14.76,14.78 14.67,14.72 14.59,14.65 14.53,14.56 14.47,14.48 14.45,14.37 14.42,14.27 14.43,14.16 14.43,14.06 14.48,13.96 14.52,13.86 14.59,13.78 14.66,13.70 14.75,13.65 14.84,13.60 14.94,13.57 15.05,13.55 15.15,13.57 15.26,13.58 15.35,13.63 15.45,13.67 15.53,13.75 15.60,13.82 15.65,13.92 15.70,14.01 15.71,14.12 15.73,14.22 15.71,14.33 15.69,14.43 15.64,14.52 15.59,14.62 15.51,14.69 15.43,14.76 15.33,14.80 15.24,14.85 15.24,14.84 15.24,14.84 12.28,16.09 9.33,17.33 6.14,17.74 2.94,18.15 2.11,17.96 1.28,17.78 0.39,17.36 -0.49,16.93 -1.23,16.15 -1.96,15.37 -2.09,14.45 -2.22,13.53 -1.76,12.43 -1.30,11.32 -0.58,10.52 0.13,9.72 1.27,8.40 2.41,7.08 3.58,5.75 4.75,4.43 5.57,3.20 6.40,1.97 7.26,0.30 8.12,-1.36 8.34,-3.48 8.56,-5.61 8.71,-5.66 8.86,-5.72 9.02,-5.74 9.18,-5.76 9.34,-5.74 9.50,-5.72 9.65,-5.66 9.81,-5.60 9.94,-5.51 10.07,-5.42 10.18,-5.30 10.28,-5.18 10.36,-5.03 10.43,-4.89 10.47,-4.73 10.51,-4.58 10.51,-4.42 10.51,-4.25 10.47,-4.10 10.43,-3.94 10.36,-3.80 10.28,-3.66 10.17,-3.54 10.07,-3.42 9.93,-3.32 9.80,-3.23 7.47,-2.27 5.13,-1.31 3.95,-0.73 2.76,-0.15 1.65,0.42 0.55,0.99 0.42,1.04 0.29,1.09 0.16,1.11 0.02,1.13 -0.10,1.12 -0.24,1.11 -0.37,1.06 -0.50,1.02 -0.61,0.94 -0.73,0.86 -0.82,0.76 -0.92,0.66 -0.98,0.54 -1.05,0.42 -1.09,0.29 -1.12,0.16 -1.12,0.02 -1.13,-0.11 -1.10,-0.24 -1.07,-0.37 -1.01,-0.50 -0.95,-0.62 -0.86,-0.72 -0.77,-0.83 -0.66,-0.91 -0.55,-0.99 -0.55,-0.99 L -0.55,-0.99 Z"></path></g><g stroke-linecap="round" transform="translate(659.0326317875983 185.5084997541445) rotate(0 159.16578584629843 159.16578584629843)"><path d="M-0.16 160.19 C-0.16 160.19, -0.16 160.19, -0.16 160.19 M-0.16 160.19 C-0.16 160.19, -0.16 160.19, -0.16 160.19 M1.35 161.5 C5.81 153.02, 14.96 145.56, 20.37 139.61 M1.35 161.5 C7.95 153.5, 15.86 146.35, 20.37 139.61 M2.86 162.81 C12.32 154.32, 21 145.49, 40.25 119.79 M2.86 162.81 C15.88 147.72, 29.96 130.8, 40.25 119.79 M4.37 164.12 C22.74 141.56, 44.68 120.37, 60.79 99.22 M4.37 164.12 C20.84 146.18, 35.94 128.07, 60.79 99.22 M5.88 165.43 C35.1 133.18, 59.8 102.99, 81.32 78.64 M5.88 165.43 C24.45 145.95, 42.34 123.99, 81.32 78.64 M7.39 166.75 C40.97 127.14, 75.05 89.22, 101.2 58.82 M7.39 166.75 C27.24 143.89, 47.58 119.96, 101.2 58.82 M8.24 168.81 C48.29 122.23, 87.57 78.27, 121.74 38.25 M8.24 168.81 C33.89 140.15, 58.97 110.33, 121.74 38.25 M9.75 170.13 C37.22 138.68, 66.27 105.78, 141.62 18.43 M9.75 170.13 C44.41 129.93, 80.03 89.95, 141.62 18.43 M11.26 171.44 C63.37 112.11, 114.54 52.12, 160.18 0.12 M11.26 171.44 C51.52 125.22, 90.87 79.41, 160.18 0.12 M12.77 172.75 C63.97 111.65, 117.09 50.21, 161.69 1.43 M12.77 172.75 C52.14 127.01, 92.66 81.52, 161.69 1.43 M14.28 174.06 C70.64 109.1, 127.52 40.96, 163.2 2.74 M14.28 174.06 C62.15 121.62, 107.73 68.45, 163.2 2.74 M15.79 175.37 C71.49 110.86, 128.06 42.28, 164.71 4.05 M15.79 175.37 C56.7 130.31, 97.21 84.89, 164.71 4.05 M17.3 176.69 C54.77 134.15, 93.45 91.09, 165.56 6.12 M17.3 176.69 C67.17 119.12, 115.93 64.17, 165.56 6.12 M18.8 178 C53.17 136.3, 90.38 93.52, 167.07 7.43 M18.8 178 C49.16 142.31, 82.19 104.58, 167.07 7.43 M19.66 180.07 C76.51 113.11, 134.41 44.74, 168.58 8.75 M19.66 180.07 C61.88 132.84, 102.19 85.37, 168.58 8.75 M21.17 181.38 C59.94 133.03, 103.36 87.56, 170.09 10.06 M21.17 181.38 C62.17 132.9, 106.07 83.47, 170.09 10.06 M22.68 182.69 C54.73 143.56, 87.71 106.1, 171.6 11.37 M22.68 182.69 C77.58 120.32, 132.82 55.96, 171.6 11.37 M24.19 184 C73.18 128.65, 122.08 72.86, 173.11 12.68 M24.19 184 C80.34 120.7, 136.25 57.53, 173.11 12.68 M25.7 185.31 C54.01 152.07, 83.77 116.6, 173.97 14.75 M25.7 185.31 C84.01 117.84, 141.85 52.12, 173.97 14.75 M27.21 186.63 C67.08 145.66, 102.56 101.52, 175.47 16.06 M27.21 186.63 C81.52 126.06, 134.52 64.71, 175.47 16.06 M28.71 187.94 C84.27 123.31, 139.06 61.95, 176.98 17.37 M28.71 187.94 C84.54 123.08, 138.92 60.02, 176.98 17.37 M30.22 189.25 C65.37 149.5, 102.98 108.9, 178.49 18.69 M30.22 189.25 C68.64 143.38, 109.24 98, 178.49 18.69 M31.08 191.32 C66.26 152.43, 99.95 114.24, 180 20 M31.08 191.32 C80.19 135.22, 129.3 77.08, 180 20 M32.59 192.63 C71.94 144.5, 115.2 99.48, 181.51 21.31 M32.59 192.63 C81.88 138.47, 130.72 82.1, 181.51 21.31 M34.1 193.94 C65.05 155.97, 98.41 121.37, 183.02 22.62 M34.1 193.94 C85.41 135.16, 137.8 75.01, 183.02 22.62 M35.61 195.25 C71.39 152.59, 107.49 112.01, 183.87 24.69 M35.61 195.25 C76.53 148.41, 117.34 103, 183.87 24.69 M37.12 196.57 C72.33 155.05, 109.2 111.12, 185.38 26 M37.12 196.57 C73.53 155.96, 110.5 113.59, 185.38 26 M38.62 197.88 C77.76 151.61, 115.89 108.19, 186.89 27.31 M38.62 197.88 C76.57 152.97, 115.8 108.26, 186.89 27.31 M40.13 199.19 C74.11 161.95, 105.22 126.79, 188.4 28.63 M40.13 199.19 C88.49 143.78, 135.56 88.97, 188.4 28.63 M40.99 201.26 C93.61 143.59, 143.6 83.64, 189.91 29.94 M40.99 201.26 C97.67 138.04, 151.59 75.1, 189.91 29.94 M42.5 202.57 C77.96 162.99, 111.69 125.23, 191.42 31.25 M42.5 202.57 C80.03 160.52, 117.67 116.54, 191.42 31.25 M44.01 203.88 C91.58 148.53, 141.28 92.56, 192.93 32.56 M44.01 203.88 C85.44 156.03, 126.18 108.15, 192.93 32.56 M45.52 205.19 C78.15 169.16, 107.18 133.58, 193.78 34.63 M45.52 205.19 C97.34 143.17, 149.17 83.91, 193.78 34.63 M47.02 206.5 C97.48 148.6, 151.73 88.24, 195.29 35.94 M47.02 206.5 C102.8 142.51, 158.56 79, 195.29 35.94 M48.53 207.82 C93.83 157.95, 137.31 104.2, 196.8 37.25 M48.53 207.82 C96.84 151.06, 145.28 95.88, 196.8 37.25 M50.04 209.13 C99.96 151.29, 152.04 92.24, 198.31 38.56 M50.04 209.13 C91.91 160.88, 134.35 112, 198.31 38.56 M51.55 210.44 C84.62 168.96, 118.15 131.42, 199.82 39.88 M51.55 210.44 C100.25 155.35, 148.29 98.87, 199.82 39.88 M52.41 212.51 C111.13 144.51, 171.69 75.19, 201.33 41.19 M52.41 212.51 C101.55 155.63, 150.18 99.23, 201.33 41.19 M53.92 213.82 C109.48 148.03, 162.46 86.63, 202.19 43.26 M53.92 213.82 C93.4 167.94, 133.61 123.06, 202.19 43.26 M55.43 215.13 C109.41 153.29, 166.49 89.21, 203.69 44.57 M55.43 215.13 C91.17 171.99, 127.86 132.09, 203.69 44.57 M56.93 216.44 C94.84 170.79, 135.43 125.27, 205.2 45.88 M56.93 216.44 C107.82 158.08, 158.51 100.24, 205.2 45.88 M58.44 217.76 C95.45 173.84, 131.62 130.86, 206.71 47.19 M58.44 217.76 C101.33 171.01, 144.89 121.37, 206.71 47.19 M59.95 219.07 C107.87 162.82, 159.53 106.72, 208.22 48.5 M59.95 219.07 C102.36 169.84, 146.8 119.54, 208.22 48.5 M61.46 220.38 C92.47 181.58, 127.91 141.98, 209.73 49.82 M61.46 220.38 C110.92 166.76, 157.68 110.97, 209.73 49.82 M62.97 221.69 C105.69 167.32, 151.58 117.87, 211.24 51.13 M62.97 221.69 C113.34 165.21, 163.86 108.39, 211.24 51.13 M63.83 223.76 C93.43 190.4, 125.37 152.75, 212.1 53.2 M63.83 223.76 C114.53 167.27, 164.51 110.02, 212.1 53.2 M65.34 225.07 C100.44 188.54, 131.51 149.28, 213.6 54.51 M65.34 225.07 C102.08 181.25, 139.29 139.82, 213.6 54.51 M66.84 226.38 C113.84 172.03, 160.65 119.49, 215.11 55.82 M66.84 226.38 C114.62 172.25, 161.99 116.56, 215.11 55.82 M68.35 227.7 C111.22 179.71, 149.21 134.45, 216.62 57.13 M68.35 227.7 C107.7 183.29, 146.27 137.25, 216.62 57.13 M69.86 229.01 C126.1 164.89, 183.58 101.67, 218.13 58.44 M69.86 229.01 C129.02 160.1, 188.07 92.52, 218.13 58.44 M71.37 230.32 C116 180.23, 162.35 127.79, 219.64 59.76 M71.37 230.32 C131.4 162.97, 190.67 95.35, 219.64 59.76 M72.88 231.63 C105.42 192.23, 140.76 156.29, 221.15 61.07 M72.88 231.63 C114.05 182.52, 153.78 135.14, 221.15 61.07 M74.39 232.94 C120.69 179.37, 165.6 127.73, 222.01 63.13 M74.39 232.94 C120.86 180.98, 166.71 128.11, 222.01 63.13 M75.25 235.01 C106.31 200.2, 139.75 163.24, 223.51 64.45 M75.25 235.01 C106.16 198.51, 137.25 164.27, 223.51 64.45 M76.75 236.32 C131.96 173.39, 183.95 108.68, 225.02 65.76 M76.75 236.32 C111.24 196.47, 146.06 157.26, 225.02 65.76 M78.26 237.64 C121.72 188.12, 164.68 136.52, 226.53 67.07 M78.26 237.64 C111.75 198.78, 145.67 159.33, 226.53 67.07 M79.77 238.95 C124.38 185.68, 169.36 135.8, 228.04 68.38 M79.77 238.95 C120.66 192.94, 162.43 146.2, 228.04 68.38 M81.28 240.26 C133.61 181.2, 188.27 118.35, 229.55 69.7 M81.28 240.26 C128.29 186.85, 175.3 131.9, 229.55 69.7 M82.79 241.57 C113.3 207.33, 142.76 173.51, 230.41 71.76 M82.79 241.57 C123.44 193.93, 166.66 145.98, 230.41 71.76 M84.3 242.88 C120.23 199.02, 159.59 154.78, 231.91 73.07 M84.3 242.88 C121.21 198.88, 159.61 155.99, 231.91 73.07 M85.15 244.95 C133 190.61, 181.09 134.11, 233.42 74.39 M85.15 244.95 C144.72 178.58, 202.24 112.09, 233.42 74.39 M86.66 246.26 C119.92 210.57, 150.85 171.2, 234.93 75.7 M86.66 246.26 C134.84 191.9, 183.14 135.88, 234.93 75.7 M88.17 247.58 C145.76 184.78, 200.86 120.67, 236.44 77.01 M88.17 247.58 C130.3 199.29, 173.14 151.85, 236.44 77.01 M89.68 248.89 C121.47 208.5, 158.24 171.46, 237.95 78.32 M89.68 248.89 C126.96 204.57, 165.02 161.55, 237.95 78.32 M91.19 250.2 C124.74 212.45, 156.38 175.51, 239.46 79.63 M91.19 250.2 C138.29 196.98, 185 143.17, 239.46 79.63 M92.7 251.51 C123.77 219.2, 153.96 184.62, 240.32 81.7 M92.7 251.51 C129.15 208.39, 166.74 165.46, 240.32 81.7 M94.21 252.82 C124.91 218.63, 154.46 182.49, 241.82 83.01 M94.21 252.82 C126.06 218.05, 155.36 182.97, 241.82 83.01 M95.72 254.14 C134.42 205.96, 176.94 161.85, 243.33 84.33 M95.72 254.14 C147.92 193.31, 199.57 134.62, 243.33 84.33 M96.57 256.2 C127.88 219.81, 159.67 182.36, 244.84 85.64 M96.57 256.2 C147.05 199.55, 195.59 142.79, 244.84 85.64 M98.08 257.51 C136.25 212.74, 176.98 168.11, 246.35 86.95 M98.08 257.51 C142.48 205.86, 188.86 152.47, 246.35 86.95 M99.59 258.83 C131.23 224.79, 163.38 189.26, 247.86 88.26 M99.59 258.83 C136.64 217.14, 172.91 175.89, 247.86 88.26 M101.1 260.14 C133.42 222.43, 168.66 179.82, 248.72 90.33 M101.1 260.14 C146.34 209.44, 190.04 159.62, 248.72 90.33 M102.61 261.45 C148.6 209.95, 192.92 157.94, 250.23 91.64 M102.61 261.45 C152.66 202.26, 204.19 143.1, 250.23 91.64 M104.12 262.76 C155.15 201.7, 208.15 144.88, 251.73 92.95 M104.12 262.76 C162.01 197.47, 218.2 130.86, 251.73 92.95 M105.63 264.08 C145.86 218.01, 184.06 171.09, 253.24 94.27 M105.63 264.08 C136.21 226.46, 168.35 190.25, 253.24 94.27 M107.14 265.39 C162.43 201.5, 214.16 142.57, 254.75 95.58 M107.14 265.39 C148.61 218.6, 187.72 172.58, 254.75 95.58 M107.99 267.45 C146.75 223.9, 182.63 179.97, 256.26 96.89 M107.99 267.45 C152.79 216.88, 196.49 166.71, 256.26 96.89 M109.5 268.77 C161.24 206.43, 216.41 143.72, 257.77 98.2 M109.5 268.77 C162.69 207.49, 216.63 146.36, 257.77 98.2 M111.01 270.08 C146.13 228.34, 183.64 183.3, 258.63 100.27 M111.01 270.08 C166.19 206.14, 220.49 144.16, 258.63 100.27 M112.52 271.39 C148.74 228.88, 185.48 187.88, 260.14 101.58 M112.52 271.39 C150.77 227.33, 191.29 181.65, 260.14 101.58 M114.03 272.7 C146.89 235.51, 181.1 199.92, 261.64 102.89 M114.03 272.7 C159.96 217.3, 208.21 163.52, 261.64 102.89 M115.54 274.01 C148.26 236.57, 178.33 202.59, 263.15 104.21 M115.54 274.01 C166.41 216.67, 215.79 159.87, 263.15 104.21 M117.05 275.33 C171.35 209.34, 228.87 145.11, 264.66 105.52 M117.05 275.33 C173.07 212.48, 227.72 148.55, 264.66 105.52 M118.56 276.64 C159.26 230.8, 198.32 186.5, 266.17 106.83 M118.56 276.64 C166.28 222.91, 212 169.79, 266.17 106.83 M119.41 278.71 C167.31 223.33, 214.9 169.84, 267.68 108.14 M119.41 278.71 C150.09 243.89, 182.93 206.71, 267.68 108.14 M120.92 280.02 C174.34 222.31, 224.76 163.36, 268.54 110.21 M120.92 280.02 C158.6 235.68, 198.68 191.78, 268.54 110.21 M122.43 281.33 C162.18 233.77, 202.62 187.15, 270.04 111.52 M122.43 281.33 C168.4 227.21, 214.63 174.27, 270.04 111.52 M123.94 282.64 C178.93 218.84, 234 152.96, 271.55 112.83 M123.94 282.64 C163.51 238.84, 202.15 194.18, 271.55 112.83 M125.45 283.95 C162.67 241.75, 199.88 198.35, 273.06 114.14 M125.45 283.95 C180.64 220, 238.39 154.68, 273.06 114.14 M126.96 285.27 C158.3 249.64, 188.17 212.55, 274.57 115.46 M126.96 285.27 C172.4 233.25, 216.28 183.39, 274.57 115.46 M128.47 286.58 C176.88 233.67, 219.77 181.49, 276.08 116.77 M128.47 286.58 C174.82 234.87, 222.35 180.49, 276.08 116.77 M129.32 288.65 C174.21 237.01, 222.14 182.71, 276.94 118.84 M129.32 288.65 C184.92 223.05, 242.3 157.68, 276.94 118.84 M130.83 289.96 C172.93 242.07, 213.2 195.16, 278.45 120.15 M130.83 289.96 C167.1 247.28, 205.78 203.4, 278.45 120.15 M132.34 291.27 C165.89 250.99, 198.95 210.45, 279.95 121.46 M132.34 291.27 C166.58 251.22, 200.36 210.84, 279.95 121.46 M133.85 292.58 C168.62 252.67, 208.12 207.62, 281.46 122.77 M133.85 292.58 C180.83 237.38, 228.57 182.01, 281.46 122.77 M135.36 293.89 C187.76 231.52, 243.15 172.37, 282.97 124.08 M135.36 293.89 C192.89 227.8, 249.78 163.38, 282.97 124.08 M136.87 295.21 C176.13 250.68, 216.8 204.45, 284.48 125.4 M136.87 295.21 C178 244.92, 221.78 196.34, 284.48 125.4 M138.38 296.52 C194.07 231.27, 252.53 165.41, 285.99 126.71 M138.38 296.52 C178.78 248.44, 220.87 201.94, 285.99 126.71 M139.89 297.83 C174.36 256.73, 207 220.99, 286.85 128.78 M139.89 297.83 C185.32 248.14, 230.04 197.69, 286.85 128.78 M140.74 299.9 C170.47 263.77, 203.71 229.55, 288.36 130.09 M140.74 299.9 C198.54 235.32, 255.1 168.79, 288.36 130.09 M142.25 301.21 C174.32 265.99, 205.53 229.65, 289.86 131.4 M142.25 301.21 C195.16 239.25, 249.9 178.21, 289.86 131.4 M143.76 302.52 C180.34 261.07, 215.3 220.21, 291.37 132.71 M143.76 302.52 C183.5 257.24, 224.11 211.39, 291.37 132.71 M145.27 303.83 C196.56 244.64, 249.09 182.57, 292.88 134.02 M145.27 303.83 C182.16 261.42, 219.51 218.64, 292.88 134.02 M146.78 305.15 C193.76 250.12, 238.55 198.94, 294.39 135.34 M146.78 305.15 C197.46 246.78, 245.7 190.34, 294.39 135.34 M148.29 306.46 C197.53 246.9, 245.22 191.21, 295.9 136.65 M148.29 306.46 C205.14 239.12, 262.09 173.7, 295.9 136.65 M149.8 307.77 C199.31 246.85, 251.61 188.21, 296.76 138.71 M149.8 307.77 C190.52 261.94, 231.57 216.46, 296.76 138.71 M151.31 309.08 C195.11 255.7, 243.45 205.03, 298.27 140.03 M151.31 309.08 C208.5 244.45, 264.81 179.27, 298.27 140.03 M152.16 311.15 C194.4 260.21, 236.27 211.76, 299.77 141.34 M152.16 311.15 C183.58 275.65, 214.45 238.8, 299.77 141.34 M153.67 312.46 C210.52 246.88, 270.24 179.78, 301.28 142.65 M153.67 312.46 C197.45 263, 240.36 212.86, 301.28 142.65 M155.18 313.77 C184.82 278.63, 217.47 242.72, 302.79 143.96 M155.18 313.77 C211.58 249.89, 267.66 185.48, 302.79 143.96 M156.69 315.08 C208.27 251.64, 260.38 193.3, 304.3 145.28 M156.69 315.08 C207.2 256.19, 258.1 197.86, 304.3 145.28 M158.2 316.4 C213.15 257.22, 263.83 195.4, 305.16 147.34 M158.2 316.4 C191.25 280.59, 222.63 244.08, 305.16 147.34 M159.71 317.71 C209.76 259.54, 262 203.51, 306.67 148.65 M159.71 317.71 C193.97 278.07, 228.75 239.87, 306.67 148.65 M170.4 308.46 C216.17 260.41, 260.65 207.2, 308.18 149.97 M170.4 308.46 C208.71 264.51, 249.56 217.93, 308.18 149.97 M190.94 287.88 C233.6 242.38, 272.96 199.36, 309.68 151.28 M190.94 287.88 C215.8 259.54, 241.24 229.83, 309.68 151.28 M210.82 268.06 C237.89 236.08, 267.1 202.12, 311.19 152.59 M210.82 268.06 C248.97 225.48, 286.22 183.9, 311.19 152.59 M231.35 247.49 C255.91 219.9, 280.39 193.4, 312.7 153.9 M231.35 247.49 C263.03 210.33, 294.05 174.28, 312.7 153.9 M251.23 227.67 C272.02 204.16, 294.11 178.42, 314.21 155.21 M251.23 227.67 C273.86 201.54, 295.49 176.26, 314.21 155.21 M271.77 207.09 C281.37 194.6, 293.63 184.77, 315.07 157.28 M271.77 207.09 C284.12 194.14, 295.3 181.27, 315.07 157.28 M292.3 186.52 C296.43 178.35, 305.12 172.63, 316.58 158.59 M292.3 186.52 C300.33 177.58, 308.06 167.23, 316.58 158.59 M312.18 166.7 C313.81 163.88, 315.71 161.34, 318.08 159.91 M312.18 166.7 C314.26 164.15, 316.7 161.12, 318.08 159.91" stroke="#ffc9c9" stroke-width="0.25" fill="none"></path><path d="M160 0 C194.19 34.31, 228.6 67.41, 318.33 160 M160 0 C215.7 55.06, 270.18 110.81, 318.33 160 M318.33 160 C258.48 221.62, 197.03 284.47, 160 318.33 M318.33 160 C258.97 218.46, 199.39 277.86, 160 318.33 M160 318.33 C105.6 265.13, 49.01 208.33, 0 160 M160 318.33 C107.28 266.71, 54.27 215.98, 0 160 M0 160 C62.46 98.53, 123.27 34.67, 160 0 M0 160 C49.95 107.04, 102.54 56.39, 160 0" stroke="#e03131" stroke-width="0.5" fill="none"></path></g></svg>