<svg version="1.1" xmlns="http://www.w3.org/2000/svg" viewBox="0 0 813.3399265171029 267.7454720639065" width="813.3399265171029" height="267.7454720639065" filter="invert(93%) hue-rotate(180deg)" class="excalidraw-svg">
  <!-- svg-source:excalidraw -->
  
  <defs>
    <style class="style-fonts">
      
    </style>
    
  </defs>
  <rect x="0" y="0" width="813.3399265171029" height="267.7454720639065" fill="#f1f1f1"></rect><g stroke-linecap="round"><g transform="translate(10.568166283108269 129.38607324626298) rotate(0 135 0)"><path d="M0.58 -0.35 C45.91 -0.29, 226.3 0.73, 271.18 0.78 M-0.57 -1.57 C44.77 -1.89, 225.93 -1.4, 270.86 -0.93" stroke="#1e1e1e" stroke-width="1" fill="none"></path></g></g><mask></mask><g stroke-linecap="round"><g transform="translate(203.06816628310827 29.38607324626298) rotate(0 0 113.75)"><path d="M0.13 -0.21 C0.18 37.65, -0.22 190.37, -0.24 228.36 M-1.27 -1.37 C-1.35 36.68, -1.4 188.27, -1.31 226.69" stroke="#1e1e1e" stroke-width="1" fill="none"></path></g></g><mask></mask><g stroke-linecap="round"><g transform="translate(202.06816628310827 251.38607324626298) rotate(0 182.25 0)"><path d="M0.68 1.08 C61.59 1.04, 304.62 0.36, 365.06 0 M-0.42 0.61 C60.42 0.75, 303.4 1.69, 364.4 1.54" stroke="#1e1e1e" stroke-width="1" fill="none"></path></g></g><mask></mask><g stroke-linecap="round"><g transform="translate(571.0681662831082 250.88607324626298) rotate(0 0 -118.75)"><path d="M-0.69 0.01 C-0.67 -39.38, -0.68 -197.96, -0.38 -237.52 M1.15 -1.02 C1.03 -40.12, -1.49 -196.84, -1.52 -235.99" stroke="#1e1e1e" stroke-width="1" fill="none"></path></g></g><mask></mask><g stroke-linecap="round"><g transform="translate(566.5681662831082 10.886073246262981) rotate(0 -183 0)"><path d="M0.59 0.53 C-60.43 0.59, -306.09 0.71, -367.2 0.81 M-0.56 -0.24 C-61.13 -0.56, -304.06 -0.82, -365.11 -0.89" stroke="#1e1e1e" stroke-width="1" fill="none"></path></g></g><mask></mask><g stroke-linecap="round"><g transform="translate(463.56816628310827 124.88607324626298) rotate(0 169.25 0)"><path d="M-1.1 -0.46 C55.34 -0.8, 281.1 -1.29, 337.56 -1.04 M0.52 -1.74 C57.42 -1.45, 283.18 -0.22, 339.77 -0.04" stroke="#1e1e1e" stroke-width="1" fill="none"></path></g></g><mask></mask><g stroke-linecap="round"><g transform="translate(278.56816628310827 52.88607324626298) rotate(0 -7.105427357601002e-15 69)"><path d="M0.54 0.63 C0.55 23.48, 0.48 114.26, 0.54 137.29 M-0.64 -0.08 C-0.78 22.88, -0.34 115.62, -0.13 138.45" stroke="#1e1e1e" stroke-width="1" fill="none"></path></g></g><mask></mask><g stroke-linecap="round"><g transform="translate(461.56816628310827 64.88607324626298) rotate(0 0 68.5)"><path d="M-0.79 0.01 C-0.54 22.63, 0.81 113.24, 0.84 136.1 M0.99 -1.03 C1.21 21.68, 0.78 113.9, 0.33 137.17" stroke="#1e1e1e" stroke-width="1" fill="none"></path></g></g><mask></mask><g stroke-linecap="round"><g transform="translate(282.56816628310827 118.88607324626298) rotate(0 88.25 0)"><path d="M-0.32 0.16 C6.39 -6.86, 26.77 -40.87, 41.37 -40.89 C55.98 -40.92, 73.26 -13.6, 87.31 0.02 C101.37 13.64, 111.04 39.88, 125.71 40.85 C140.38 41.81, 166.85 11.47, 175.34 5.82 M1.71 -0.81 C8.25 -7.67, 26.72 -43.06, 40.89 -42.7 C55.05 -42.34, 72.47 -12.7, 86.71 1.35 C100.95 15.4, 111.29 40.81, 126.33 41.61 C141.36 42.4, 168.29 11.98, 176.93 6.12" stroke="#1e1e1e" stroke-width="1" fill="none"></path></g></g><mask></mask><g stroke-linecap="round"><g transform="translate(283.06816628310827 117.88607324626298) rotate(0 87.5 22.25)"><path d="M-0.99 -0.07 C13.97 7.27, 61.1 42.79, 90.55 43.96 C120 45.13, 161.67 13.3, 175.7 6.95 M0.68 -1.15 C15.51 6.36, 61.04 44.17, 90.15 45.21 C119.25 46.25, 161.18 11.5, 175.31 5.1" stroke="#1e1e1e" stroke-width="1" fill="none"></path></g></g><mask></mask><g stroke-linecap="round"><g transform="translate(280.56816628310827 118.88607324626298) rotate(0 87.75 3.75)"><path d="M0.4 0.75 C6.72 -3.87, 27.6 -28.37, 38.45 -27.02 C49.3 -25.66, 56.35 -1.39, 65.51 8.86 C74.66 19.1, 83.21 34.31, 93.38 34.47 C103.55 34.63, 117.05 18.99, 126.52 9.81 C136 0.64, 142.11 -19.3, 150.23 -20.6 C158.35 -21.9, 170.97 -2.06, 175.25 2 M-0.84 0.09 C5.35 -4.42, 27.03 -26.85, 38 -25.75 C48.98 -24.65, 55.84 -3.56, 65.01 6.7 C74.18 16.96, 82.51 35.2, 93.04 35.82 C103.57 36.43, 118.41 19.91, 128.2 10.37 C137.99 0.83, 143.83 -20.33, 151.76 -21.43 C159.69 -22.53, 171.87 -0.42, 175.77 3.79" stroke="#1e1e1e" stroke-width="1" fill="none"></path></g></g><mask></mask><g stroke-linecap="round"><g transform="translate(441.56816628310827 71.88607324626298) rotate(0 -26.25 0)"><path d="M-0.62 1.05 C-9.16 1, -43.4 0.21, -51.99 0.04 M1.26 0.55 C-7.33 0.68, -43.67 1.47, -52.67 1.6" stroke="#1e1e1e" stroke-width="1" fill="none"></path></g><g transform="translate(441.56816628310827 71.88607324626298) rotate(0 -26.25 0)"><path d="M-29.34 -7.38 C-33.14 -4.51, -40.39 -2.61, -52.67 1.6 M-29.34 -7.38 C-36.11 -4.22, -43.38 -1.84, -52.67 1.6" stroke="#1e1e1e" stroke-width="1" fill="none"></path></g><g transform="translate(441.56816628310827 71.88607324626298) rotate(0 -26.25 0)"><path d="M-29.02 9.71 C-32.95 8.51, -40.28 6.31, -52.67 1.6 M-29.02 9.71 C-35.88 7.76, -43.25 5.03, -52.67 1.6" stroke="#1e1e1e" stroke-width="1" fill="none"></path></g></g><mask></mask><g stroke-linecap="round"><g transform="translate(371.56816628310827 37.88607324626298) rotate(0 -7.105427357601002e-15 87)"><path d="M-0.85 0.18 C-0.68 28.93, 0.61 144.22, 0.83 173.06 M0.9 -0.77 C1 28.05, 0.48 144.95, 0.32 174.1" stroke="#1e1e1e" stroke-width="1" fill="none"></path></g></g><mask></mask></svg>