<svg version="1.1" xmlns="http://www.w3.org/2000/svg" viewBox="0 0 1660.1799294943985 213.77589501133593" width="1660.1799294943985" height="213.77589501133593" filter="invert(93%) hue-rotate(180deg)" class="excalidraw-svg"><!-- svg-source:excalidraw --><metadata></metadata><defs><style class="style-fonts">
      </style></defs><rect x="0" y="0" width="1660.1799294943985" height="213.77589501133593" fill="transparent"></rect><g stroke-linecap="round" transform="translate(10 40.80087232081104) rotate(0 61.498046875 61.498046875)"><path d="M18.18 17.13 C18.18 17.13, 18.18 17.13, 18.18 17.13 M18.18 17.13 C18.18 17.13, 18.18 17.13, 18.18 17.13 M5.45 37.87 C14.32 27.7, 22.11 19.21, 28.42 11.45 M5.45 37.87 C10.65 32.72, 15.27 26.93, 28.42 11.45 M2.57 47.28 C10.3 37.12, 18.72 25.54, 38.65 5.77 M2.57 47.28 C10.72 37.69, 20.25 25.78, 38.65 5.77 M2.31 53.68 C20.22 36.52, 36.54 17.09, 46.26 3.12 M2.31 53.68 C15.89 38.51, 29.12 22.28, 46.26 3.12 M2.05 60.08 C12.15 48.02, 26.16 34.76, 51.91 2.72 M2.05 60.08 C21.96 37.35, 40.58 16.36, 51.91 2.72 M1.78 66.48 C16.38 49.41, 28.72 32.93, 57.55 2.33 M1.78 66.48 C14.39 52.04, 28.31 36.36, 57.55 2.33 M2.18 72.12 C19.4 54.65, 38.12 33.88, 62.54 2.69 M2.18 72.12 C18.7 53.52, 35.37 33.05, 62.54 2.69 M3.89 76.25 C28.87 50.17, 50.31 21.63, 68.18 2.29 M3.89 76.25 C16.55 62.29, 30.39 45.37, 68.18 2.29 M5.59 80.39 C23.23 60.53, 40.41 41.1, 73.82 1.9 M5.59 80.39 C26.64 56.74, 45.52 34.36, 73.82 1.9 M7.3 84.52 C25.21 65.03, 38.58 48.07, 77.5 3.77 M7.3 84.52 C30.79 56.7, 55.91 29.13, 77.5 3.77 M9.01 88.65 C30.92 61.1, 57.71 36.92, 81.17 5.64 M9.01 88.65 C30.22 65.64, 51.4 42.26, 81.17 5.64 M10.71 92.79 C30.46 72.31, 46.28 50.62, 85.5 6.75 M10.71 92.79 C30.26 71.17, 48.35 51.46, 85.5 6.75 M11.76 97.68 C38.42 64.6, 67.67 32.73, 89.18 8.62 M11.76 97.68 C40.48 64.95, 69.35 30.52, 89.18 8.62 M14.13 101.05 C44.8 67.3, 75.8 30.52, 92.85 10.49 M14.13 101.05 C41.25 68.33, 69.83 36.1, 92.85 10.49 M17.8 102.92 C35.33 84.39, 50.58 65.68, 96.53 12.36 M17.8 102.92 C48.49 68.71, 76.14 33.98, 96.53 12.36 M20.82 105.55 C49.16 74.05, 73.58 46.17, 100.86 13.47 M20.82 105.55 C38.99 85.63, 58.06 63.47, 100.86 13.47 M23.84 108.17 C53.15 74.57, 84.85 40.41, 103.22 16.85 M23.84 108.17 C52.32 76.39, 80.82 44.16, 103.22 16.85 M26.86 110.8 C52.07 84.16, 71.19 59.74, 105.58 20.23 M26.86 110.8 C48.72 84.07, 71.23 58.66, 105.58 20.23 M29.88 113.42 C59.23 81.98, 86.62 45.32, 107.95 23.61 M29.88 113.42 C50.1 88.72, 71.69 66.27, 107.95 23.61 M33.55 115.29 C63.33 79.79, 92.76 49.42, 110.97 26.24 M33.55 115.29 C63.84 80.68, 94.76 45.93, 110.97 26.24 M36.57 117.92 C65.11 86.21, 90.65 54.42, 113.33 29.61 M36.57 117.92 C63.21 88.96, 86.86 60.04, 113.33 29.61 M41.56 118.28 C62.2 95, 81.48 73.44, 115.69 32.99 M41.56 118.28 C64.57 90.24, 88.43 63.4, 115.69 32.99 M45.89 119.39 C62.95 99.76, 81.29 77.08, 118.05 36.37 M45.89 119.39 C64.09 97.17, 83.12 76.8, 118.05 36.37 M50.22 120.5 C71.62 96.78, 96.46 70.29, 119.1 41.26 M50.22 120.5 C72.8 95.71, 93.07 72.25, 119.1 41.26 M55.21 120.86 C73.97 96.29, 96.92 75.07, 120.16 46.15 M55.21 120.86 C70.31 104.61, 84.56 87.17, 120.16 46.15 M59.54 121.98 C73.88 103.03, 89.99 87.03, 121.21 51.04 M59.54 121.98 C75.53 102.13, 93.78 82.37, 121.21 51.04 M63.87 123.09 C82.94 102.18, 97.8 81.67, 122.26 55.93 M63.87 123.09 C78.91 104.46, 95.83 86.25, 122.26 55.93 M71.48 120.44 C86.48 102.73, 101.75 84.23, 123.31 60.81 M71.48 120.44 C82.15 108.76, 94.3 94.68, 123.31 60.81 M78.43 118.53 C93.24 102.63, 106.37 86.44, 123.05 67.21 M78.43 118.53 C92.84 100.65, 108.17 84.87, 123.05 67.21 M85.39 116.63 C97.77 99.53, 112.23 86.48, 120.16 76.63 M85.39 116.63 C98.6 102.34, 111.11 85.84, 120.16 76.63 M92.34 114.72 C102.12 102.49, 111.03 95.13, 117.27 86.04 M92.34 114.72 C97.5 108.46, 103.09 103.18, 117.27 86.04" stroke="#d0bfff" stroke-width="0.5" fill="none"></path><path d="M44.05 2.84 C52.48 -0.56, 63.02 -0.53, 72.43 1.24 C81.85 3.01, 93.01 7.71, 100.57 13.46 C108.12 19.22, 113.92 27.21, 117.77 35.77 C121.63 44.32, 124.2 55.21, 123.71 64.81 C123.22 74.4, 120.09 85.1, 114.82 93.35 C109.55 101.6, 100.54 109.41, 92.08 114.3 C83.62 119.19, 73.53 122.19, 64.07 122.67 C54.61 123.15, 43.93 121.09, 35.32 117.17 C26.71 113.25, 17.98 106.53, 12.4 99.14 C6.83 91.74, 3.5 82.2, 1.85 72.8 C0.19 63.4, -0.26 52.03, 2.47 42.74 C5.2 33.45, 9.72 24.16, 18.24 17.06 C26.75 9.97, 46.06 2.89, 53.57 0.17 C61.09 -2.54, 63.25 -0.32, 63.34 0.79 M73.98 2.74 C83.25 3.66, 94.98 7.55, 102.25 13.69 C109.51 19.83, 114.08 30.66, 117.55 39.59 C121.03 48.52, 123.98 57.81, 123.07 67.27 C122.16 76.73, 117.61 88.22, 112.1 96.34 C106.59 104.45, 98.28 111.42, 90.03 115.97 C81.78 120.52, 71.69 123.57, 62.58 123.63 C53.48 123.69, 44.11 120.89, 35.4 116.35 C26.7 111.8, 16.3 104.08, 10.35 96.37 C4.39 88.66, 0.62 79.43, -0.31 70.07 C-1.25 60.71, 1.51 49.27, 4.72 40.21 C7.93 31.16, 11.9 21.85, 18.93 15.73 C25.96 9.6, 37.4 6.07, 46.89 3.47 C56.38 0.87, 71.12 0.25, 75.87 0.14 C80.61 0.04, 75.93 1.69, 75.36 2.86" stroke="#6741d9" stroke-width="1" fill="none"></path></g><g stroke-linecap="round"><g transform="translate(155.572690749214 100.78137855868519) rotate(0 57.1930980874174 -0.461368956663204)"><path d="M-0.68 -0.53 C18.43 -0.74, 95.65 -1.81, 114.81 -2.03 M1.17 1.81 C20.14 1.77, 95.37 -0.61, 114.08 -1.07" stroke="#1e1e1e" stroke-width="1" fill="none"></path></g><g transform="translate(155.572690749214 100.78137855868519) rotate(0 57.1930980874174 -0.461368956663204)"><path d="M90.84 8.14 C97.26 6.1, 103.55 2.33, 114.08 -1.07 M90.84 8.14 C95.33 6.5, 101.95 4.27, 114.08 -1.07" stroke="#1e1e1e" stroke-width="1" fill="none"></path></g><g transform="translate(155.572690749214 100.78137855868519) rotate(0 57.1930980874174 -0.461368956663204)"><path d="M90.36 -8.96 C96.83 -5.66, 103.27 -4.1, 114.08 -1.07 M90.36 -8.96 C94.79 -6.73, 101.52 -5.11, 114.08 -1.07" stroke="#1e1e1e" stroke-width="1" fill="none"></path></g></g><mask></mask><g stroke-linecap="round" transform="translate(299.78515625 28.339934820811038) rotate(0 137.09375 75.693359375)"><path d="M16.79 39.77 C16.79 39.77, 16.79 39.77, 16.79 39.77 M16.79 39.77 C16.79 39.77, 16.79 39.77, 16.79 39.77 M6.03 58.25 C11.95 49.24, 18.99 43.75, 30.96 29.57 M6.03 58.25 C12.8 50.31, 19.86 42.9, 30.96 29.57 M2.49 68.42 C15.92 52.06, 29.39 35.83, 44.48 20.12 M2.49 68.42 C12.95 57.28, 23.36 43.49, 44.48 20.12 M2.89 74.06 C19.63 52.35, 38.93 31.99, 52.75 16.7 M2.89 74.06 C19.01 54.77, 35.22 36.62, 52.75 16.7 M3.28 79.7 C22.25 58.26, 41.74 35.31, 60.36 14.04 M3.28 79.7 C24.48 52.91, 48.42 28.43, 60.36 14.04 M4.33 84.59 C26.23 60.87, 49.58 36.24, 67.31 12.14 M4.33 84.59 C23.32 63.8, 39.22 43.55, 67.31 12.14 M4.73 90.23 C21.65 69.73, 38.9 52.8, 74.92 9.48 M4.73 90.23 C21.31 72.84, 35.96 54.16, 74.92 9.48 M5.78 95.12 C33.33 63.65, 59.94 32.33, 81.88 7.58 M5.78 95.12 C24.79 72.97, 45.47 49.32, 81.88 7.58 M8.14 98.5 C32.18 69.09, 59.2 39.67, 89.49 4.92 M8.14 98.5 C35.74 66.86, 63.09 36.08, 89.49 4.92 M11.16 101.13 C31.48 75.96, 54.37 51.95, 95.79 3.77 M11.16 101.13 C36.43 71.42, 63.03 40.36, 95.79 3.77 M13.52 104.51 C41.4 71.53, 70.06 41.78, 101.43 3.37 M13.52 104.51 C35.57 79.06, 57.81 53.41, 101.43 3.37 M16.54 107.13 C47.94 72.37, 74.36 39.6, 107.08 2.98 M16.54 107.13 C38.42 84.45, 59.98 58.76, 107.08 2.98 M18.9 110.51 C46.95 77.12, 77.2 46.67, 112.72 2.58 M18.9 110.51 C40.46 85.96, 61.32 62.11, 112.72 2.58 M21.27 113.89 C51.21 78.71, 83.8 40.35, 118.36 2.19 M21.27 113.89 C51.57 77.16, 82.56 42, 118.36 2.19 M24.28 116.51 C60.96 74.97, 100.57 29.9, 124.01 1.8 M24.28 116.51 C43.7 94, 64.38 69.51, 124.01 1.8 M27.3 119.14 C61.05 81.92, 94.85 40.17, 129.65 1.4 M27.3 119.14 C68.35 72.84, 109.76 25.08, 129.65 1.4 M30.32 121.76 C61.85 81.19, 98.41 42.97, 135.29 1.01 M30.32 121.76 C61.86 85.59, 93 51.07, 135.29 1.01 M34 123.63 C60.09 89.43, 91.37 58.41, 141.59 -0.14 M34 123.63 C59.65 94.77, 84.02 67.73, 141.59 -0.14 M37.67 125.5 C63.48 98.8, 86.31 70.38, 146.58 0.22 M37.67 125.5 C72.04 87.93, 105.26 49.84, 146.58 0.22 M41.35 127.37 C75.92 84.37, 114.34 41.7, 151.57 0.58 M41.35 127.37 C72.48 92.46, 105.43 54.86, 151.57 0.58 M45.02 129.24 C88.34 80.92, 132.77 29.66, 155.9 1.69 M45.02 129.24 C87.14 79.71, 130.36 29.99, 155.9 1.69 M48.04 131.86 C92.64 80.02, 136.52 32.48, 160.88 2.05 M48.04 131.86 C92.2 81.52, 135.86 32.51, 160.88 2.05 M51.72 133.73 C80.64 100, 111.21 65.59, 165.87 2.41 M51.72 133.73 C76.83 106.04, 99.34 78.71, 165.87 2.41 M55.39 135.6 C79.72 105.93, 103.42 80.6, 170.86 2.77 M55.39 135.6 C82.25 102.57, 111.48 69.19, 170.86 2.77 M59.07 137.47 C92.61 96.93, 128.31 56.55, 175.19 3.89 M59.07 137.47 C101.2 91.76, 142.04 45.15, 175.19 3.89 M62.08 140.1 C85.93 113.36, 108.93 84.87, 180.18 4.25 M62.08 140.1 C99.86 96.03, 139.03 52, 180.18 4.25 M66.42 141.21 C100.92 100.54, 135.35 60.67, 185.16 4.61 M66.42 141.21 C104.78 96.21, 146.3 49.52, 185.16 4.61 M71.4 141.57 C103.31 103.06, 134.8 66.04, 190.15 4.97 M71.4 141.57 C96.12 112.95, 121.87 85.14, 190.15 4.97 M75.73 142.68 C108.53 104.62, 139.43 67.1, 194.48 6.08 M75.73 142.68 C101.54 113.96, 126.97 84.99, 194.48 6.08 M80.06 143.8 C105.62 115.96, 129.08 86.69, 198.16 7.95 M80.06 143.8 C127.14 90.67, 173.62 37.46, 198.16 7.95 M84.4 144.91 C123.98 95.15, 167.89 48.9, 202.49 9.07 M84.4 144.91 C126.22 97.01, 166.76 48.97, 202.49 9.07 M88.73 146.03 C118.3 109.74, 148.02 77.21, 206.16 10.94 M88.73 146.03 C125.74 103.89, 163.6 59.22, 206.16 10.94 M93.06 147.14 C130.45 103.52, 167.87 61.25, 210.49 12.05 M93.06 147.14 C118.4 116.73, 144.98 86.04, 210.49 12.05 M97.39 148.26 C136.27 103.26, 174.44 61.87, 214.17 13.92 M97.39 148.26 C136.31 102.72, 175.84 56.6, 214.17 13.92 M101.72 149.37 C129.01 118.03, 156.82 86.9, 218.5 15.04 M101.72 149.37 C134.67 111.99, 167.13 76.81, 218.5 15.04 M106.05 150.49 C134.22 119.76, 160.64 85.77, 222.17 16.9 M106.05 150.49 C143.52 108.21, 180.49 65.28, 222.17 16.9 M111.04 150.85 C137.32 117.87, 165.21 89.83, 226.5 18.02 M111.04 150.85 C137.57 119.43, 165.01 89.21, 226.5 18.02 M116.02 151.21 C145.39 116.62, 176.48 80.92, 230.18 19.89 M116.02 151.21 C147.49 112.23, 181.61 75.17, 230.18 19.89 M121.67 150.81 C158.58 108.46, 197.74 65.84, 233.85 21.76 M121.67 150.81 C162.2 104.25, 203.66 57.9, 233.85 21.76 M127.31 150.42 C166.88 107.73, 205.38 63.8, 237.53 23.63 M127.31 150.42 C165.68 105.13, 204.72 60.35, 237.53 23.63 M132.3 150.78 C159.42 120.56, 183.16 92.77, 240.55 26.25 M132.3 150.78 C160.77 118.75, 187.24 86.17, 240.55 26.25 M137.94 150.39 C172.95 110.12, 207.42 72.5, 243.57 28.88 M137.94 150.39 C177.82 103.86, 218.92 56.86, 243.57 28.88 M142.93 150.75 C174.37 116.57, 205.11 81.86, 246.58 31.5 M142.93 150.75 C167.32 121.76, 193.23 91.95, 246.58 31.5 M148.57 150.35 C178.42 117.46, 206.08 82.23, 249.6 34.13 M148.57 150.35 C184.88 107.63, 221.51 65.79, 249.6 34.13 M154.21 149.96 C186.17 113.74, 220.96 74.43, 252.62 36.75 M154.21 149.96 C188.94 109.68, 223.42 68.55, 252.62 36.75 M159.86 149.56 C180 125.99, 204.67 98.97, 256.3 38.62 M159.86 149.56 C195.45 107.53, 231.65 66, 256.3 38.62 M166.16 148.41 C192.25 115.1, 221.1 85.75, 259.32 41.24 M166.16 148.41 C197.84 109.79, 232.11 70.64, 259.32 41.24 M172.45 147.26 C205.17 106.19, 242.18 70.21, 262.33 43.87 M172.45 147.26 C197.92 120.3, 222.56 91.93, 262.33 43.87 M178.75 146.11 C210.33 111.59, 237.13 78.28, 264.04 48 M178.75 146.11 C210.44 112.31, 240.21 76.64, 264.04 48 M185.05 144.96 C207.9 119.93, 229.48 95.59, 265.75 52.13 M185.05 144.96 C217.64 107.88, 250.9 71.45, 265.75 52.13 M191.35 143.81 C217.33 112.1, 246.31 82.45, 267.46 56.27 M191.35 143.81 C219.66 112.17, 246.34 81.48, 267.46 56.27 M197.65 142.67 C220.81 116.93, 240.25 90.27, 269.16 60.4 M197.65 142.67 C214 123.08, 231.1 102.71, 269.16 60.4 M203.95 141.52 C223.19 119.34, 240.72 99.22, 270.87 64.54 M203.95 141.52 C223.97 117.37, 245.06 93.58, 270.87 64.54 M212.22 138.1 C233.18 112.11, 256.1 86.73, 272.58 68.67 M212.22 138.1 C235.43 112.03, 260.1 84.6, 272.58 68.67 M221.14 133.93 C238.56 117.92, 253.16 101.02, 272.97 74.31 M221.14 133.93 C236.55 118.81, 250.85 102, 272.97 74.31 M229.41 130.52 C236.97 121.14, 247.86 111.82, 271.4 82.22 M229.41 130.52 C246.34 110.91, 262.16 92.83, 271.4 82.22 M238.33 126.35 C248.65 115.37, 256.9 104.65, 269.82 90.13 M238.33 126.35 C247.12 117.81, 254.85 108.66, 269.82 90.13" stroke="#d0bfff" stroke-width="0.5" fill="none"></path><path d="M191.02 5.21 C206.22 7.46, 221.06 14.17, 232.92 20.58 C244.78 26.99, 255.46 35.13, 262.19 43.67 C268.93 52.2, 272.36 62.82, 273.34 71.81 C274.31 80.8, 272.94 89.1, 268.04 97.61 C263.15 106.13, 254.46 115.72, 243.94 122.91 C233.42 130.11, 219.37 136.36, 204.93 140.79 C190.49 145.23, 173.55 147.92, 157.32 149.53 C141.09 151.14, 123.46 152.1, 107.57 150.43 C91.67 148.75, 75.52 144.74, 61.95 139.48 C48.37 134.22, 35.64 126.4, 26.12 118.86 C16.59 111.31, 8.88 103.05, 4.78 94.21 C0.69 85.36, -0.49 74.91, 1.53 65.8 C3.56 56.7, 9.36 47.53, 16.95 39.6 C24.53 31.66, 34.52 24.14, 47.05 18.18 C59.57 12.22, 76.32 6.93, 92.07 3.84 C107.83 0.75, 124.64 -1, 141.56 -0.37 C158.48 0.25, 184.34 5.96, 193.58 7.59 C202.82 9.21, 197.85 8.43, 197 9.37 M195.16 8.39 C210.31 11.07, 226.21 18.49, 237.6 24.87 C248.99 31.26, 257.28 38.5, 263.47 46.7 C269.67 54.89, 274.39 65.08, 274.79 74.04 C275.2 83, 271.55 91.77, 265.88 100.44 C260.21 109.1, 251.7 118.8, 240.8 126.03 C229.89 133.26, 215.02 139.84, 200.44 143.81 C185.87 147.78, 169.72 148.76, 153.35 149.83 C136.97 150.91, 118.21 152.19, 102.18 150.25 C86.14 148.31, 70.45 143.98, 57.13 138.2 C43.81 132.42, 31.3 123.53, 22.25 115.57 C13.21 107.62, 6.37 99.3, 2.86 90.49 C-0.66 81.67, -1.39 71.8, 1.16 62.69 C3.71 53.59, 9.54 43.84, 18.16 35.86 C26.78 27.88, 39.91 20.32, 52.88 14.8 C65.84 9.29, 80.19 5.44, 95.95 2.78 C111.7 0.12, 130.77 -1.93, 147.43 -1.17 C164.09 -0.41, 188.03 5.68, 195.91 7.31 C203.78 8.94, 195.89 7.49, 194.69 8.61" stroke="#6741d9" stroke-width="1" fill="none"></path></g><g stroke-linecap="round"><g transform="translate(609.9933289190848 104.95603280750524) rotate(0 57.19309808741741 -0.461368956663204)"><path d="M-1.2 -1.17 C17.79 -1.22, 95.13 -0.69, 114.46 -0.68 M0.38 0.83 C19.17 0.42, 94.58 -2.56, 113.55 -2.67" stroke="#1e1e1e" stroke-width="1" fill="none"></path></g><g transform="translate(609.9933289190848 104.95603280750524) rotate(0 57.19309808741741 -0.461368956663204)"><path d="M90.28 6.46 C96.34 3.68, 106.68 1.08, 113.55 -2.67 M90.28 6.46 C96.4 4.8, 103.02 0.89, 113.55 -2.67" stroke="#1e1e1e" stroke-width="1" fill="none"></path></g><g transform="translate(609.9933289190848 104.95603280750524) rotate(0 57.19309808741741 -0.461368956663204)"><path d="M89.85 -10.64 C96.01 -7.54, 106.5 -4.28, 113.55 -2.67 M89.85 -10.64 C96.17 -7.38, 102.91 -6.38, 113.55 -2.67" stroke="#1e1e1e" stroke-width="1" fill="none"></path></g></g><mask></mask><g transform="translate(936.932537601235 51.36292822831439) rotate(0 31.480141300217525 55.52501927735358)" stroke="none"><path d="M-154.19 1.12 C-154.19 1.12, -154.19 1.12, -154.19 1.12 M-154.19 1.12 C-154.19 1.12, -154.19 1.12, -154.19 1.12 M-161.87 12.99 C-154.44 6.54, -150.78 -2.62, -138.25 -14.18 M-161.87 12.99 C-156.99 7.02, -150.88 0.1, -138.25 -14.18 M-169.54 24.87 C-160.47 13.69, -151.93 4.64, -128.87 -21.92 M-169.54 24.87 C-155.98 10.55, -144.4 -3.63, -128.87 -21.92 M-171.31 29.96 C-160.44 15.82, -148.43 5.06, -124.08 -24.38 M-171.31 29.96 C-160.27 16.26, -147.51 2.19, -124.08 -24.38 M-175.05 37.31 C-159.3 21.69, -145.93 6.81, -119.29 -26.84 M-175.05 37.31 C-162.17 22.94, -151.15 8.39, -119.29 -26.84 M-176.82 42.39 C-166.2 29.25, -152.38 13.72, -116.46 -27.04 M-176.82 42.39 C-154.01 17.21, -131.14 -9.47, -116.46 -27.04 M-177.94 46.72 C-162.89 32.91, -148.75 16.99, -112.33 -28.75 M-177.94 46.72 C-151.33 17.21, -125.45 -13.62, -112.33 -28.75 M-179.05 51.05 C-156.31 25.46, -132.93 -1.99, -108.85 -29.7 M-179.05 51.05 C-159.49 29, -139.52 5.29, -108.85 -29.7 M-178.85 53.88 C-160.55 31.51, -142.99 10.92, -105.38 -30.65 M-178.85 53.88 C-158.22 32.71, -139.28 10.01, -105.38 -30.65 M-179.31 57.45 C-161.79 38.68, -146.42 21.16, -102.55 -30.85 M-179.31 57.45 C-152.27 26.05, -124.21 -6.69, -102.55 -30.85 M-179.12 60.27 C-157.35 34.95, -132.19 5.37, -99.73 -31.05 M-179.12 60.27 C-151.67 29.73, -124.7 -2.37, -99.73 -31.05 M-179.57 63.85 C-163.3 41.5, -143.51 21.77, -96.91 -31.24 M-179.57 63.85 C-156.93 38.58, -136.08 14.81, -96.91 -31.24 M-179.38 66.67 C-147.14 30.43, -120.08 -2.97, -94.09 -31.44 M-179.38 66.67 C-160.94 45.15, -141.17 22.9, -94.09 -31.44 M-179.84 70.25 C-152.08 42.38, -126.98 12.84, -91.27 -31.64 M-179.84 70.25 C-150.81 38.15, -124.22 7.21, -91.27 -31.64 M-180.29 73.82 C-142.8 31.38, -107.75 -8.01, -88.45 -31.84 M-180.29 73.82 C-147.01 34.83, -114.32 -3.53, -88.45 -31.84 M-180.1 76.65 C-160.26 55.32, -142.3 32.22, -85.63 -32.03 M-180.1 76.65 C-151.97 43.19, -122.47 9.15, -85.63 -32.03 M-179.9 79.47 C-151.59 48.52, -124.17 12.69, -83.46 -31.47 M-179.9 79.47 C-150.73 45.02, -121.68 9.46, -83.46 -31.47 M-179.05 81.53 C-150.36 45.43, -117.58 9.91, -80.64 -31.67 M-179.05 81.53 C-146.3 44.59, -114.27 8.18, -80.64 -31.67 M-178.85 84.36 C-154.33 55.48, -127.6 27.3, -78.47 -31.11 M-178.85 84.36 C-153.01 54.31, -124.68 24.07, -78.47 -31.11 M-178.65 87.18 C-149.38 54.74, -119.74 20.53, -76.31 -30.56 M-178.65 87.18 C-145.79 49.2, -111.35 11.47, -76.31 -30.56 M-178.46 90 C-157.57 63.32, -135.52 38.69, -73.49 -30.75 M-178.46 90 C-145.27 50.46, -110.46 10.32, -73.49 -30.75 M-177.6 92.07 C-144.7 51.06, -110.02 14.95, -71.32 -30.2 M-177.6 92.07 C-144.32 52.16, -108.71 12.93, -71.32 -30.2 M-177.4 94.89 C-153.98 67.87, -131.84 41.15, -69.15 -29.64 M-177.4 94.89 C-150.5 62.4, -120.65 29.54, -69.15 -29.64 M-177.21 97.71 C-140.21 57.98, -105.5 19.21, -66.99 -29.08 M-177.21 97.71 C-153.43 71.2, -128.38 42.42, -66.99 -29.08 M-177.01 100.53 C-149.58 66.79, -120.61 34.51, -64.82 -28.53 M-177.01 100.53 C-141.48 61.26, -107.78 20.71, -64.82 -28.53 M-176.16 102.6 C-136.84 56.28, -99.54 13.85, -62.66 -27.97 M-176.16 102.6 C-152.49 76.66, -128.54 50.22, -62.66 -27.97 M-175.3 104.66 C-150.24 75.43, -123.68 47.82, -61.15 -26.66 M-175.3 104.66 C-132.27 58.11, -91.23 11.69, -61.15 -26.66 M-175.11 107.49 C-136.02 64.17, -97.97 18.04, -58.98 -26.1 M-175.11 107.49 C-140.02 65.04, -102.57 24.72, -58.98 -26.1 M-174.25 109.55 C-132.15 61.58, -90.77 14.32, -56.82 -25.54 M-174.25 109.55 C-146.07 79.31, -119.43 47.6, -56.82 -25.54 M-173.4 111.62 C-148.92 83.07, -121.36 52.53, -54.65 -24.98 M-173.4 111.62 C-141.25 73.45, -108.68 34.69, -54.65 -24.98 M-172.55 113.69 C-150.15 85.53, -122.02 59.5, -52.49 -24.43 M-172.55 113.69 C-129.51 61.63, -85.17 11.36, -52.49 -24.43 M-171.69 115.75 C-123.88 62.5, -77.13 10.39, -50.32 -23.87 M-171.69 115.75 C-134.94 73.56, -97.95 30.64, -50.32 -23.87 M-170.84 117.82 C-141.94 82.21, -107.25 45.86, -48.81 -22.56 M-170.84 117.82 C-130.57 72.69, -92.5 28.82, -48.81 -22.56 M-170.64 120.64 C-123.56 65.89, -75.34 10.7, -47.3 -21.24 M-170.64 120.64 C-139.55 83.08, -107.55 47.24, -47.3 -21.24 M-169.13 121.95 C-131.45 77.29, -89.87 34, -45.14 -20.69 M-169.13 121.95 C-132.76 79.98, -97.02 37.72, -45.14 -20.69 M-168.28 124.02 C-129.73 82.35, -95.06 38.77, -43.63 -19.37 M-168.28 124.02 C-131.51 79.75, -93 36.54, -43.63 -19.37 M-166.77 125.33 C-126.76 82.59, -91.9 39.05, -42.12 -18.06 M-166.77 125.33 C-118.93 70.24, -70.38 13.99, -42.12 -18.06 M-165.92 127.4 C-125.8 81.11, -88.32 36.8, -39.95 -17.51 M-165.92 127.4 C-132.84 91.8, -101.29 54.97, -39.95 -17.51 M-165.06 129.47 C-130.07 89.47, -96.82 48.53, -38.44 -16.19 M-165.06 129.47 C-121.39 79.59, -77.04 28.19, -38.44 -16.19 M-163.55 130.78 C-120.55 83.96, -78.99 35.22, -36.93 -14.88 M-163.55 130.78 C-135.97 97.96, -108.13 66.63, -36.93 -14.88 M-162.7 132.84 C-134.62 100.09, -105.94 65.16, -35.42 -13.57 M-162.7 132.84 C-134.61 97.56, -103.53 63.36, -35.42 -13.57 M-161.19 134.16 C-133.35 105.55, -106.99 72.22, -33.92 -12.26 M-161.19 134.16 C-114.98 80.46, -66.54 25.35, -33.92 -12.26 M-160.34 136.22 C-129.72 100.76, -95.54 64.17, -32.41 -10.94 M-160.34 136.22 C-115.7 84.27, -72.13 32.7, -32.41 -10.94 M-158.83 137.54 C-116.23 92.93, -78.36 45.82, -30.9 -9.63 M-158.83 137.54 C-111.34 85.29, -63.9 31.62, -30.9 -9.63 M-157.32 138.85 C-108.22 82.54, -59.47 25.02, -29.39 -8.32 M-157.32 138.85 C-121.11 97.28, -85.53 55.95, -29.39 -8.32 M-155.81 140.16 C-116.19 89.41, -71.94 41.06, -27.22 -7.76 M-155.81 140.16 C-115.26 93.3, -72.11 45.65, -27.22 -7.76 M-153.64 140.72 C-110.2 87.1, -61.72 34.02, -25.71 -6.45 M-153.64 140.72 C-117.07 97.16, -79.7 54.3, -25.71 -6.45 M-152.13 142.03 C-117.73 101.83, -83.24 59.53, -24.2 -5.14 M-152.13 142.03 C-119.49 103.95, -87.82 68.77, -24.2 -5.14 M-150.62 143.34 C-112.25 101.77, -77.41 55.46, -22.69 -3.83 M-150.62 143.34 C-109.57 96.35, -68.09 48.84, -22.69 -3.83 M-149.12 144.65 C-108.1 97.46, -69.38 51.51, -21.18 -2.51 M-149.12 144.65 C-121.99 113.43, -94.2 80.89, -21.18 -2.51 M-147.61 145.97 C-99.56 90.11, -54.23 35.46, -19.67 -1.2 M-147.61 145.97 C-97.6 88.65, -47.59 30.99, -19.67 -1.2 M-145.44 146.52 C-109.63 102.81, -74.76 64.21, -18.16 0.11 M-145.44 146.52 C-96.37 91.27, -47.64 35.42, -18.16 0.11 M-143.93 147.84 C-102.97 100.96, -62.51 55.59, -16.66 1.42 M-143.93 147.84 C-95.02 92.58, -48.15 35.57, -16.66 1.42 M-141.77 148.39 C-90.31 93.46, -39.21 33.28, -14.49 1.98 M-141.77 148.39 C-95.85 94.32, -50.28 41.27, -14.49 1.98 M-140.26 149.71 C-90.48 91.97, -42.01 36.28, -12.98 3.29 M-140.26 149.71 C-108.19 110.84, -75.83 73.59, -12.98 3.29 M-138.09 150.26 C-91.74 98.32, -45.22 45.98, -10.82 3.85 M-138.09 150.26 C-103.78 109.92, -68.36 70.77, -10.82 3.85 M-6.88 -0.68 C-6.88 -0.68, -6.88 -0.68, -6.88 -0.68 M-6.88 -0.68 C-6.88 -0.68, -6.88 -0.68, -6.88 -0.68 M-135.92 150.82 C-108.59 120.44, -78.94 88.01, -9.31 5.16 M-135.92 150.82 C-102.85 112.96, -67.95 72.83, -9.31 5.16 M-5.37 0.63 C-5.08 0.41, -4.82 0.01, -4.71 -0.12 M-5.37 0.63 C-5.2 0.37, -5 0.17, -4.71 -0.12 M-133.76 151.38 C-89.08 101.05, -46.1 51.07, -6.48 4.96 M-133.76 151.38 C-106.29 118.99, -78.33 87.8, -6.48 4.96 M-3.86 1.94 C-3.34 1.13, -3.18 1, -1.89 -0.32 M-3.86 1.94 C-3.28 1.14, -2.27 0.36, -1.89 -0.32 M-131.59 151.93 C-101.1 118.49, -71.78 84.31, -1.69 2.5 M-131.59 151.93 C-99.76 115.32, -68.59 78.02, -1.69 2.5 M-129.43 152.49 C-94.07 109.27, -56.95 69.82, -0.18 3.81 M-129.43 152.49 C-87.93 103.84, -45.67 54.65, -0.18 3.81 M-126.61 152.29 C-92.2 108.63, -52.41 68.72, 1.98 4.37 M-126.61 152.29 C-81.01 100.23, -35.29 46.73, 1.98 4.37 M-123.79 152.1 C-99.88 123.24, -72.88 89.55, 4.15 4.93 M-123.79 152.1 C-82.72 107.08, -41.39 59.93, 4.15 4.93 M-120.96 151.9 C-85.49 113.84, -51.93 76.33, 6.31 5.49 M-120.96 151.9 C-92.99 122.6, -67.62 91.19, 6.31 5.49 M-117.49 150.95 C-89.52 119.8, -62.17 87.6, 8.48 6.04 M-117.49 150.95 C-73.13 100.84, -28.36 50.15, 8.48 6.04 M-114.66 150.75 C-86.54 117.68, -59.99 85.43, 10.64 6.6 M-114.66 150.75 C-67.23 98.44, -22.6 46.32, 10.64 6.6 M-110.53 149.04 C-78.6 113.81, -46.2 77.91, 13.46 6.4 M-110.53 149.04 C-72.94 103.13, -33.83 58.87, 13.46 6.4 M-107.05 148.09 C-62.1 98.01, -20.29 47.31, 15.63 6.96 M-107.05 148.09 C-77.75 112.58, -46.36 77.98, 15.63 6.96 M-102.92 146.39 C-60.95 95.39, -17.14 44.01, 18.45 6.76 M-102.92 146.39 C-55.95 92.59, -11.1 41.2, 18.45 6.76 M-98.79 144.68 C-72.89 119.21, -49.57 91.24, 20.62 7.32 M-98.79 144.68 C-52.46 93.24, -8.26 42.48, 20.62 7.32 M-94 142.22 C-58.28 100.48, -20.38 61.56, 23.44 7.12 M-94 142.22 C-48.74 91.24, -6.54 42.02, 23.44 7.12 M-87.89 138.25 C-47.12 90.55, -4.01 42.92, 25.6 7.68 M-87.89 138.25 C-53.42 100.19, -20.02 61.07, 25.6 7.68 M-81.79 134.28 C-57.59 108.76, -34.49 79.82, 27.77 8.24 M-81.79 134.28 C-58.46 107.13, -34.4 79.87, 27.77 8.24 M-75.69 130.3 C-49.73 98.83, -22.67 70.34, 30.59 8.04 M-75.69 130.3 C-45.7 94.88, -15.59 61.48, 30.59 8.04 M-69.59 126.33 C-34.92 92.09, -6.23 53.46, 32.76 8.6 M-69.59 126.33 C-38.12 90.13, -6.54 54.73, 32.76 8.6 M-63.49 122.36 C-31.2 87.86, -1.36 50.27, 35.58 8.4 M-63.49 122.36 C-38.44 93.97, -13.83 63.29, 35.58 8.4 M-56.73 117.64 C-23.06 80.23, 7.1 40.92, 37.74 8.96 M-56.73 117.64 C-29.43 86.49, -3.83 57.68, 37.74 8.96 M-50.63 113.67 C-30.16 91.53, -11.01 70.84, 40.56 8.76 M-50.63 113.67 C-32.27 91.95, -12.68 70.25, 40.56 8.76 M-44.53 109.7 C-25.65 90.56, -7.59 70.36, 42.73 9.32 M-44.53 109.7 C-18.03 80.36, 9.15 49.58, 42.73 9.32 M-38.42 105.72 C-17.44 79.77, 6.05 56.51, 45.55 9.12 M-38.42 105.72 C-19.23 83.83, -0.78 60.93, 45.55 9.12 M-33.63 103.26 C-10.72 77.17, 13.37 50.66, 47.72 9.68 M-33.63 103.26 C-3.74 67.63, 27.5 31.34, 47.72 9.68 M-28.84 100.8 C-2.26 67.96, 22.7 38.51, 49.88 10.24 M-28.84 100.8 C-7.7 76.76, 11.1 55.57, 49.88 10.24 M-24.05 98.34 C-1.03 68.36, 26.29 38.7, 53.36 9.28 M-24.05 98.34 C6.85 63.97, 36.07 28.51, 53.36 9.28 M-19.27 95.88 C-2.7 75.09, 16.66 54.39, 56.84 8.33 M-19.27 95.88 C5.58 67.23, 30.76 39.81, 56.84 8.33 M-13.82 92.66 C15.64 60.24, 43.04 30.27, 60.32 7.38 M-13.82 92.66 C9.58 65.68, 32.71 37.75, 60.32 7.38 M-9.69 90.96 C10.45 69.02, 28.46 49.03, 63.79 6.43 M-9.69 90.96 C14.93 62, 38.73 35.4, 63.79 6.43 M-6.21 90 C9.58 71.1, 25.85 54.03, 67.27 5.48 M-6.21 90 C20.58 58.25, 48.51 26.79, 67.27 5.48 M-2.07 88.3 C16.07 67.35, 36.86 45.88, 72.06 3.02 M-2.07 88.3 C18.09 67.2, 36.76 44.54, 72.06 3.02 M1.4 87.35 C29.98 57.61, 56.44 24.54, 76.85 0.55 M1.4 87.35 C24.7 61.61, 47.34 33.77, 76.85 0.55 M5.54 85.64 C24.05 65.05, 40.08 48.02, 81.64 -1.91 M5.54 85.64 C31.6 56.04, 59.78 25.33, 81.64 -1.91 M9.01 84.69 C28.17 64.74, 42.02 45.37, 86.43 -4.37 M9.01 84.69 C30.09 60.33, 50.64 35.99, 86.43 -4.37 M13.15 82.98 C31.05 63.78, 44.73 46.14, 91.88 -7.59 M13.15 82.98 C39.27 53.54, 67.37 22.13, 91.88 -7.59 M15.97 82.78 C47.14 48.54, 75.76 15.93, 96.66 -10.05 M15.97 82.78 C43.81 49.72, 71.67 15.72, 96.66 -10.05 M18.79 82.59 C41.03 59.47, 59.91 34.76, 101.45 -12.51 M18.79 82.59 C36.81 60.6, 55.01 40.16, 101.45 -12.51 M22.27 81.63 C45.52 54.52, 70.38 29.87, 106.9 -15.72 M22.27 81.63 C45.21 53.9, 69.04 26.97, 106.9 -15.72 M25.09 81.44 C49.32 52.48, 75.61 20.26, 111.69 -18.19 M25.09 81.44 C49.42 53.56, 72.46 25.84, 111.69 -18.19 M27.91 81.24 C56.74 47.74, 87.47 11.11, 116.48 -20.65 M27.91 81.24 C51.63 52.96, 75.45 25.93, 116.48 -20.65 M30.73 81.04 C48.43 60.11, 67.59 38.5, 121.27 -23.11 M30.73 81.04 C51.67 55.48, 74.19 29.45, 121.27 -23.11 M32.9 81.6 C61.57 48.82, 92.47 11, 126.72 -26.32 M32.9 81.6 C52.16 57.26, 71.07 35.28, 126.72 -26.32 M35.72 81.4 C70.96 39.85, 107.7 -1.69, 131.5 -28.79 M35.72 81.4 C70.95 40.11, 106.88 0.26, 131.5 -28.79 M37.89 81.96 C63.49 53.09, 83.12 26.18, 134.98 -29.74 M37.89 81.96 C64.59 50.9, 90.63 21.99, 134.98 -29.74 M40.05 82.52 C72.54 45.02, 104.91 6.58, 138.46 -30.69 M40.05 82.52 C72.33 44.42, 106.87 4.37, 138.46 -30.69 M42.22 83.07 C72.84 49.46, 103.09 13.48, 141.94 -31.64 M42.22 83.07 C69.59 51.21, 98.43 19.97, 141.94 -31.64 M44.38 83.63 C73.22 51.5, 105.82 17.12, 145.42 -32.59 M44.38 83.63 C78.3 43.42, 112.29 2.55, 145.42 -32.59 M47.2 83.43 C85.72 38.63, 127.01 -7.59, 148.89 -33.55 M47.2 83.43 C84.12 41.44, 119 -0.8, 148.89 -33.55 M49.37 83.99 C74.88 53.23, 100.17 24.5, 152.37 -34.5 M49.37 83.99 C72.75 59.7, 96.03 32.72, 152.37 -34.5 M51.53 84.55 C87.88 43.14, 122.88 1.8, 155.85 -35.45 M51.53 84.55 C82.13 49.04, 111.5 15.13, 155.85 -35.45 M53.7 85.11 C82.53 52.26, 114.27 16, 159.33 -36.4 M53.7 85.11 C83.86 49.3, 116.58 13.47, 159.33 -36.4 M55.87 85.66 C92.79 43.1, 126.75 4.87, 162.8 -37.35 M55.87 85.66 C91.72 44, 129.32 2.41, 162.8 -37.35 M58.03 86.22 C80.82 61.28, 100.71 35.26, 166.28 -38.31 M58.03 86.22 C99.3 38.29, 139.86 -8.31, 166.28 -38.31 M59.54 87.53 C84.49 59.72, 109.39 29.99, 171.07 -40.77 M59.54 87.53 C86.91 55.86, 113.63 23.52, 171.07 -40.77 M61.05 88.85 C104.67 41.19, 147.31 -7.38, 173.24 -40.21 M61.05 88.85 C100.79 43.02, 138.69 -1.43, 173.24 -40.21 M63.22 89.4 C87.35 63.48, 111.49 36.15, 176.06 -40.41 M63.22 89.4 C88.87 58.93, 115.5 29.63, 176.06 -40.41 M64.72 90.71 C94.92 60.36, 122.3 26.04, 178.88 -40.6 M64.72 90.71 C103.11 45.6, 143.32 0.54, 178.88 -40.6 M66.23 92.03 C96.28 60.1, 120.92 29.05, 181.04 -40.05 M66.23 92.03 C108.91 41.76, 152.38 -8.64, 181.04 -40.05 M68.4 92.58 C93.75 63.46, 119.24 34.21, 183.87 -40.24 M68.4 92.58 C115.1 39.88, 162.68 -13.22, 183.87 -40.24 M69.91 93.9 C112.28 44.91, 156.44 -2.69, 186.69 -40.44 M69.91 93.9 C98.53 60.54, 127.99 28.26, 186.69 -40.44 M71.42 95.21 C97.78 63.9, 121.3 37.29, 189.51 -40.64 M71.42 95.21 C96.15 65.72, 120.37 36.05, 189.51 -40.64 M73.58 95.77 C115.77 46.99, 155.9 0.41, 191.67 -40.08 M73.58 95.77 C105.28 59.52, 138.54 22.36, 191.67 -40.08 M75.09 97.08 C104.64 62.88, 137.76 24.14, 193.84 -39.52 M75.09 97.08 C116.48 46.89, 159.48 -2.72, 193.84 -39.52 M76.6 98.39 C116.2 53.55, 156.01 8.55, 195.35 -38.21 M76.6 98.39 C121.71 46.42, 167.26 -3.9, 195.35 -38.21 M78.77 98.95 C121.13 51.67, 159.15 6.84, 197.52 -37.65 M78.77 98.95 C112.42 59.69, 148.44 18.33, 197.52 -37.65 M80.28 100.26 C118.6 60.04, 156.81 17.56, 199.68 -37.1 M80.28 100.26 C119.91 51.73, 161.73 4.3, 199.68 -37.1 M81.79 101.57 C119.19 54.8, 160.48 8.7, 201.85 -36.54 M81.79 101.57 C121.58 52.71, 162.55 6.19, 201.85 -36.54 M83.95 102.13 C115.85 66.27, 144.9 34.39, 203.36 -35.23 M83.95 102.13 C111.92 67.86, 141.55 34.67, 203.36 -35.23 M85.46 103.44 C117.25 63.67, 152.37 28.78, 204.86 -33.92 M85.46 103.44 C123.04 61.41, 158.51 20.42, 204.86 -33.92 M87.63 104 C114.4 73.26, 143.6 37.73, 206.37 -32.6 M87.63 104 C111.93 75.08, 135.96 45.95, 206.37 -32.6 M89.14 105.31 C123.52 64.61, 156.19 25.56, 208.54 -32.05 M89.14 105.31 C119.36 70.21, 151.21 35.61, 208.54 -32.05 M90.65 106.62 C122.94 69.63, 157.94 31.71, 210.05 -30.73 M90.65 106.62 C122.61 69.45, 154.06 35.44, 210.05 -30.73 M92.81 107.18 C121.68 69.88, 150.67 38.66, 211.56 -29.42 M92.81 107.18 C133.21 58.3, 175.3 12.32, 211.56 -29.42 M94.32 108.49 C127.75 68.49, 164.6 28.35, 213.72 -28.86 M94.32 108.49 C126.9 68.75, 161.45 30.35, 213.72 -28.86 M95.83 109.8 C139.94 62.94, 178.76 13.3, 215.23 -27.55 M95.83 109.8 C120.55 81.02, 145.16 52.09, 215.23 -27.55 M98 110.36 C137.14 64.61, 177.68 19.66, 216.74 -26.24 M98 110.36 C124.15 80.9, 151.52 49.21, 216.74 -26.24 M99.51 111.67 C136.53 67.14, 171.52 25.16, 218.25 -24.93 M99.51 111.67 C137.78 64.57, 178.51 18.93, 218.25 -24.93 M101.02 112.99 C147.43 57.91, 194.76 4.6, 219.76 -23.62 M101.02 112.99 C141.8 66.48, 184.78 17.19, 219.76 -23.62 M103.18 113.54 C145.08 62.4, 190.85 13.54, 220.62 -21.55 M103.18 113.54 C141.03 71.32, 175.51 30.73, 220.62 -21.55 M104.69 114.86 C147.41 67.28, 191.93 16.55, 222.12 -20.24 M104.69 114.86 C148.66 65.69, 191.77 17.99, 222.12 -20.24 M106.2 116.17 C139.57 76.53, 175 34.01, 222.98 -18.17 M106.2 116.17 C148.33 64.57, 192.76 13.74, 222.98 -18.17 M108.36 116.73 C143.25 79.51, 178.87 38.15, 224.49 -16.86 M108.36 116.73 C136.54 83.68, 164.11 51.03, 224.49 -16.86 M109.87 118.04 C155.96 63.7, 200.98 14.64, 225.34 -14.79 M109.87 118.04 C140.96 82.24, 171.49 46.73, 225.34 -14.79 M111.38 119.35 C148.94 75.11, 187.03 33.72, 226.85 -13.48 M111.38 119.35 C141.83 83.2, 173.5 47.09, 226.85 -13.48 M113.55 119.91 C143.04 84.34, 172.94 51.07, 228.36 -12.17 M113.55 119.91 C156.31 68.09, 198.46 19.09, 228.36 -12.17 M115.71 120.46 C151.4 76.75, 191.94 31.53, 229.21 -10.1 M115.71 120.46 C158.04 73.27, 199.8 26.06, 229.21 -10.1 M117.88 121.02 C143.71 89.36, 172.08 58.08, 230.72 -8.79 M117.88 121.02 C162.26 69.47, 205.72 19.69, 230.72 -8.79 M120.05 121.58 C155.76 76.1, 195.01 34.79, 231.58 -6.72 M120.05 121.58 C158.87 76.27, 198.17 29.98, 231.58 -6.72 M122.21 122.14 C147.32 94.29, 172.09 65.06, 233.09 -5.41 M122.21 122.14 C151.33 89.68, 179.72 58.6, 233.09 -5.41 M124.38 122.69 C153.59 89.88, 183.47 53.69, 233.94 -3.34 M124.38 122.69 C160.02 82.6, 195.05 42.99, 233.94 -3.34 M126.54 123.25 C168.55 75.98, 207.95 29.39, 235.45 -2.03 M126.54 123.25 C168.87 73.74, 211.47 26.07, 235.45 -2.03 M129.36 123.05 C168 79.49, 207.38 34.57, 236.3 0.04 M129.36 123.05 C153.99 93.12, 179.38 64.09, 236.3 0.04 M131.53 123.61 C154.52 97.1, 177.09 67.44, 237.15 2.1 M131.53 123.61 C163.41 86.4, 196.49 48.18, 237.15 2.1 M134.35 123.41 C155.62 98.42, 177.52 75.49, 238.01 4.17 M134.35 123.41 C170.45 85.52, 202.56 45.41, 238.01 4.17 M136.52 123.97 C157.97 97.9, 184.03 72.33, 238.86 6.24 M136.52 123.97 C175.21 78.89, 214.44 34.58, 238.86 6.24 M139.34 123.77 C169.92 87.42, 203.92 52.68, 239.71 8.3 M139.34 123.77 C170.51 87.98, 203.76 51.63, 239.71 8.3 M141.5 124.33 C172.25 86.8, 204.57 50.78, 239.91 11.13 M141.5 124.33 C166.59 94.48, 191.76 65.89, 239.91 11.13 M144.32 124.13 C175.42 88.5, 203.68 53.35, 240.77 13.19 M144.32 124.13 C180.18 80.29, 218.47 38.2, 240.77 13.19 M147.15 123.94 C168.02 99.8, 190.45 74.24, 241.62 15.26 M147.15 123.94 C173.97 93.72, 198.58 65.93, 241.62 15.26 M149.97 123.74 C181.23 85.41, 216.92 47.85, 242.47 17.33 M149.97 123.74 C168.7 101.86, 188.41 80.85, 242.47 17.33 M152.79 123.54 C186.56 85.15, 218.12 49.8, 242.67 20.15 M152.79 123.54 C170.9 101.61, 189.13 79.99, 242.67 20.15 M155.61 123.35 C183.05 91.68, 211.28 59.54, 243.52 22.21 M155.61 123.35 C182.17 91.28, 210.55 59.68, 243.52 22.21 M158.43 123.15 C179.35 99.05, 200.5 78.48, 243.72 25.04 M158.43 123.15 C188.87 87.47, 219.93 52.64, 243.72 25.04 M161.25 122.95 C179.06 103.25, 197.69 83.32, 243.92 27.86 M161.25 122.95 C188.79 93.28, 215.37 62.6, 243.92 27.86 M164.08 122.75 C193.13 92.9, 220.36 57.54, 244.11 30.68 M164.08 122.75 C186.75 97.99, 206.96 73.38, 244.11 30.68 M166.9 122.56 C195.02 89.33, 223.84 58.49, 243.66 34.26 M166.9 122.56 C191.45 96.15, 214.51 67.87, 243.66 34.26 M169.72 122.36 C190.47 96.79, 209.51 72.93, 243.85 37.08 M169.72 122.36 C194.84 90.31, 222.45 60.06, 243.85 37.08 M173.2 121.41 C190.48 100.5, 205.36 82.02, 243.39 40.65 M173.2 121.41 C190.88 101.33, 208.74 81.24, 243.39 40.65 M177.33 119.7 C200.43 93.25, 224.08 64.54, 242.28 44.98 M177.33 119.7 C200.22 93.26, 221.27 69.39, 242.28 44.98 M181.46 117.99 C193.34 105.14, 206.7 89.36, 241.82 48.56 M181.46 117.99 C205.65 90.39, 228.06 62.61, 241.82 48.56 M185.6 116.29 C195.31 103.68, 209 88.54, 241.36 52.14 M185.6 116.29 C208.23 91.06, 228.96 65.38, 241.36 52.14 M189.73 114.58 C207.94 94.58, 227.18 72.29, 240.25 56.47 M189.73 114.58 C200.98 100.79, 212.87 86.64, 240.25 56.47 M193.21 113.63 C203.44 101.23, 210.71 92.53, 238.48 61.55 M193.21 113.63 C208.7 95.71, 224.58 78.11, 238.48 61.55 M198 111.17 C212.81 95.24, 226.92 78.87, 236.71 66.64 M198 111.17 C213.02 93.73, 225.63 77.38, 236.71 66.64 M205.41 105.69 C212.39 97.27, 218.54 87.54, 234.28 72.48 M205.41 105.69 C214.97 94.92, 225.32 82.65, 234.28 72.48 M212.17 100.96 C220.01 94.13, 226.11 82.69, 233.82 76.06 M212.17 100.96 C217.2 95.26, 222.75 87.78, 233.82 76.06" stroke="#d0bfff" stroke-width="0.25" fill="none"></path><path fill="#6741d9" d="M 0.42,0.73 Q 0.42,0.73 -1.95,2.08 -4.32,3.42 -5.55,4.02 -6.78,4.62 -7.55,4.83 -8.31,5.05 -9.06,4.91 -9.81,4.78 -11.12,3.99 -12.43,3.19 -13.92,2.40 -15.41,1.61 -16.99,0.79 -18.58,-0.02 -19.87,-0.75 -21.16,-1.49 -22.89,-2.55 -24.61,-3.62 -26.19,-4.76 -27.76,-5.89 -29.27,-7.18 -30.78,-8.48 -32.05,-9.65 -33.33,-10.82 -34.98,-12.25 -36.63,-13.68 -38.53,-15.15 -40.44,-16.62 -42.48,-17.98 -44.52,-19.34 -46.64,-20.54 -48.76,-21.73 -50.92,-22.75 -53.08,-23.78 -55.25,-24.63 -57.42,-25.48 -59.71,-26.32 -61.99,-27.15 -64.44,-27.87 -66.88,-28.60 -69.36,-29.15 -71.85,-29.70 -74.51,-30.18 -77.18,-30.67 -80.08,-31.09 -82.98,-31.52 -85.98,-31.75 -88.97,-31.98 -91.98,-31.91 -94.98,-31.83 -98.07,-31.50 -101.16,-31.17 -104.36,-30.57 -107.56,-29.96 -110.70,-29.04 -113.84,-28.11 -116.99,-26.84 -120.13,-25.56 -123.27,-24.03 -126.40,-22.49 -128.84,-21.10 -131.28,-19.71 -134.46,-17.33 -137.64,-14.95 -140.65,-12.28 -143.65,-9.61 -146.44,-6.50 -149.23,-3.40 -151.32,-0.77 -153.41,1.85 -156.02,5.39 -158.64,8.94 -160.98,12.45 -163.33,15.96 -165.13,18.87 -166.93,21.77 -168.79,25.15 -170.64,28.53 -172.49,32.85 -174.34,37.17 -175.49,40.59 -176.64,44.00 -177.49,47.93 -178.34,51.86 -178.82,56.10 -179.30,60.34 -179.50,64.79 -179.71,69.23 -179.60,73.67 -179.49,78.10 -179.13,82.51 -178.77,86.92 -178.13,91.01 -177.49,95.10 -176.59,99.04 -175.69,102.97 -174.53,106.84 -173.37,110.71 -171.89,114.35 -170.41,117.98 -168.69,121.25 -166.97,124.52 -164.96,127.58 -162.95,130.64 -160.74,133.29 -158.54,135.94 -156.07,138.13 -153.60,140.33 -149.77,142.84 -145.94,145.35 -143.70,146.66 -141.46,147.98 -138.09,149.06 -134.71,150.14 -130.51,150.35 -126.30,150.56 -123.75,150.48 -121.20,150.40 -117.78,149.63 -114.35,148.86 -109.63,147.12 -104.90,145.39 -100.39,143.27 -95.88,141.15 -91.49,138.64 -87.10,136.13 -79.46,131.27 -71.83,126.41 -66.85,123.18 -61.87,119.94 -58.00,117.33 -54.14,114.71 -49.75,111.91 -45.37,109.10 -39.75,105.80 -34.13,102.49 -30.76,100.61 -27.40,98.73 -21.16,95.69 -14.91,92.65 -10.33,90.62 -5.75,88.58 -2.06,87.16 1.62,85.75 5.54,84.54 9.46,83.34 13.49,82.50 17.51,81.66 21.48,81.23 25.45,80.80 29.18,80.77 32.91,80.73 36.61,81.09 40.31,81.45 43.92,82.13 47.53,82.81 50.99,83.90 54.45,84.99 57.20,86.15 59.95,87.32 63.65,89.34 67.34,91.35 70.62,93.31 73.89,95.26 77.01,97.18 80.14,99.10 82.66,100.71 85.18,102.33 88.72,104.73 92.26,107.13 95.61,109.31 98.95,111.49 102.47,113.32 105.99,115.16 108.93,116.43 111.88,117.70 116.07,118.90 120.27,120.10 125.10,120.93 129.94,121.76 133.47,122.17 137.01,122.57 140.95,122.64 144.89,122.71 149.85,122.52 154.81,122.33 157.73,122.20 160.64,122.07 165.24,121.49 169.84,120.92 175.94,118.92 182.04,116.93 185.51,115.59 188.99,114.24 192.95,112.05 196.90,109.85 200.92,107.33 204.94,104.81 208.13,102.60 211.32,100.40 214.69,97.25 218.06,94.10 221.21,90.37 224.36,86.64 226.70,83.40 229.03,80.16 231.56,75.15 234.09,70.13 235.97,65.30 237.85,60.48 239.13,55.59 240.41,50.71 241.15,46.83 241.89,42.95 242.15,37.73 242.41,32.52 241.91,27.13 241.42,21.74 240.14,16.50 238.87,11.25 237.67,7.54 236.48,3.82 234.40,-0.31 232.32,-4.46 231.03,-6.86 229.73,-9.25 227.34,-12.65 224.96,-16.05 221.31,-19.75 217.67,-23.45 212.61,-27.21 207.55,-30.98 202.73,-33.51 197.90,-36.04 193.78,-37.38 189.67,-38.72 185.72,-39.24 181.77,-39.75 178.59,-39.78 175.42,-39.80 172.54,-39.56 169.67,-39.33 166.06,-38.68 162.44,-38.04 158.47,-37.10 154.51,-36.16 150.52,-34.94 146.53,-33.73 142.50,-32.32 138.47,-30.91 134.53,-29.30 130.58,-27.68 125.93,-25.37 121.27,-23.05 115.66,-19.94 110.06,-16.82 106.33,-14.72 102.60,-12.63 98.36,-10.24 94.12,-7.86 91.66,-6.53 89.19,-5.19 85.61,-3.31 82.03,-1.42 79.87,-0.30 77.72,0.82 74.20,2.42 70.69,4.02 66.27,5.48 61.85,6.94 59.42,7.66 56.98,8.38 53.59,8.89 50.20,9.40 48.23,9.62 46.26,9.83 44.37,9.85 42.49,9.87 40.24,9.72 37.99,9.58 35.42,9.30 32.85,9.01 29.95,8.64 27.06,8.27 24.16,7.94 21.25,7.61 18.49,7.37 15.73,7.13 13.03,6.83 10.34,6.53 7.71,6.05 5.08,5.58 2.37,4.67 -0.33,3.76 -2.07,2.89 -3.80,2.01 -5.25,1.14 -6.69,0.27 -6.78,0.19 -6.87,0.10 -6.93,-0.00 -6.99,-0.11 -7.02,-0.24 -7.04,-0.36 -7.02,-0.49 -7.00,-0.61 -6.94,-0.73 -6.88,-0.84 -6.79,-0.93 -6.70,-1.02 -6.59,-1.07 -6.47,-1.13 -6.35,-1.14 -6.22,-1.16 -6.10,-1.13 -5.97,-1.11 -5.86,-1.04 -5.75,-0.98 -5.67,-0.88 -5.59,-0.79 -5.54,-0.67 -5.49,-0.55 -5.48,-0.42 -5.47,-0.30 -5.50,-0.17 -5.54,-0.05 -5.61,0.04 -5.68,0.15 -5.78,0.23 -5.88,0.31 -6.00,0.35 -6.12,0.39 -6.24,0.39 -6.37,0.39 -6.49,0.35 -6.61,0.32 -6.71,0.24 -6.82,0.16 -6.89,0.06 -6.96,-0.03 -7.00,-0.16 -7.03,-0.28 -7.03,-0.41 -7.02,-0.53 -6.98,-0.65 -6.93,-0.77 -6.85,-0.87 -6.77,-0.96 -6.66,-1.03 -6.55,-1.10 -6.43,-1.13 -6.31,-1.16 -6.18,-1.14 -6.05,-1.13 -5.94,-1.08 -5.82,-1.03 -5.82,-1.03 -5.82,-1.03 -4.52,-0.09 -3.21,0.84 -1.56,1.68 0.08,2.51 2.70,3.40 5.32,4.28 7.90,4.76 10.48,5.23 13.16,5.53 15.84,5.83 18.62,6.07 21.40,6.31 24.31,6.64 27.23,6.97 30.11,7.34 32.99,7.71 35.53,7.99 38.07,8.27 40.27,8.41 42.47,8.55 44.30,8.54 46.12,8.53 48.06,8.31 50.01,8.10 53.31,7.61 56.61,7.12 59.03,6.41 61.44,5.69 65.79,4.26 70.15,2.83 73.63,1.24 77.11,-0.34 79.26,-1.46 81.42,-2.58 84.99,-4.46 88.57,-6.34 91.02,-7.68 93.48,-9.01 97.72,-11.39 101.96,-13.77 105.69,-15.87 109.42,-17.97 115.05,-21.10 120.68,-24.23 125.38,-26.56 130.09,-28.90 134.06,-30.52 138.04,-32.15 142.09,-33.56 146.15,-34.98 150.17,-36.21 154.20,-37.44 158.21,-38.38 162.21,-39.33 165.89,-39.98 169.56,-40.64 172.49,-40.87 175.43,-41.11 178.68,-41.08 181.94,-41.06 186.01,-40.51 190.07,-39.97 194.29,-38.59 198.51,-37.21 203.42,-34.62 208.33,-32.04 213.47,-28.20 218.60,-24.37 222.32,-20.59 226.03,-16.80 228.46,-13.34 230.88,-9.88 232.19,-7.47 233.50,-5.05 235.61,-0.81 237.73,3.42 238.94,7.18 240.15,10.94 241.44,16.28 242.73,21.62 243.22,27.10 243.72,32.59 243.45,37.89 243.18,43.19 242.43,47.12 241.68,51.04 240.38,56.00 239.07,60.95 237.17,65.84 235.27,70.72 232.68,75.83 230.10,80.93 227.73,84.21 225.37,87.49 222.16,91.28 218.96,95.06 215.51,98.27 212.07,101.47 208.85,103.70 205.64,105.93 201.59,108.46 197.54,111.00 193.50,113.23 189.47,115.47 185.96,116.82 182.45,118.18 176.23,120.20 170.01,122.22 165.36,122.80 160.70,123.38 157.78,123.51 154.86,123.64 149.87,123.83 144.87,124.03 140.87,123.95 136.86,123.88 133.29,123.47 129.71,123.06 124.81,122.21 119.90,121.37 115.63,120.14 111.36,118.91 108.37,117.61 105.38,116.32 101.81,114.46 98.24,112.59 94.88,110.41 91.52,108.22 88.00,105.82 84.47,103.43 81.96,101.82 79.45,100.22 76.33,98.30 73.22,96.38 69.97,94.45 66.71,92.51 63.08,90.52 59.44,88.53 56.75,87.38 54.06,86.24 50.67,85.17 47.29,84.10 43.74,83.43 40.19,82.76 36.55,82.40 32.92,82.04 29.26,82.08 25.59,82.11 21.69,82.53 17.78,82.95 13.81,83.77 9.84,84.60 5.97,85.79 2.09,86.97 -1.56,88.38 -5.22,89.78 -9.78,91.81 -14.34,93.84 -20.55,96.86 -26.76,99.88 -30.11,101.75 -33.47,103.62 -39.07,106.92 -44.67,110.21 -49.03,113.01 -53.40,115.80 -57.28,118.42 -61.15,121.04 -66.14,124.28 -71.12,127.52 -78.78,132.40 -86.45,137.27 -90.88,139.81 -95.32,142.34 -99.88,144.48 -104.45,146.62 -109.26,148.38 -114.06,150.14 -117.61,150.92 -121.15,151.71 -123.76,151.79 -126.37,151.87 -130.74,151.63 -135.11,151.39 -138.62,150.25 -142.12,149.11 -144.39,147.78 -146.66,146.44 -150.56,143.88 -154.47,141.31 -157.01,139.05 -159.55,136.78 -161.80,134.07 -164.04,131.36 -166.09,128.25 -168.13,125.13 -169.88,121.81 -171.62,118.48 -173.13,114.79 -174.63,111.09 -175.80,107.18 -176.97,103.27 -177.88,99.28 -178.79,95.30 -179.43,91.16 -180.08,87.02 -180.44,82.58 -180.81,78.13 -180.91,73.65 -181.02,69.17 -180.81,64.68 -180.60,60.19 -180.11,55.89 -179.62,51.59 -178.75,47.58 -177.89,43.58 -176.72,40.12 -175.55,36.66 -173.67,32.28 -171.79,27.90 -169.92,24.49 -168.05,21.08 -166.24,18.16 -164.42,15.23 -162.06,11.70 -159.69,8.16 -157.06,4.60 -154.44,1.03 -152.32,-1.62 -150.21,-4.28 -147.36,-7.43 -144.52,-10.59 -141.48,-13.29 -138.43,-16.00 -135.18,-18.43 -131.93,-20.86 -129.46,-22.26 -126.98,-23.67 -123.80,-25.22 -120.63,-26.77 -117.42,-28.07 -114.21,-29.37 -111.01,-30.31 -107.80,-31.25 -104.55,-31.86 -101.30,-32.48 -98.16,-32.81 -95.01,-33.14 -91.94,-33.22 -88.87,-33.29 -85.83,-33.06 -82.79,-32.82 -79.87,-32.39 -76.94,-31.96 -74.25,-31.47 -71.57,-30.98 -69.04,-30.42 -66.51,-29.86 -64.02,-29.12 -61.54,-28.39 -59.24,-27.55 -56.94,-26.71 -54.72,-25.84 -52.51,-24.97 -50.31,-23.93 -48.11,-22.88 -45.95,-21.67 -43.78,-20.45 -41.70,-19.07 -39.63,-17.68 -37.69,-16.19 -35.75,-14.70 -34.08,-13.26 -32.41,-11.82 -31.15,-10.67 -29.89,-9.52 -28.42,-8.28 -26.95,-7.03 -25.40,-5.94 -23.86,-4.85 -22.15,-3.81 -20.45,-2.78 -19.16,-2.09 -17.88,-1.40 -16.27,-0.62 -14.66,0.16 -13.11,0.92 -11.55,1.68 -10.05,2.52 -8.55,3.36 -8.01,3.31 -7.46,3.26 -6.29,2.64 -5.12,2.03 -2.77,0.64 -0.42,-0.73 -0.33,-0.78 -0.23,-0.82 -0.13,-0.83 -0.03,-0.85 0.06,-0.84 0.17,-0.83 0.26,-0.80 0.36,-0.77 0.45,-0.71 0.54,-0.66 0.61,-0.58 0.68,-0.51 0.73,-0.42 0.78,-0.33 0.81,-0.23 0.84,-0.13 0.84,-0.03 0.85,0.06 0.83,0.16 0.81,0.27 0.76,0.36 0.72,0.45 0.65,0.53 0.59,0.61 0.50,0.67 0.42,0.73 0.42,0.73 L 0.42,0.73 Z"></path></g><g stroke-linecap="round"><g transform="translate(1208.8552747463145 97.4600261578885) rotate(0 50.51121244563518 0)"><path d="M-0.13 -1.16 C16.58 -0.9, 83.85 0.43, 100.86 0.69 M-1.66 0.84 C14.83 0.84, 82.61 -0.64, 99.82 -1.07" stroke="#1e1e1e" stroke-width="1" fill="none"></path></g><g transform="translate(1208.8552747463145 97.4600261578885) rotate(0 50.51121244563518 0)"><path d="M76.53 8.01 C82.77 4.6, 93.96 3.2, 99.82 -1.07 M76.53 8.01 C83.45 4.69, 92.66 1.29, 99.82 -1.07" stroke="#1e1e1e" stroke-width="1" fill="none"></path></g><g transform="translate(1208.8552747463145 97.4600261578885) rotate(0 50.51121244563518 0)"><path d="M76.14 -9.08 C82.39 -6.54, 93.72 -2, 99.82 -1.07 M76.14 -9.08 C83.31 -6.73, 92.65 -4.47, 99.82 -1.07" stroke="#1e1e1e" stroke-width="1" fill="none"></path></g></g><mask></mask><g stroke-linecap="round" transform="translate(1362.8527007244543 49.006993738193074) rotate(0 49.2969054635189 49.29690546351892)"><path d="M15.97 12.56 C15.97 12.56, 15.97 12.56, 15.97 12.56 M15.97 12.56 C15.97 12.56, 15.97 12.56, 15.97 12.56 M2.58 34.05 C10.29 26.98, 14.75 15.81, 25.55 7.63 M2.58 34.05 C11.48 25.04, 19.73 15.61, 25.55 7.63 M1.67 41.2 C14.39 27.13, 27.29 13.05, 35.78 1.95 M1.67 41.2 C11.85 30.79, 19.85 20.53, 35.78 1.95 M1.41 47.6 C14.2 32.2, 24.9 19.01, 40.77 2.31 M1.41 47.6 C16.27 28.46, 31.95 12.13, 40.77 2.31 M1.14 54 C10.54 42.41, 21.91 33.37, 45.76 2.67 M1.14 54 C16.38 34.86, 32.34 17.53, 45.76 2.67 M0.88 60.39 C12.89 49.61, 22.2 38.28, 50.74 3.03 M0.88 60.39 C13.55 47.5, 25.63 31.87, 50.74 3.03 M3.25 63.77 C24.88 39.8, 44.11 17.55, 56.39 2.64 M3.25 63.77 C18.86 44.38, 35.54 26.02, 56.39 2.64 M4.95 67.91 C16.05 54.14, 27.67 39.63, 61.37 3 M4.95 67.91 C25.99 45.67, 45.69 20.66, 61.37 3 M6.66 72.04 C20.31 56.31, 33.93 42.2, 66.36 3.36 M6.66 72.04 C22.68 54.57, 37.19 36.2, 66.36 3.36 M9.02 75.42 C22.09 59.88, 36.41 45.05, 70.04 5.23 M9.02 75.42 C29.55 52.06, 50.28 28.37, 70.04 5.23 M10.73 79.55 C33.93 54.45, 55.22 29.98, 73.05 7.85 M10.73 79.55 C27.03 60.01, 43.38 41.21, 73.05 7.85 M12.44 83.69 C36.39 57.62, 61.13 28.4, 76.73 9.72 M12.44 83.69 C30.47 61.62, 49.14 39.52, 76.73 9.72 M16.11 85.55 C33.98 64, 52.03 43.19, 79.75 12.35 M16.11 85.55 C35.84 62.89, 55.63 39.68, 79.75 12.35 M19.78 87.42 C40.9 63.57, 64.67 36.63, 83.42 14.22 M19.78 87.42 C37.33 67.89, 54.56 47.66, 83.42 14.22 M23.46 89.29 C48.84 58.4, 72.9 31.62, 87.1 16.09 M23.46 89.29 C42.34 67.1, 60.7 46.88, 87.1 16.09 M27.13 91.16 C39.8 74.47, 56.03 60.41, 88.8 20.22 M27.13 91.16 C42.1 72.5, 57.04 56.02, 88.8 20.22 M30.81 93.03 C48.39 72.13, 69.7 47.17, 91.17 23.6 M30.81 93.03 C44.98 75.13, 60.13 57.98, 91.17 23.6 M33.83 95.66 C46.52 82.48, 57.52 69.19, 92.87 27.73 M33.83 95.66 C50.75 76.14, 67.97 55.03, 92.87 27.73 M37.5 97.53 C58.48 72.62, 82.29 44.05, 94.58 31.87 M37.5 97.53 C56.35 76.41, 74.3 55.12, 94.58 31.87 M42.49 97.89 C60.07 74.79, 79.24 54.77, 96.94 35.25 M42.49 97.89 C55.47 82.89, 69.92 68.07, 96.94 35.25 M47.48 98.25 C58.44 85.2, 71.25 69.88, 98.65 39.38 M47.48 98.25 C58.45 86.27, 69.85 73.84, 98.65 39.38 M52.46 98.61 C63.34 87.43, 71.13 77.94, 98.39 45.78 M52.46 98.61 C63.15 85.78, 75.41 73.32, 98.39 45.78 M57.45 98.97 C68.72 85.04, 79.28 73.77, 98.13 52.18 M57.45 98.97 C70.94 84.73, 83.06 70.35, 98.13 52.18 M62.44 99.33 C73.74 84.47, 89.92 66.86, 97.87 58.57 M62.44 99.33 C74.16 85.11, 86.39 71.26, 97.87 58.57 M72.02 94.4 C78.77 83.22, 90.48 74.24, 98.26 64.22 M72.02 94.4 C80.62 84.71, 89.75 74.77, 98.26 64.22" stroke="#ffc9c9" stroke-width="0.5" fill="none"></path><path d="M38.42 0.55 C45.96 -2.18, 56.56 -1.21, 64.52 1.32 C72.48 3.86, 80.55 9.54, 86.18 15.76 C91.81 21.98, 96.53 30.83, 98.29 38.64 C100.05 46.46, 99.17 54.85, 96.76 62.67 C94.36 70.49, 89.88 79.77, 83.87 85.56 C77.86 91.34, 68.9 95.7, 60.7 97.38 C52.5 99.06, 42.71 97.93, 34.67 95.63 C26.62 93.32, 18.12 89.55, 12.43 83.56 C6.74 77.56, 2.21 67.89, 0.53 59.65 C-1.15 51.41, -0.19 41.92, 2.34 34.12 C4.87 26.32, 9.44 18.45, 15.72 12.84 C22.01 7.22, 35.52 2.23, 40.04 0.44 C44.56 -1.35, 42.69 1.36, 42.85 2.09 M47.16 -0.34 C54.75 -1.2, 64.22 2.72, 71.52 6.72 C78.82 10.72, 86.22 17.17, 90.94 23.68 C95.66 30.18, 99.47 37.92, 99.83 45.74 C100.18 53.56, 97.23 62.91, 93.06 70.61 C88.88 78.3, 81.74 87.22, 74.78 91.92 C67.81 96.63, 59.41 98.64, 51.28 98.84 C43.15 99.04, 33.05 97.01, 26.01 93.11 C18.98 89.21, 13.47 82.32, 9.09 75.42 C4.72 68.53, 0.39 59.84, -0.25 51.73 C-0.89 43.62, 1.61 33.88, 5.24 26.79 C8.87 19.69, 14.41 13.43, 21.52 9.15 C28.63 4.88, 43.55 2.71, 47.89 1.16 C52.24 -0.39, 47.64 -0.72, 47.6 -0.13" stroke="#e03131" stroke-width="1" fill="none"></path></g><g stroke-linecap="round" transform="translate(1514.5861185673607 28.502122183768392) rotate(0 67.7969054635189 67.7969054635189)"><path d="M19.08 20.56 C19.08 20.56, 19.08 20.56, 19.08 20.56 M19.08 20.56 C19.08 20.56, 19.08 20.56, 19.08 20.56 M4.38 43.56 C10.58 36.44, 18.35 29.15, 30.63 13.37 M4.38 43.56 C13.27 32.56, 20.87 22.84, 30.63 13.37 M3.47 50.71 C14.77 37.6, 24.51 24.98, 41.52 6.94 M3.47 50.71 C15.22 36.48, 28.14 21.68, 41.52 6.94 M2.55 57.87 C13.75 46.1, 27.27 30.5, 49.13 4.28 M2.55 57.87 C19.86 37.74, 37.77 17.72, 49.13 4.28 M2.29 64.26 C19.78 44.41, 34 25.67, 55.43 3.13 M2.29 64.26 C16.48 47, 30.63 30.65, 55.43 3.13 M1.37 71.42 C25.85 44.61, 47.22 18.91, 61.73 1.98 M1.37 71.42 C22.82 46.02, 45.44 19.83, 61.73 1.98 M1.11 77.81 C21.81 54.41, 41.76 31.98, 67.37 1.59 M1.11 77.81 C24.58 50.83, 47.6 25.25, 67.37 1.59 M2.81 81.95 C20.45 63.27, 33.02 43.96, 73.67 0.44 M2.81 81.95 C28.71 49.65, 56.91 20.22, 73.67 0.44 M3.86 86.84 C31.09 55.84, 58.37 26.69, 78.66 0.8 M3.86 86.84 C25.36 61.93, 48.29 36.48, 78.66 0.8 M5.57 90.97 C25.19 63.61, 46.74 40.29, 82.33 2.67 M5.57 90.97 C22.93 69.75, 42.43 49.38, 82.33 2.67 M7.28 95.1 C31.97 66.69, 55.64 38.3, 86.66 3.78 M7.28 95.1 C37.47 61.87, 65.71 28.72, 86.66 3.78 M8.33 99.99 C32.31 74.06, 53.92 45.34, 90.34 5.65 M8.33 99.99 C29.7 76.39, 51.73 51.99, 90.34 5.65 M10.04 104.12 C33.46 81.59, 54.65 56.27, 94.67 6.77 M10.04 104.12 C41.36 67.1, 72.02 32.84, 94.67 6.77 M13.05 106.75 C37.13 80.76, 59.79 55.18, 98.34 8.64 M13.05 106.75 C38.34 76.07, 63.37 46.85, 98.34 8.64 M16.07 109.37 C43.73 76.01, 73.41 40.28, 102.67 9.75 M16.07 109.37 C37.04 87.87, 55.35 66.36, 102.67 9.75 M18.44 112.75 C48.66 77.26, 78.98 44.4, 105.69 12.38 M18.44 112.75 C47.44 77.8, 78.03 43.12, 105.69 12.38 M21.45 115.38 C40.39 96.12, 55.9 74.67, 108.71 15 M21.45 115.38 C53.31 80.39, 85.18 44.95, 108.71 15 M24.47 118 C45.89 90.39, 71.61 65.65, 111.73 17.62 M24.47 118 C50.01 89.96, 75.66 59.56, 111.73 17.62 M27.49 120.62 C60.65 81.76, 92.67 47.28, 114.09 21 M27.49 120.62 C57.64 84.81, 89.17 50.21, 114.09 21 M30.51 123.25 C56.38 94.71, 80.23 63.16, 117.11 23.63 M30.51 123.25 C63.43 84.78, 95.66 49.29, 117.11 23.63 M34.19 125.12 C54.37 103.73, 73.61 80.74, 120.13 26.25 M34.19 125.12 C58.21 95.36, 83.65 66.92, 120.13 26.25 M37.86 126.99 C70.01 92.53, 100.89 54.05, 123.15 28.88 M37.86 126.99 C67.31 93.14, 97.96 58.08, 123.15 28.88 M42.19 128.1 C63.67 105.42, 81.34 84.03, 125.51 32.25 M42.19 128.1 C75.14 91.15, 108.27 51.98, 125.51 32.25 M46.52 129.22 C67.76 102.89, 89.81 80.77, 127.22 36.39 M46.52 129.22 C69.7 102.18, 92.62 74.13, 127.22 36.39 M50.2 131.09 C76.39 101.36, 102.37 73.89, 128.93 40.52 M50.2 131.09 C66.91 113.62, 83.19 94.85, 128.93 40.52 M54.53 132.2 C75.45 109.42, 97.79 82.29, 130.63 44.66 M54.53 132.2 C70.16 114.32, 86.82 93.89, 130.63 44.66 M58.2 134.07 C79.98 106, 106.12 77.03, 131.68 49.54 M58.2 134.07 C86.95 99.93, 115.29 67.16, 131.68 49.54 M62.53 135.19 C87.47 104.48, 114.73 76.29, 133.39 53.68 M62.53 135.19 C80.56 116.2, 97.54 95.51, 133.39 53.68 M68.83 134.04 C91.4 110.94, 109.4 88.13, 135.1 57.81 M68.83 134.04 C91.57 106.96, 114.7 81.15, 135.1 57.81 M74.48 133.64 C94.33 111.74, 114.39 89.21, 136.15 62.7 M74.48 133.64 C88.39 117.69, 103.95 100.93, 136.15 62.7 M80.78 132.49 C93.88 114.77, 109.68 99.91, 135.23 69.85 M80.78 132.49 C103.28 108.46, 123.92 83.2, 135.23 69.85 M86.42 132.1 C102.06 118.17, 115.91 101.65, 134.97 76.25 M86.42 132.1 C103.68 111.61, 121.66 91.93, 134.97 76.25 M93.37 130.19 C110.09 110.72, 126.88 94.51, 134.05 83.4 M93.37 130.19 C107.56 112.44, 123.4 95.67, 134.05 83.4 M105.58 122.25 C110.03 114.51, 118.76 108.34, 133.13 90.56 M105.58 122.25 C114.93 111.01, 125.02 100.36, 133.13 90.56" stroke="#a5d8ff" stroke-width="0.5" fill="none"></path><path d="M76.21 -0.42 C85.74 -0.29, 95.94 5.24, 104.13 10.56 C112.32 15.87, 120.11 23.13, 125.34 31.45 C130.58 39.77, 134.33 50.5, 135.54 60.47 C136.74 70.44, 135.93 82.09, 132.57 91.25 C129.21 100.41, 122.42 108.75, 115.37 115.45 C108.33 122.14, 99.37 128.21, 90.31 131.43 C81.26 134.66, 70.76 135.95, 61.04 134.79 C51.32 133.62, 40.55 129.53, 32.02 124.44 C23.48 119.35, 15.07 112.3, 9.82 104.27 C4.57 96.25, 1.6 86.12, 0.54 76.27 C-0.53 66.41, 0.34 54.39, 3.41 45.12 C6.48 35.86, 11.93 27.5, 18.97 20.68 C26.02 13.86, 35.19 7.31, 45.67 4.22 C56.14 1.12, 74.83 1.93, 81.82 2.09 C88.8 2.26, 87.64 4.08, 87.57 5.2 M83.08 1.83 C92.43 3.24, 103.12 10.45, 110.7 16.53 C118.28 22.61, 124.62 29.68, 128.56 38.32 C132.49 46.95, 134.44 58.09, 134.31 68.33 C134.18 78.57, 132.25 90.68, 127.77 99.73 C123.28 108.78, 115.15 116.76, 107.41 122.63 C99.66 128.51, 90.76 133.38, 81.3 134.98 C71.84 136.57, 60.37 134.62, 50.64 132.21 C40.9 129.8, 30.17 126.46, 22.87 120.51 C15.56 114.56, 10.82 105.68, 6.8 96.53 C2.78 87.38, -1.46 75.26, -1.23 65.59 C-0.99 55.91, 3.57 47.23, 8.2 38.48 C12.83 29.74, 18.94 19.35, 26.57 13.1 C34.2 6.85, 44.39 2.63, 54.01 0.98 C63.62 -0.67, 79.29 2.66, 84.25 3.21 C89.22 3.75, 84.24 3.19, 83.79 4.24" stroke="#1971c2" stroke-width="1" fill="none"></path></g></svg>