<?xml version="1.0" encoding="UTF-8" standalone="no"?>
<svg xmlns="http://www.w3.org/2000/svg" width="800" height="640">

<!-- Fission yields for thermal neutrons  Atomic number = x+70  Yield percent = y/10 -->

<g transform="scale(8)">

<text x="75" y="29" text-anchor="left" font-size="4pt" fill="red">U-235</text>
<text x="03" y="19" text-anchor="left" font-size="4pt" fill="green">U-233</text>
<text x="35" y="19" text-anchor="right" font-size="4pt" fill="blue">Pu-239</text>
<text x="45" y="29" text-anchor="right" font-size="4pt" fill="black">65%U</text>
<text x="45" y="34" text-anchor="right" font-size="4pt" fill="black">35%Pu</text>

<text x="10" y="79" text-anchor="middle" font-size="4pt">80</text>
<text x="20" y="79" text-anchor="middle" font-size="4pt">90</text>
<text x="20" y="05" text-anchor="middle" font-size="4pt">90</text>
<text x="30" y="05" text-anchor="middle" font-size="4pt">100</text>
<text x="40" y="79" text-anchor="middle" font-size="4pt">110</text>
<text x="50" y="79" text-anchor="middle" font-size="4pt">120</text>
<text x="60" y="05" text-anchor="middle" font-size="4pt">130</text>
<text x="70" y="05" text-anchor="middle" font-size="4pt">140</text>
<text x="80" y="79" text-anchor="middle" font-size="4pt">150</text>
<text x="90" y="79" text-anchor="middle" font-size="4pt">160</text>

<text x="95" y="22" text-anchor="middle" font-size="4pt">6%</text>
<text x="95" y="42" text-anchor="middle" font-size="4pt">4%</text>
<text x="95" y="62" text-anchor="middle" font-size="4pt">2%</text>

<text x="5" y="12" text-anchor="middle" font-size="4pt">7%</text>
<text x="5" y="32" text-anchor="middle" font-size="4pt">5%</text>
<text x="5" y="52" text-anchor="middle" font-size="4pt">3%</text>
<text x="5" y="72" text-anchor="middle" font-size="4pt">1%</text>

<text x="20" y="10" text-anchor="middle" font-size="2pt">Sr</text>
<text x="23" y="9" text-anchor="middle" font-size="2pt">Zr</text>
<text x="29" y="11" text-anchor="middle" font-size="2pt">Tc</text>
<text x="37" y="61" text-anchor="middle" font-size="1pt">Pd</text>
<text x="56" y="74" text-anchor="middle" font-size="1pt">Sn</text>
<text x="57.5" y="55.5" text-anchor="middle" font-size="1pt">129</text>
<text x="59" y="57" text-anchor="middle" font-size="2pt">I</text>
<text x="65" y="22" text-anchor="middle" font-size="2pt">Cs</text>
<text x="67" y="24" text-anchor="middle" font-size="2pt">Cs</text>
<text x="81" y="70" text-anchor="middle" font-size="1pt">Sm</text>

<g transform="scale(1,-1) translate(0,-80)">

<g style="stroke:rgb(99,99,99);stroke-width:.1">
<line x1="09" y1="10" x2="88" y2="10"/>
<line x1="09" y1="20" x2="88" y2="20"/>
<line x1="11" y1="30" x2="82" y2="30"/>
<line x1="13" y1="40" x2="88" y2="40"/>
<line x1="11" y1="50" x2="78" y2="50"/>
<line x1="13" y1="60" x2="88" y2="60"/>
<line x1="13" y1="70" x2="78" y2="70"/>

<line x1="10" y1="0" x2="10" y2="22"/>
<line x1="20" y1="0" x2="20" y2="74"/>
<line x1="30" y1="5" x2="30" y2="74"/>
<line x1="40" y1="0" x2="40" y2="52"/>
<line x1="50" y1="0" x2="50" y2="08"/>
<line x1="60" y1="0" x2="60" y2="74"/>
<line x1="70" y1="27" x2="70" y2="74"/>
<line x1="80" y1="0" x2="80" y2="42"/>
<line x1="90" y1="0" x2="90" y2="05"/>

<line x1="05" y1="00" x2="05" y2="02"/>
<line x1="15" y1="00" x2="15" y2="72"/>
<line x1="25" y1="18" x2="25" y2="72"/>
<line x1="35" y1="00" x2="35" y2="72"/>
<line x1="45" y1="00" x2="45" y2="02"/>
<line x1="55" y1="00" x2="55" y2="23"/>
<line x1="65" y1="27" x2="65" y2="78"/>
<line x1="75" y1="08" x2="75" y2="72"/>
<line x1="85" y1="00" x2="85" y2="04"/>
</g>

<g style="stroke-width:.5">
<polyline id="65-35" style="fill:black;stroke:black;fill-opacity:0.0;stroke-width:.6" points="
0,0.00007 1,0.00014 2,0.000519 3,0.001115 4,0.002295 5,0.01205 6,0.0303 7,0.0765 8,0.203   9,0.4465 
10,1.16   11,1.93   12,2.78   13,4.5235 14,8.18   15,10.5825 16,15.486 17,20.14  18,27.925 19,36.765 
20,45.05  21,46.61  22,49.665 23,54.575 24,57.175 25,59.12   26,58.065 27,57.9   28,57.935 29,61.385 
30,64.685 31,54.8   32,49.3   33,44.195 34,33.57  35,25.84   36,18.013 37,12.499 38,8.051  39,5.4515 
40,2.4375 41,1.1631 42,0.536  43,0.378  44,0.2867 45,0.2324  46,0.263  47,0.2385 48,0.1835 49,0.1965 
50,0.193  51,0.2175 52,0.255  53,0.24205 54,0.4555 55,0.606  56,1.0835 57,2.8055 58,4.725  59,8.41 
60,20.165 61,32.295 62,46.95  63,68.12  64,78.035  65,69.11  66,65.93  67,63.37  68,65.355 69,61.265 
70,59.33  71,55.9   72,55.28  73,54.175 74,48.84  75,36.01   76,28.11  77,21.625 78,16.595 79,11.29 
80,7.629  81,5.3135 82,3.7655 83,2.287  84,1.391  85,0.803 86,0.53085  87,0.2993 88,0.16145 89,0.08 
90,0.03695 91,0.0173525 92,0.00783 93,0.00315 94,0.00105 95,0.000455 96,0.000245 97,0.0000525"/>

<polyline id="U-233" style="fill:green;fill-opacity:0.1;stroke:green;stroke-width:.2" points="
0,0.0004 1,0.002 2,0.004 3,0.012 4,0.03 5,0.08  6,0.14  7,0.26  8,0.5   9,1.4 
10,2.3  11,3.7  12,5.9  13,10.1 14,16.9 15,22.4 16,28.4 17,40   18,55   19,63 
20,68   21,65   22,66   23,70   24,68   25,63   26,57   27,55   28,52   29,49 
30,45   31,31.7 32,24   33,15.7 34,9.8  35,5    36,2.46 37,1.15 38,0.76 39,0.4 
40,0.39 41,0.22 42,0.13 43,0.14 44,0.13 45,0.15 46,0.13 47,0.14 48,0.15 49,0.19 
50,0.22 51,0.23 52,0.41 53,0.6  54,0.7  55,1.2  56,2.3  57,6    58,8    59,16 
60,21   61,36   62,49.5 63,60   64,63.1 65,63   66,69   67,67.6 68,59   69,63 
70,64   71,65   72,67   73,59.7 74,47.3 75,34.4 76,25.9 77,17.4 78,13   79,7.8 
80,5.1  81,3.2  82,2.1  83,1    84,0.47 85,0.21 86,0.13 87,0.06 88,0.021 89,0.009 
90,0.003 91,0.0012 92,0.001 93,0 94,0   95,0    96,0    97,0"/>

<polyline id="Pu-239" style="fill:blue;stroke:blue;fill-opacity:0.1;stroke-width:.2" points="
0,0.0002 1,0.0004 2,0.001 3,0.003 4,0.006 5,0.014 6,0.029 7,0.07 8,0.19 9,0.44 
10,0.9  11,1.8  12,2    13,2.97 14,4.8  15,5.74 16,7.66 17,10   18,13.3 19,17.2 
20,21   21,24.9 22,30.1 23,38   24,43.2 25,48.2 26,48.9 27,54   28,58   29,62.1 
30,68   31,60   32,61   33,70   34,61   35,56   36,44   37,33   38,22   39,15 
40,6.5  41,3    42,1.29 43,0.82 44,0.6  45,0.43 46,0.51 47,0.44 48,0.32 49,0.32 
50,0.31 51,0.38 52,0.45 53,0.4  54,0.8  55,1.1  56,2    57,5.1  58,7    59,14 
60,24   61,38.6 62,54.1 63,70.2 64,76.8 65,76   66,71   67,66.1 68,61   69,56 
70,54   71,52   72,49.3 73,44.1 74,37.4 75,29.9 76,24.6 77,20   78,16.4 79,12.2 
80,9.67 81,7.4  82,5.8  83,3.6  84,2.6  85,1.7  86,1.24 87,0.74 88,0.4  89,0.21 
90,0.1 91,0.048 92,0.022 93,0.009 94,0.003 95,0.0013 96,0.0007 97,0.00015"/>

<polyline id="U-235" style="fill:red;stroke:red;fill-opacity:0.1;stroke-width:.2" points="
0,0     1,0     2,0.00026 3,0.0001 4,0.0003 5,0.011  6,0.031  7,0.08  8,0.21  9,0.45 
10,1.3  11,2     12,3.2   13,5.36  14,10    15,13.19 16,19.7  17,25.6 18,35.8 19,47.3 
20,58   21,58.3  22,60.2  23,63.5  24,64.7  25,65    26,63    27,60   28,57.9 29,61 
30,62.9 31,52    32,43    33,30.3  34,18.8  35,9.6   36,4.02  37,1.46 38,0.54 39,0.31 
40,0.25 41,0.174 42,0.13  43,0.14  44,0.118 45,0.126 46,0.13  47,0.13 48,0.11 49,0.13 
50,0.13 51,0.13  52,0.15  53,0.157 54,0.27  55,0.34  56,0.59  57,1.57 58,3.5  59,5.4 
60,18.1 61,28.9  62,43.1  63,67    64,78.7  65,65.4  66,63.2  67,61.9 68,67.7 69,64.1 
70,62.2 71,58    72,58.5  73,59.6  74,55    75,39.3  76,30    77,22.5 78,16.7 79,10.8 
80,6.53 81,4.19  82,2.67  83,1.58  84,0.74  85,0.32  86,0.149 87,0.062 88,0.033 89,0.01 
90,0.003 91,0.00085 92,0.0002 93,0 94,0    95,0     96,0     97,0"/>
</g>
</g>
</g>
</svg>
