<svg version="1.1" xmlns="http://www.w3.org/2000/svg" viewBox="0 0 545.2052059354722 518.953952144012" width="545.2052059354722" height="518.953952144012" filter="invert(93%) hue-rotate(180deg)" class="excalidraw-svg">
  <!-- svg-source:excalidraw -->
  
  <defs>
    <style class="style-fonts">
      
    </style>
    
  </defs>
  <rect x="0" y="0" width="545.2052059354722" height="518.953952144012" fill="transparent"></rect><g transform="translate(210.67524636744315 73.40440169155602) rotate(0 13 13.25)" stroke="none"><path fill="#1e1e1e" d="M 1.14,0.85 Q 1.14,0.85 0.74,1.43 0.34,2.00 -0.09,3.97 -0.52,5.94 0.22,7.93 0.97,9.92 1.78,10.91 2.60,11.90 3.77,12.08 4.95,12.26 6.54,11.72 8.12,11.18 10.35,9.88 12.57,8.59 14.58,6.55 16.59,4.51 17.58,3.25 18.58,1.98 19.62,-1.30 20.66,-4.60 20.46,-5.95 20.26,-7.29 19.23,-7.61 18.20,-7.93 16.60,-7.33 15.00,-6.73 12.93,-5.30 10.85,-3.87 8.71,-1.61 6.58,0.64 4.70,3.54 2.82,6.44 1.92,8.69 1.02,10.95 1.16,12.79 1.29,14.63 1.93,15.14 2.57,15.64 4.43,15.21 6.30,14.78 8.59,13.46 10.88,12.13 13.27,10.05 15.67,7.97 17.84,5.67 20.02,3.38 22.10,0.97 24.19,-1.42 25.23,-2.60 26.27,-3.79 26.64,-4.33 27.02,-4.86 27.08,-5.17 27.14,-5.47 27.26,-5.61 27.39,-5.75 27.54,-5.86 27.70,-5.97 27.87,-6.04 28.05,-6.10 28.23,-6.13 28.42,-6.15 28.61,-6.13 28.80,-6.11 28.97,-6.04 29.15,-5.98 29.30,-5.87 29.46,-5.77 29.59,-5.63 29.71,-5.49 29.80,-5.32 29.89,-5.15 29.94,-4.97 29.98,-4.79 29.98,-4.60 29.98,-4.41 29.94,-4.23 29.90,-4.04 29.81,-3.88 29.72,-3.71 29.37,-2.93 29.02,-2.15 28.13,-0.20 27.24,1.75 25.85,4.61 24.45,7.48 22.88,10.97 21.30,14.46 19.79,18.23 18.27,22.00 17.07,25.58 15.88,29.17 14.67,32.60 13.47,36.03 13.43,36.13 13.39,36.23 13.32,36.31 13.26,36.39 13.17,36.45 13.08,36.50 12.97,36.53 12.87,36.55 12.76,36.54 12.66,36.53 12.56,36.49 12.46,36.44 12.38,36.37 12.31,36.30 12.26,36.21 12.20,36.11 12.19,36.01 12.17,35.90 12.18,35.80 12.20,35.69 12.25,35.60 12.30,35.51 12.37,35.43 12.45,35.36 12.54,35.31 12.64,35.27 12.74,35.25 12.85,35.24 12.95,35.26 13.06,35.28 13.15,35.34 13.24,35.39 13.31,35.47 13.38,35.55 13.42,35.65 13.46,35.75 13.47,35.85 13.48,35.96 13.45,36.06 13.42,36.16 13.36,36.25 13.31,36.34 13.22,36.41 13.14,36.47 13.04,36.51 12.94,36.54 12.83,36.54 12.73,36.54 12.63,36.51 12.52,36.48 12.44,36.42 12.35,36.35 12.29,36.27 12.23,36.18 12.20,36.08 12.17,35.98 12.18,35.87 12.18,35.76 12.18,35.76 12.18,35.76 12.47,31.94 12.75,28.11 14.01,24.45 15.27,20.78 16.84,16.97 18.41,13.15 20.02,9.63 21.64,6.10 23.02,3.28 24.40,0.45 25.29,-1.50 26.19,-3.47 26.66,-4.47 27.14,-5.47 27.26,-5.61 27.39,-5.75 27.54,-5.86 27.70,-5.97 27.87,-6.04 28.05,-6.10 28.23,-6.13 28.42,-6.15 28.61,-6.13 28.80,-6.11 28.97,-6.04 29.15,-5.98 29.30,-5.87 29.46,-5.77 29.59,-5.63 29.71,-5.49 29.80,-5.32 29.89,-5.15 29.94,-4.97 29.98,-4.79 29.98,-4.60 29.98,-4.41 29.94,-4.23 29.90,-4.04 29.81,-3.88 29.72,-3.71 29.70,-3.46 29.67,-3.22 29.17,-2.46 28.66,-1.70 27.63,-0.53 26.60,0.64 24.50,3.13 22.39,5.61 20.12,8.05 17.84,10.48 15.18,12.77 12.51,15.06 9.66,16.57 6.81,18.09 4.03,18.26 1.25,18.42 -0.25,16.95 -1.76,15.47 -1.94,12.66 -2.11,9.84 -1.05,7.23 0.00,4.61 2.07,1.47 4.14,-1.67 6.56,-4.16 8.97,-6.66 11.51,-8.30 14.06,-9.95 16.56,-10.48 19.07,-11.02 20.94,-9.96 22.80,-8.91 23.33,-6.33 23.87,-3.76 22.56,0.12 21.25,4.01 20.11,5.45 18.96,6.89 16.61,9.19 14.27,11.49 11.65,12.95 9.04,14.42 6.69,14.96 4.34,15.51 2.34,14.87 0.33,14.22 -0.92,12.60 -2.17,10.98 -2.91,8.18 -3.65,5.37 -2.86,2.83 -2.06,0.29 -1.60,-0.28 -1.14,-0.85 -1.02,-0.98 -0.90,-1.10 -0.76,-1.19 -0.61,-1.29 -0.45,-1.34 -0.28,-1.40 -0.11,-1.41 0.05,-1.42 0.22,-1.40 0.39,-1.37 0.55,-1.30 0.71,-1.23 0.85,-1.13 0.98,-1.03 1.09,-0.89 1.20,-0.76 1.28,-0.60 1.35,-0.45 1.39,-0.28 1.42,-0.11 1.41,0.05 1.41,0.22 1.36,0.39 1.31,0.55 1.23,0.70 1.14,0.85 1.14,0.85 L 1.14,0.85 Z"></path></g><g transform="translate(253.17524636744315 100.90440169155602) rotate(0 0.25 0.25)" stroke="none"><path fill="#1e1e1e" d="M -1.07,-0.71 Q -1.07,-0.71 -0.74,-1.36 -0.42,-2.01 0.89,-1.92 2.21,-1.83 2.56,-1.36 2.91,-0.90 2.86,0.05 2.82,1.00 1.26,0.87 -0.29,0.75 -0.32,0.82 -0.34,0.90 -0.38,0.97 -0.42,1.03 -0.47,1.09 -0.53,1.15 -0.60,1.19 -0.66,1.23 -0.74,1.25 -0.82,1.28 -0.89,1.28 -0.97,1.29 -1.05,1.27 -1.13,1.26 -1.20,1.23 -1.27,1.20 -1.34,1.15 -1.40,1.10 -1.45,1.04 -1.50,0.98 -1.53,0.90 -1.56,0.83 -1.58,0.75 -1.59,0.68 -1.59,0.60 -1.59,0.52 -1.59,0.60 -1.59,0.67 -1.58,0.57 -1.57,0.46 -1.53,0.37 -1.49,0.27 -1.41,0.19 -1.34,0.11 -1.25,0.06 -1.15,0.01 -1.05,-0.00 -0.94,-0.01 -0.84,-0.00 -0.73,0.01 -0.64,0.06 -0.55,0.11 -0.47,0.18 -0.40,0.26 -0.35,0.36 -0.31,0.45 -0.30,0.56 -0.28,0.66 -0.30,0.77 -0.33,0.87 -0.38,0.96 -0.44,1.05 -0.52,1.12 -0.60,1.19 -0.69,1.23 -0.79,1.27 -0.90,1.28 -1.00,1.29 -1.11,1.26 -1.21,1.23 -1.30,1.17 -1.39,1.11 -1.45,1.03 -1.52,0.94 -1.55,0.84 -1.59,0.74 -1.59,0.64 -1.59,0.53 -1.55,0.43 -1.52,0.33 -1.46,0.24 -1.39,0.16 -1.31,0.10 -1.22,0.04 -1.12,0.01 -1.02,-0.01 -0.91,-0.01 -0.80,-0.00 -0.70,0.03 -0.60,0.07 -0.52,0.14 -0.44,0.20 -0.39,0.29 -0.33,0.38 -0.31,0.56 -0.29,0.75 -0.32,0.82 -0.34,0.90 -0.38,0.97 -0.42,1.03 -0.47,1.09 -0.53,1.15 -0.60,1.19 -0.66,1.23 -0.74,1.25 -0.82,1.28 -0.89,1.28 -0.97,1.29 -1.05,1.27 -1.13,1.26 -1.20,1.23 -1.27,1.20 -1.34,1.15 -1.40,1.10 -1.45,1.04 -1.50,0.98 -1.53,0.90 -1.56,0.83 -1.58,0.75 -1.59,0.68 -1.59,0.60 -1.59,0.52 -0.79,0.23 0.00,-0.04 0.78,0.12 1.57,0.28 1.32,0.50 1.07,0.71 0.97,0.83 0.87,0.95 0.74,1.04 0.61,1.13 0.47,1.18 0.32,1.24 0.17,1.26 0.02,1.28 -0.13,1.27 -0.28,1.25 -0.43,1.20 -0.58,1.15 -0.71,1.06 -0.83,0.97 -0.94,0.86 -1.04,0.74 -1.12,0.61 -1.19,0.47 -1.23,0.32 -1.27,0.17 -1.27,0.02 -1.28,-0.13 -1.24,-0.28 -1.21,-0.43 -1.14,-0.57 -1.07,-0.71 -1.07,-0.71 L -1.07,-0.71 Z"></path></g><g transform="translate(270.5560698568863 421.5583509579653) rotate(0 8.5 -1.8592997171044914)" stroke="none"><path fill="#1e1e1e" d="M 1.25,0.26 Q 1.25,0.26 1.12,0.93 0.98,1.59 1.08,2.29 1.18,2.99 1.83,3.60 2.48,4.20 3.35,4.71 4.22,5.21 5.16,5.40 6.11,5.58 7.81,5.41 9.51,5.23 10.99,4.67 12.47,4.11 13.40,3.31 14.33,2.50 15.23,1.07 16.13,-0.35 16.63,-1.92 17.13,-3.49 17.31,-4.17 17.49,-4.86 15.73,-6.12 13.97,-7.37 12.38,-7.53 10.80,-7.69 9.18,-6.93 7.57,-6.17 5.91,-4.87 4.25,-3.56 3.04,-1.91 1.84,-0.27 1.07,1.39 0.30,3.07 -0.24,4.62 -0.79,6.18 -0.81,6.29 -0.84,6.39 -0.89,6.48 -0.95,6.57 -1.03,6.64 -1.11,6.71 -1.21,6.75 -1.31,6.78 -1.41,6.79 -1.52,6.79 -1.62,6.76 -1.72,6.74 -1.81,6.68 -1.90,6.62 -1.96,6.53 -2.03,6.44 -2.06,6.34 -2.09,6.24 -2.09,6.14 -2.09,6.03 -2.06,5.93 -2.02,5.83 -1.96,5.75 -1.89,5.66 -1.80,5.60 -1.72,5.54 -1.61,5.52 -1.51,5.49 -1.40,5.49 -1.30,5.50 -1.20,5.54 -1.10,5.58 -1.02,5.65 -0.94,5.72 -0.89,5.81 -0.83,5.90 -0.81,6.01 -0.79,6.11 -0.80,6.22 -0.81,6.32 -0.86,6.42 -0.90,6.51 -0.98,6.59 -1.05,6.67 -1.14,6.72 -1.24,6.77 -1.34,6.78 -1.45,6.80 -1.55,6.78 -1.66,6.76 -1.75,6.71 -1.85,6.66 -1.92,6.58 -1.99,6.51 -2.03,6.41 -2.08,6.31 -2.09,6.21 -2.10,6.10 -2.10,6.10 -2.10,6.10 -2.42,3.91 -2.74,1.73 -1.77,-0.26 -0.81,-2.26 0.70,-4.22 2.22,-6.17 4.27,-7.69 6.32,-9.20 8.69,-10.04 11.06,-10.88 13.45,-10.41 15.84,-9.94 18.00,-7.82 20.17,-5.70 20.14,-4.10 20.10,-2.49 19.41,-0.57 18.72,1.34 17.50,3.10 16.27,4.86 14.91,5.90 13.54,6.94 11.65,7.58 9.77,8.21 7.61,8.33 5.45,8.45 4.07,8.07 2.70,7.69 1.49,6.86 0.28,6.03 -0.56,4.75 -1.42,3.48 -1.49,2.28 -1.56,1.07 -1.40,0.40 -1.25,-0.26 -1.20,-0.41 -1.15,-0.56 -1.06,-0.69 -0.98,-0.81 -0.87,-0.92 -0.75,-1.03 -0.62,-1.10 -0.48,-1.18 -0.34,-1.22 -0.19,-1.26 -0.03,-1.27 0.11,-1.27 0.26,-1.24 0.41,-1.20 0.55,-1.14 0.69,-1.07 0.81,-0.97 0.93,-0.87 1.02,-0.75 1.11,-0.62 1.17,-0.48 1.23,-0.34 1.25,-0.19 1.27,-0.03 1.26,0.11 1.25,0.26 1.25,0.26 L 1.25,0.26 Z"></path></g><g transform="translate(294.0560698568863 414.5859770188234) rotate(0 -6.75 19.987471958873307)" stroke="none"><path fill="#1e1e1e" d="M 1.38,0.54 Q 1.38,0.54 0.27,3.49 -0.83,6.45 -1.99,10.07 -3.16,13.70 -4.66,18.20 -6.16,22.71 -7.52,26.76 -8.88,30.81 -10.60,34.61 -12.32,38.41 -12.37,38.51 -12.42,38.60 -12.49,38.68 -12.57,38.75 -12.66,38.80 -12.76,38.85 -12.86,38.86 -12.97,38.87 -13.07,38.85 -13.18,38.83 -13.27,38.78 -13.36,38.73 -13.43,38.65 -13.50,38.57 -13.55,38.47 -13.59,38.37 -13.60,38.27 -13.60,38.16 -13.58,38.06 -13.55,37.96 -13.49,37.87 -13.44,37.78 -13.35,37.71 -13.27,37.64 -13.17,37.61 -13.07,37.57 -12.97,37.57 -12.86,37.57 -12.76,37.60 -12.66,37.63 -12.57,37.69 -12.48,37.75 -12.42,37.84 -12.36,37.93 -12.33,38.03 -12.30,38.13 -12.30,38.24 -12.31,38.34 -12.34,38.44 -12.38,38.54 -12.45,38.63 -12.51,38.71 -12.60,38.76 -12.69,38.82 -12.80,38.85 -12.90,38.87 -13.01,38.86 -13.11,38.85 -13.21,38.81 -13.31,38.77 -13.38,38.70 -13.46,38.63 -13.52,38.53 -13.57,38.44 -13.59,38.34 -13.61,38.23 -13.59,38.13 -13.58,38.02 -13.58,38.02 -13.58,38.02 -12.83,33.88 -12.08,29.73 -10.71,25.68 -9.34,21.63 -7.80,17.15 -6.26,12.67 -5.01,8.99 -3.76,5.30 -2.57,2.38 -1.38,-0.54 -1.29,-0.69 -1.21,-0.85 -1.09,-0.98 -0.97,-1.12 -0.82,-1.22 -0.67,-1.32 -0.50,-1.38 -0.34,-1.44 -0.16,-1.46 0.01,-1.48 0.19,-1.46 0.37,-1.43 0.53,-1.37 0.70,-1.30 0.84,-1.20 0.99,-1.10 1.11,-0.96 1.23,-0.83 1.31,-0.67 1.39,-0.51 1.43,-0.33 1.47,-0.16 1.47,0.01 1.47,0.19 1.42,0.36 1.38,0.54 1.38,0.54 L 1.38,0.54 Z"></path></g><g stroke-linecap="round"><g transform="translate(254.17524636744315 34.40440169155602) rotate(0 -4.25 237.75)"><path d="M0.92 -0.2 C-0.55 78.81, -6.39 395.22, -8.08 474.55" stroke="#1e1e1e" stroke-width="1" fill="none" stroke-dasharray="8 8.5"></path></g></g><mask></mask><g stroke-linecap="round" transform="translate(11.219402545886965 191.4252219574996) rotate(358.79395122078006 243.84567763284483 73.09572728868395)"><path d="M305 18.5 C332.98 24.88, 358.56 34.96, 426.69 55.5 M305 18.5 C334.98 27.18, 364.25 36.6, 426.69 55.5 M426.69 55.5 C485.9 74.16, 487.88 75.09, 426.69 92.5 M426.69 55.5 C486.37 72.44, 489.07 74.45, 426.69 92.5 M426.69 92.5 C378.03 105.56, 330.8 121.08, 305 127.69 M426.69 92.5 C395.95 99.52, 365.66 110.09, 305 127.69 M305 127.69 C244.91 145.87, 242.8 146.75, 183 127.69 M305 127.69 C246.06 144.23, 246.12 147.08, 183 127.69 M183 127.69 C143.16 115.86, 105.51 103.66, 61 92.5 M183 127.69 C134.24 114.34, 85.95 99.76, 61 92.5 M61 92.5 C0.48 75.81, -1.66 73.17, 61 55.5 M61 92.5 C0.72 76.07, -0.52 73.58, 61 55.5 M61 55.5 C104.13 42.98, 142.22 30.01, 183 18.5 M61 55.5 C100.18 45.2, 138.96 31.96, 183 18.5 M183 18.5 C243.48 1.65, 245.41 1.01, 305 18.5 M183 18.5 C244.5 -1.36, 242.07 -1.48, 305 18.5" stroke="#1e1e1e" stroke-width="0.5" fill="none"></path></g><g stroke-linecap="round"><g transform="translate(9.455148849263765 440.5135531013127) rotate(0 224.4462637772691 -175.99260385512912)"><path d="M0.54 -1.09 C75.25 -59.84, 373.76 -293.04, 448.54 -351.67" stroke="#1e1e1e" stroke-width="1" fill="none" stroke-dasharray="8 8.5"></path></g></g><mask></mask><g stroke-linecap="round"><g transform="translate(26.163307443105168 162.60118182375118) rotate(0 225.28167170696116 91.05946433643547)"><path d="M0 0.09 C75.07 30.36, 374.67 151.62, 449.86 181.99" stroke="#1e1e1e" stroke-width="1" fill="none" stroke-dasharray="8 8.5"></path></g></g><mask></mask><g transform="translate(15.581473667005639 470.0312999504324) rotate(0 12.531118945380996 -6.683263437536539)" stroke="none"><path fill="#1e1e1e" d="M -0.76,-0.91 Q -0.76,-0.91 0.19,-1.72 1.15,-2.52 3.24,-3.73 5.33,-4.94 7.16,-5.92 8.99,-6.90 12.65,-8.76 16.30,-10.63 19.80,-11.95 23.30,-13.26 23.40,-13.29 23.50,-13.32 23.61,-13.31 23.72,-13.31 23.81,-13.27 23.91,-13.23 24.00,-13.16 24.08,-13.09 24.13,-13.00 24.19,-12.91 24.21,-12.81 24.23,-12.71 24.22,-12.60 24.21,-12.49 24.17,-12.40 24.12,-12.30 24.05,-12.22 23.98,-12.15 23.89,-12.10 23.79,-12.05 23.69,-12.03 23.58,-12.01 23.48,-12.03 23.37,-12.04 23.28,-12.09 23.18,-12.14 23.11,-12.22 23.04,-12.29 22.99,-12.39 22.95,-12.49 22.93,-12.59 22.92,-12.70 22.95,-12.80 22.97,-12.91 23.02,-13.00 23.08,-13.09 23.16,-13.16 23.24,-13.23 23.34,-13.27 23.43,-13.31 23.54,-13.31 23.65,-13.32 23.75,-13.29 23.85,-13.26 23.94,-13.20 24.03,-13.15 24.09,-13.06 24.16,-12.98 24.19,-12.88 24.23,-12.78 24.23,-12.67 24.23,-12.56 24.19,-12.46 24.16,-12.36 24.10,-12.28 24.03,-12.19 23.95,-12.13 23.86,-12.07 23.86,-12.07 23.86,-12.07 20.65,-10.23 17.44,-8.39 13.79,-6.56 10.14,-4.72 8.34,-3.77 6.54,-2.82 4.61,-1.74 2.68,-0.67 1.72,0.12 0.76,0.91 0.64,0.99 0.52,1.07 0.38,1.12 0.25,1.16 0.10,1.18 -0.03,1.19 -0.17,1.17 -0.32,1.15 -0.45,1.09 -0.58,1.04 -0.70,0.95 -0.81,0.86 -0.91,0.75 -1.00,0.64 -1.06,0.51 -1.12,0.38 -1.15,0.24 -1.18,0.10 -1.18,-0.03 -1.18,-0.17 -1.14,-0.31 -1.10,-0.45 -1.03,-0.58 -0.96,-0.70 -0.86,-0.81 -0.76,-0.91 -0.76,-0.91 L -0.76,-0.91 Z"></path></g><g transform="translate(18.366166765979187 450.53844825761746) rotate(0 12.531118945380996 11.695711015688971)" stroke="none"><path fill="#1e1e1e" d="M 0.96,-0.80 Q 0.96,-0.80 1.76,0.15 2.56,1.11 3.48,1.93 4.41,2.76 5.78,3.92 7.15,5.08 9.21,7.04 11.27,8.99 15.49,12.84 19.71,16.69 21.28,18.58 22.85,20.47 22.91,20.56 22.98,20.64 23.01,20.74 23.05,20.84 23.05,20.95 23.05,21.05 23.02,21.15 22.99,21.25 22.93,21.34 22.86,21.43 22.78,21.49 22.69,21.55 22.59,21.58 22.49,21.61 22.38,21.60 22.27,21.60 22.17,21.56 22.07,21.52 21.99,21.46 21.91,21.39 21.85,21.30 21.80,21.21 21.77,21.11 21.75,21.00 21.76,20.90 21.77,20.79 21.81,20.69 21.85,20.60 21.93,20.52 22.00,20.44 22.09,20.39 22.18,20.34 22.29,20.32 22.39,20.30 22.50,20.32 22.60,20.33 22.70,20.38 22.79,20.43 22.87,20.50 22.94,20.58 22.99,20.67 23.03,20.77 23.05,20.88 23.06,20.98 23.04,21.09 23.02,21.19 22.96,21.28 22.91,21.37 22.83,21.44 22.75,21.51 22.65,21.55 22.56,21.60 22.45,21.60 22.34,21.61 22.24,21.58 22.14,21.56 22.05,21.50 21.96,21.44 21.96,21.44 21.96,21.44 19.94,20.04 17.92,18.65 13.69,14.76 9.47,10.87 7.47,8.95 5.48,7.02 4.09,5.83 2.71,4.63 1.67,3.68 0.63,2.72 -0.16,1.76 -0.96,0.80 -1.04,0.67 -1.12,0.54 -1.17,0.40 -1.22,0.26 -1.23,0.11 -1.24,-0.03 -1.22,-0.18 -1.20,-0.33 -1.14,-0.47 -1.08,-0.61 -0.99,-0.73 -0.91,-0.85 -0.79,-0.95 -0.67,-1.04 -0.54,-1.11 -0.40,-1.18 -0.26,-1.21 -0.11,-1.24 0.03,-1.24 0.18,-1.23 0.33,-1.19 0.47,-1.15 0.60,-1.08 0.74,-1.00 0.85,-0.90 0.96,-0.80 0.96,-0.80 L 0.96,-0.80 Z"></path></g><g transform="translate(280.127318069494 11.670815859384106) rotate(0 16.708158593841347 13.088057565175745)" stroke="none"><path fill="#1e1e1e" d="M -0.62,-1.25 Q -0.62,-1.25 -0.01,-1.64 0.60,-2.03 1.74,-2.25 2.87,-2.46 4.30,-2.53 5.73,-2.61 8.20,-2.80 10.67,-2.99 13.21,-3.07 15.74,-3.15 17.70,-3.02 19.67,-2.89 21.04,-1.87 22.42,-0.85 22.40,0.54 22.39,1.95 20.93,4.33 19.48,6.71 17.71,8.66 15.93,10.61 14.18,12.10 12.43,13.60 11.41,14.51 10.39,15.42 9.50,16.26 8.61,17.10 8.07,18.18 7.53,19.26 8.16,20.51 8.79,21.76 10.73,22.98 12.67,24.21 15.26,24.74 17.85,25.28 20.79,25.22 23.74,25.15 25.65,24.98 27.56,24.80 30.34,24.51 33.11,24.22 33.22,24.21 33.33,24.19 33.43,24.22 33.53,24.24 33.63,24.29 33.72,24.35 33.79,24.43 33.85,24.51 33.89,24.61 33.93,24.70 33.94,24.81 33.95,24.92 33.92,25.02 33.89,25.12 33.83,25.21 33.77,25.30 33.69,25.36 33.60,25.43 33.50,25.46 33.40,25.50 33.30,25.50 33.19,25.50 33.09,25.46 32.99,25.43 32.90,25.37 32.82,25.30 32.76,25.22 32.70,25.13 32.67,25.03 32.64,24.92 32.65,24.82 32.65,24.71 32.69,24.61 32.73,24.51 32.80,24.43 32.87,24.35 32.96,24.30 33.05,24.24 33.15,24.22 33.26,24.19 33.36,24.20 33.47,24.22 33.56,24.26 33.66,24.30 33.74,24.38 33.81,24.45 33.87,24.54 33.92,24.64 33.93,24.74 33.95,24.85 33.93,24.95 33.92,25.06 33.87,25.15 33.82,25.24 33.74,25.32 33.67,25.39 33.57,25.44 33.47,25.48 33.47,25.48 33.47,25.48 30.67,26.77 27.86,28.07 25.82,28.25 23.79,28.43 20.46,28.44 17.14,28.46 14.01,27.68 10.89,26.91 8.42,25.03 5.96,23.16 5.27,20.90 4.59,18.64 5.47,16.74 6.35,14.83 7.30,13.93 8.25,13.02 9.30,12.08 10.35,11.14 11.96,9.79 13.56,8.43 15.17,6.70 16.78,4.96 18.01,3.19 19.24,1.41 19.31,0.85 19.37,0.29 17.60,0.16 15.84,0.04 13.37,0.12 10.91,0.19 8.39,0.37 5.87,0.55 4.60,0.59 3.33,0.64 2.64,0.69 1.95,0.75 1.29,1.00 0.62,1.25 0.47,1.31 0.31,1.37 0.14,1.39 -0.02,1.40 -0.19,1.38 -0.36,1.36 -0.52,1.29 -0.67,1.23 -0.81,1.13 -0.95,1.03 -1.06,0.90 -1.17,0.77 -1.25,0.62 -1.32,0.47 -1.36,0.30 -1.40,0.14 -1.39,-0.02 -1.39,-0.19 -1.35,-0.36 -1.30,-0.52 -1.22,-0.67 -1.14,-0.82 -1.02,-0.94 -0.91,-1.07 -0.77,-1.16 -0.62,-1.25 -0.62,-1.25 L -0.62,-1.25 Z"></path></g><g transform="translate(288.4813973664146 16.126324817741818) rotate(0 10.024895156304865 -0.2784693098973321)" stroke="none"><path fill="#1e1e1e" d="M -0.18,-1.36 Q -0.18,-1.36 2.21,-1.72 4.61,-2.08 5.97,-2.23 7.34,-2.37 10.45,-2.14 13.56,-1.91 16.25,-1.08 18.94,-0.26 19.04,-0.23 19.14,-0.20 19.23,-0.13 19.32,-0.07 19.38,0.01 19.44,0.09 19.47,0.20 19.50,0.30 19.50,0.40 19.49,0.51 19.46,0.61 19.42,0.71 19.35,0.79 19.28,0.87 19.19,0.93 19.10,0.99 19.00,1.01 18.90,1.04 18.79,1.03 18.69,1.02 18.59,0.97 18.49,0.93 18.41,0.86 18.33,0.79 18.28,0.70 18.23,0.60 18.21,0.50 18.19,0.39 18.21,0.29 18.22,0.18 18.27,0.09 18.32,-0.00 18.39,-0.07 18.47,-0.14 18.56,-0.19 18.66,-0.24 18.77,-0.25 18.87,-0.27 18.98,-0.24 19.08,-0.22 19.17,-0.17 19.26,-0.12 19.33,-0.04 19.40,0.03 19.45,0.13 19.49,0.23 19.50,0.33 19.50,0.44 19.48,0.54 19.45,0.64 19.39,0.73 19.33,0.82 19.25,0.89 19.17,0.96 19.07,0.99 18.97,1.03 18.86,1.03 18.76,1.03 18.76,1.03 18.76,1.03 16.02,1.08 13.29,1.13 10.46,0.84 7.62,0.55 6.31,0.67 4.99,0.80 2.58,1.08 0.18,1.36 0.01,1.37 -0.15,1.37 -0.31,1.33 -0.47,1.29 -0.62,1.22 -0.77,1.14 -0.89,1.03 -1.02,0.92 -1.11,0.79 -1.21,0.65 -1.27,0.50 -1.33,0.34 -1.35,0.18 -1.38,0.01 -1.36,-0.14 -1.34,-0.31 -1.28,-0.47 -1.22,-0.62 -1.13,-0.76 -1.04,-0.90 -0.92,-1.01 -0.79,-1.12 -0.65,-1.20 -0.50,-1.28 -0.34,-1.32 -0.18,-1.36 -0.18,-1.36 L -0.18,-1.36 Z"></path></g><g transform="translate(499.004195648816 332.4674608611385) rotate(0 11.974180325586246 21.99907548189114)" stroke="none"><path fill="#1e1e1e" d="M 0.95,0.74 Q 0.95,0.74 -0.12,2.21 -1.20,3.68 -1.81,4.59 -2.41,5.49 -2.95,6.49 -3.49,7.50 -3.98,9.10 -4.48,10.71 -4.68,12.26 -4.88,13.81 -4.54,15.02 -4.20,16.24 -3.27,17.05 -2.33,17.87 -1.36,18.19 -0.38,18.51 1.41,18.05 3.20,17.59 6.64,15.71 10.08,13.83 12.65,11.94 15.22,10.05 18.59,5.51 21.97,0.97 23.25,-0.80 24.53,-2.58 23.59,-3.08 22.64,-3.57 20.87,-3.06 19.10,-2.55 16.97,-1.30 14.85,-0.05 12.94,2.26 11.03,4.58 9.11,8.38 7.20,12.17 6.08,15.95 4.96,19.73 4.49,23.35 4.02,26.98 3.65,29.69 3.28,32.41 2.79,34.74 2.30,37.07 1.60,39.39 0.89,41.72 -0.60,44.16 -2.11,46.60 -3.93,48.09 -5.75,49.58 -7.82,49.59 -9.89,49.60 -11.14,47.94 -12.39,46.28 -12.54,43.70 -12.70,41.12 -11.39,37.33 -10.08,33.54 -7.17,29.89 -4.25,26.25 0.15,23.35 4.56,20.45 11.98,17.92 19.39,15.39 24.10,14.02 28.82,12.65 30.95,12.56 33.07,12.47 33.18,12.46 33.29,12.44 33.39,12.47 33.49,12.49 33.58,12.54 33.68,12.60 33.75,12.68 33.82,12.76 33.86,12.85 33.90,12.95 33.90,13.06 33.91,13.16 33.88,13.27 33.86,13.37 33.80,13.46 33.74,13.55 33.66,13.61 33.57,13.68 33.47,13.71 33.37,13.75 33.26,13.75 33.16,13.75 33.06,13.72 32.96,13.68 32.87,13.62 32.79,13.56 32.73,13.47 32.66,13.38 32.63,13.28 32.61,13.18 32.61,13.07 32.61,12.97 32.65,12.87 32.69,12.77 32.76,12.69 32.83,12.61 32.92,12.55 33.01,12.49 33.11,12.47 33.21,12.45 33.32,12.46 33.43,12.47 33.52,12.51 33.62,12.55 33.70,12.63 33.78,12.70 33.83,12.79 33.88,12.88 33.90,12.99 33.91,13.09 33.90,13.20 33.88,13.30 33.83,13.40 33.78,13.49 33.71,13.57 33.63,13.64 33.54,13.69 33.44,13.73 33.44,13.73 33.44,13.73 31.59,14.79 29.75,15.86 25.10,17.20 20.46,18.55 13.40,20.90 6.34,23.25 2.30,25.81 -1.72,28.37 -4.36,31.54 -7.00,34.71 -8.21,37.92 -9.42,41.12 -9.47,42.95 -9.52,44.78 -9.02,45.95 -8.53,47.12 -7.99,47.01 -7.45,46.90 -6.15,45.85 -4.84,44.81 -3.53,42.77 -2.21,40.74 -1.55,38.57 -0.89,36.40 -0.42,34.18 0.04,31.96 0.42,29.25 0.79,26.54 1.32,22.67 1.86,18.80 3.09,14.75 4.33,10.71 6.46,6.62 8.59,2.53 10.91,-0.11 13.23,-2.76 15.79,-4.18 18.35,-5.60 20.81,-6.08 23.28,-6.57 24.79,-5.96 26.30,-5.36 26.74,-3.46 27.19,-1.56 25.78,0.61 24.38,2.80 20.68,7.60 16.99,12.41 14.23,14.41 11.47,16.42 7.65,18.44 3.82,20.45 1.32,20.86 -1.16,21.28 -2.74,20.64 -4.31,20.00 -5.62,18.57 -6.93,17.13 -7.34,15.31 -7.75,13.48 -7.47,11.65 -7.19,9.81 -6.54,7.98 -5.89,6.14 -5.25,5.06 -4.61,3.99 -3.94,3.03 -3.27,2.07 -2.11,0.66 -0.95,-0.74 -0.85,-0.84 -0.75,-0.95 -0.62,-1.03 -0.50,-1.10 -0.36,-1.15 -0.22,-1.19 -0.07,-1.20 0.06,-1.21 0.21,-1.18 0.35,-1.16 0.49,-1.10 0.62,-1.04 0.74,-0.95 0.85,-0.86 0.94,-0.74 1.03,-0.63 1.09,-0.49 1.15,-0.36 1.18,-0.22 1.21,-0.07 1.20,0.06 1.19,0.21 1.15,0.35 1.10,0.49 1.03,0.62 0.95,0.74 0.95,0.74 L 0.95,0.74 Z"></path></g><g transform="translate(243.36936916304296 108.57813570366409) rotate(0 -7.797140677125981 71.8450819535179)" stroke="none"><path fill="#1e1e1e" d="M 0.32,1.18 Q 0.32,1.18 -1.43,1.67 -3.19,2.15 -4.03,2.50 -4.87,2.84 -5.67,3.03 -6.46,3.21 -7.55,3.87 -8.63,4.52 -9.48,5.49 -10.33,6.47 -10.80,7.71 -11.27,8.95 -11.46,11.61 -11.65,14.27 -11.27,17.10 -10.88,19.93 -9.93,23.17 -8.98,26.41 -6.48,33.22 -3.98,40.03 -2.75,43.77 -1.53,47.51 -0.82,51.10 -0.11,54.69 0.03,57.25 0.17,59.81 -0.42,62.50 -1.02,65.19 -2.45,67.87 -3.88,70.56 -5.50,72.54 -7.12,74.53 -9.04,75.94 -10.95,77.35 -12.25,78.10 -13.54,78.85 -14.17,79.28 -14.80,79.71 -14.13,80.64 -13.47,81.58 -12.68,83.25 -11.88,84.93 -11.32,88.39 -10.77,91.86 -10.87,95.79 -10.98,99.72 -11.68,103.53 -12.38,107.35 -13.16,111.17 -13.93,114.99 -14.42,117.26 -14.91,119.53 -15.11,122.30 -15.30,125.06 -15.07,127.42 -14.84,129.78 -13.85,132.03 -12.87,134.28 -11.15,135.89 -9.43,137.51 -7.67,138.49 -5.91,139.48 -2.77,141.02 0.35,142.56 0.44,142.61 0.54,142.66 0.61,142.74 0.69,142.81 0.73,142.91 0.78,143.01 0.79,143.11 0.80,143.22 0.78,143.32 0.76,143.42 0.70,143.52 0.65,143.61 0.57,143.68 0.49,143.75 0.39,143.79 0.29,143.83 0.19,143.83 0.08,143.84 -0.01,143.81 -0.11,143.78 -0.20,143.73 -0.29,143.67 -0.36,143.58 -0.42,143.50 -0.46,143.40 -0.49,143.30 -0.49,143.19 -0.49,143.09 -0.46,142.98 -0.43,142.88 -0.36,142.80 -0.30,142.71 -0.21,142.65 -0.12,142.59 -0.02,142.56 0.07,142.53 0.18,142.54 0.28,142.54 0.38,142.58 0.48,142.62 0.56,142.69 0.64,142.76 0.70,142.85 0.75,142.94 0.78,143.04 0.80,143.15 0.79,143.25 0.78,143.36 0.74,143.45 0.69,143.55 0.62,143.63 0.55,143.71 0.45,143.76 0.36,143.81 0.26,143.83 0.15,143.84 0.05,143.83 -0.05,143.81 -0.05,143.81 -0.05,143.81 -3.81,143.09 -7.57,142.37 -9.66,141.13 -11.75,139.89 -13.81,137.77 -15.87,135.66 -17.01,132.89 -18.14,130.13 -18.37,127.48 -18.61,124.83 -18.38,121.83 -18.16,118.83 -17.67,116.58 -17.19,114.33 -16.42,110.54 -15.64,106.74 -14.97,103.18 -14.29,99.61 -14.16,95.98 -14.04,92.34 -14.45,89.31 -14.86,86.28 -15.58,84.73 -16.30,83.18 -17.05,81.71 -17.79,80.24 -17.70,79.33 -17.60,78.42 -17.09,77.76 -16.58,77.10 -15.84,76.61 -15.10,76.12 -13.92,75.47 -12.75,74.82 -11.11,73.69 -9.47,72.56 -8.00,70.82 -6.54,69.09 -5.23,66.78 -3.92,64.47 -3.35,62.20 -2.78,59.93 -2.89,57.59 -3.00,55.25 -3.65,51.83 -4.29,48.42 -5.50,44.72 -6.71,41.02 -9.19,34.10 -11.66,27.18 -12.63,23.73 -13.60,20.28 -13.97,17.17 -14.33,14.05 -14.02,11.01 -13.71,7.98 -12.99,6.36 -12.28,4.75 -11.10,3.52 -9.91,2.30 -8.47,1.54 -7.03,0.77 -6.41,0.65 -5.80,0.52 -4.82,0.14 -3.85,-0.23 -2.08,-0.71 -0.32,-1.18 -0.17,-1.20 -0.03,-1.22 0.11,-1.21 0.26,-1.20 0.40,-1.15 0.54,-1.10 0.66,-1.02 0.79,-0.93 0.89,-0.83 0.99,-0.72 1.06,-0.59 1.13,-0.46 1.17,-0.32 1.21,-0.17 1.22,-0.02 1.22,0.11 1.19,0.26 1.15,0.40 1.09,0.54 1.02,0.67 0.93,0.78 0.83,0.90 0.71,0.98 0.59,1.07 0.46,1.13 0.32,1.18 0.32,1.18 L 0.32,1.18 Z"></path></g><g transform="translate(248.00443050805893 411.0858160928749) rotate(0 1.75 1.5)" stroke="none"><path fill="#1e1e1e" d="M 0,-1.29 Q 0,-1.29 0.79,-1.46 1.58,-1.64 2.42,-1.22 3.27,-0.81 3.69,-0.33 4.10,0.14 4.36,1.02 4.63,1.89 4.51,2.52 4.39,3.15 3.57,3.72 2.74,4.30 2.13,4.24 1.52,4.19 0.96,3.74 0.39,3.29 -0.06,2.74 -0.52,2.18 -0.66,2.02 -0.80,1.85 -0.89,1.66 -0.98,1.47 -1.03,1.26 -1.07,1.05 -1.07,0.84 -1.06,0.62 -1.01,0.41 -0.95,0.21 -0.84,0.02 -0.74,-0.16 -0.59,-0.31 -0.45,-0.47 -0.27,-0.58 -0.09,-0.70 0.11,-0.77 0.31,-0.84 0.52,-0.86 0.74,-0.88 0.95,-0.85 1.16,-0.82 1.36,-0.74 1.56,-0.65 1.73,-0.53 1.90,-0.40 2.96,0.83 4.02,2.08 4.05,2.18 4.09,2.28 4.08,2.39 4.08,2.49 4.05,2.59 4.01,2.69 3.95,2.78 3.88,2.86 3.79,2.92 3.71,2.98 3.60,3.01 3.50,3.03 3.39,3.03 3.29,3.02 3.19,2.98 3.09,2.94 3.01,2.87 2.93,2.80 2.88,2.71 2.82,2.62 2.80,2.51 2.78,2.41 2.79,2.30 2.81,2.20 2.85,2.10 2.90,2.01 2.97,1.93 3.04,1.85 3.14,1.81 3.23,1.76 3.34,1.74 3.44,1.72 3.55,1.74 3.65,1.76 3.75,1.81 3.84,1.86 3.91,1.94 3.98,2.02 4.03,2.12 4.07,2.21 4.08,2.32 4.09,2.42 4.07,2.53 4.04,2.63 3.99,2.72 3.93,2.81 3.85,2.88 3.77,2.95 3.67,2.99 3.57,3.02 3.46,3.03 3.36,3.03 3.26,3.00 3.15,2.97 3.07,2.91 2.98,2.85 2.92,2.77 2.85,2.68 2.85,2.68 2.85,2.68 1.16,2.43 -0.52,2.18 -0.66,2.02 -0.80,1.85 -0.89,1.66 -0.98,1.47 -1.03,1.26 -1.07,1.05 -1.07,0.84 -1.06,0.62 -1.01,0.42 -0.95,0.21 -0.84,0.02 -0.74,-0.15 -0.59,-0.31 -0.45,-0.47 -0.27,-0.58 -0.09,-0.70 0.11,-0.77 0.31,-0.84 0.52,-0.86 0.74,-0.88 0.95,-0.85 1.16,-0.82 1.36,-0.74 1.56,-0.65 1.73,-0.53 1.90,-0.40 2.03,-0.11 2.17,0.17 2.41,0.77 2.65,1.38 1.97,1.51 1.29,1.64 0.64,1.46 0,1.29 -0.15,1.27 -0.31,1.26 -0.45,1.20 -0.60,1.14 -0.73,1.06 -0.86,0.97 -0.96,0.85 -1.06,0.73 -1.14,0.59 -1.21,0.46 -1.25,0.30 -1.28,0.15 -1.28,-0.00 -1.28,-0.15 -1.25,-0.30 -1.21,-0.46 -1.14,-0.59 -1.06,-0.73 -0.96,-0.85 -0.86,-0.97 -0.73,-1.06 -0.60,-1.14 -0.45,-1.20 -0.31,-1.26 -0.15,-1.27 0.00,-1.29 0.00,-1.29 L 0,-1.29 Z"></path></g><g transform="translate(241.69855330365885 255.05299270967345) rotate(0 0.00004999999998744897 0.00005000000000165983)" stroke="none"><path fill="#1e1e1e" d="M 1.06,-1.06 Q 1.06,-1.06 1.20,-0.86 1.34,-0.66 1.41,-0.43 1.48,-0.20 1.48,0.04 1.47,0.28 1.39,0.51 1.30,0.73 1.15,0.92 1.00,1.11 0.79,1.24 0.59,1.38 0.35,1.43 0.12,1.49 -0.12,1.47 -0.36,1.45 -0.58,1.36 -0.80,1.26 -0.99,1.10 -1.17,0.94 -1.29,0.72 -1.41,0.51 -1.45,0.27 -1.50,0.04 -1.46,-0.20 -1.43,-0.44 -1.32,-0.65 -1.22,-0.87 -1.04,-1.04 -0.87,-1.22 -0.65,-1.32 -0.44,-1.43 -0.19,-1.46 0.04,-1.50 0.27,-1.45 0.51,-1.41 0.73,-1.29 0.94,-1.17 1.10,-0.98 1.26,-0.80 1.36,-0.58 1.45,-0.36 1.47,-0.11 1.49,0.12 1.43,0.35 1.38,0.59 1.24,0.79 1.11,1.00 0.92,1.15 0.73,1.30 0.51,1.39 0.28,1.47 0.03,1.48 -0.20,1.48 -0.43,1.41 -0.66,1.34 -0.86,1.20 -1.06,1.06 -1.06,1.06 -1.06,1.06 -1.17,0.91 -1.28,0.77 -1.36,0.61 -1.43,0.44 -1.46,0.26 -1.49,0.09 -1.48,-0.09 -1.47,-0.27 -1.42,-0.44 -1.37,-0.61 -1.27,-0.77 -1.18,-0.92 -1.05,-1.05 -0.92,-1.18 -0.77,-1.27 -0.61,-1.37 -0.44,-1.42 -0.27,-1.47 -0.09,-1.48 0.09,-1.49 0.26,-1.46 0.44,-1.43 0.61,-1.36 0.77,-1.28 0.91,-1.17 1.06,-1.06 1.06,-1.06 L 1.06,-1.06 Z"></path></g><g transform="translate(245.04018502242707 256.1668699492629) rotate(0 -17.265097213636068 80.75609987023327)" stroke="none"><path fill="#1e1e1e" d="M 0.39,0.97 Q 0.39,0.97 -0.39,1.32 -1.18,1.67 -2.81,2.31 -4.43,2.94 -6.27,3.54 -8.10,4.14 -12.83,6.01 -17.56,7.87 -20.62,9.58 -23.68,11.29 -25.99,13.85 -28.29,16.40 -29.72,19.02 -31.14,21.64 -31.73,23.59 -32.32,25.55 -31.44,28.71 -30.57,31.86 -28.96,35.12 -27.36,38.38 -25.25,41.49 -23.14,44.60 -21.43,47.07 -19.72,49.54 -17.54,52.84 -15.35,56.15 -13.88,59.59 -12.41,63.03 -11.92,66.22 -11.43,69.41 -11.72,72.17 -12.01,74.92 -12.97,77.61 -13.93,80.31 -14.99,82.44 -16.06,84.56 -17.55,86.37 -19.04,88.18 -20.29,89.55 -21.55,90.93 -23.07,92.35 -24.60,93.78 -25.81,95.12 -27.02,96.46 -27.06,97.12 -27.09,97.78 -25.99,99.42 -24.89,101.07 -23.70,103.37 -22.52,105.68 -21.64,109.38 -20.76,113.08 -21.03,118.80 -21.31,124.51 -22.24,129.83 -23.18,135.15 -24.22,139.96 -25.26,144.77 -26.01,148.39 -26.77,152.02 -26.93,154.34 -27.09,156.67 -26.64,157.52 -26.19,158.37 -24.48,158.52 -22.77,158.68 -20.96,159.43 -19.14,160.19 -19.04,160.22 -18.94,160.25 -18.85,160.31 -18.77,160.37 -18.70,160.46 -18.64,160.54 -18.61,160.64 -18.58,160.75 -18.58,160.85 -18.58,160.96 -18.62,161.06 -18.66,161.16 -18.72,161.24 -18.79,161.32 -18.88,161.38 -18.97,161.44 -19.07,161.46 -19.17,161.49 -19.28,161.48 -19.39,161.47 -19.48,161.43 -19.58,161.39 -19.66,161.32 -19.74,161.25 -19.79,161.16 -19.84,161.06 -19.87,160.96 -19.89,160.86 -19.87,160.75 -19.86,160.64 -19.81,160.55 -19.76,160.45 -19.69,160.38 -19.61,160.30 -19.52,160.26 -19.42,160.21 -19.32,160.19 -19.21,160.18 -19.11,160.20 -19.00,160.22 -18.91,160.27 -18.82,160.32 -18.75,160.40 -18.68,160.48 -18.63,160.58 -18.59,160.68 -18.58,160.78 -18.57,160.89 -18.60,160.99 -18.63,161.09 -18.68,161.18 -18.74,161.27 -18.82,161.34 -18.90,161.41 -19.00,161.44 -19.10,161.48 -19.21,161.48 -19.32,161.49 -19.32,161.49 -19.32,161.49 -21.38,161.72 -23.45,161.96 -25.88,161.25 -28.31,160.55 -29.33,158.63 -30.34,156.71 -30.18,154.03 -30.01,151.35 -29.25,147.71 -28.48,144.07 -27.45,139.32 -26.42,134.57 -25.50,129.45 -24.59,124.33 -24.27,119.06 -23.95,113.78 -24.68,110.46 -25.42,107.13 -26.52,104.96 -27.62,102.80 -28.90,100.70 -30.17,98.60 -30.28,97.53 -30.39,96.46 -29.87,95.41 -29.36,94.36 -28.03,92.94 -26.69,91.51 -25.25,90.19 -23.80,88.86 -22.58,87.54 -21.36,86.22 -20.05,84.70 -18.74,83.18 -17.74,81.23 -16.74,79.28 -15.85,76.92 -14.96,74.56 -14.66,72.18 -14.36,69.81 -14.74,66.98 -15.12,64.15 -16.45,60.94 -17.78,57.74 -19.93,54.45 -22.08,51.16 -23.79,48.66 -25.50,46.17 -27.67,42.87 -29.84,39.58 -31.51,36.05 -33.18,32.51 -34.00,28.75 -34.82,24.98 -34.11,22.69 -33.40,20.40 -31.77,17.55 -30.15,14.70 -27.53,11.93 -24.92,9.15 -21.68,7.37 -18.45,5.59 -13.63,3.75 -8.82,1.92 -7.03,1.36 -5.25,0.79 -3.63,0.20 -2.01,-0.39 -1.20,-0.68 -0.39,-0.97 -0.26,-1.01 -0.14,-1.04 -0.01,-1.04 0.10,-1.04 0.23,-1.02 0.35,-0.99 0.46,-0.93 0.58,-0.87 0.68,-0.79 0.77,-0.71 0.85,-0.61 0.92,-0.50 0.97,-0.38 1.01,-0.27 1.03,-0.14 1.05,-0.01 1.04,0.10 1.02,0.23 0.98,0.35 0.94,0.47 0.87,0.57 0.80,0.68 0.70,0.77 0.61,0.85 0.50,0.91 0.39,0.97 0.39,0.97 L 0.39,0.97 Z"></path></g></svg>