<svg version="1.1" xmlns="http://www.w3.org/2000/svg" viewBox="0 0 1648.3494344943986 213.77589501133593" width="1648.3494344943986" height="213.77589501133593" filter="invert(93%) hue-rotate(180deg)" class="excalidraw-svg">
  <!-- svg-source:excalidraw -->
  
  <defs>
    <style class="style-fonts">
      
    </style>
    
  </defs>
  <rect x="0" y="0" width="1648.3494344943986" height="213.77589501133593" fill="#f1f1f1"></rect><g stroke-linecap="round" transform="translate(10 35.3931974631339) rotate(0 61.498046875 61.498046875)"><path d="M44.05 2.84 C52.48 -0.56, 63.02 -0.53, 72.43 1.24 C81.85 3.01, 93.01 7.71, 100.57 13.46 C108.12 19.22, 113.92 27.21, 117.77 35.77 C121.63 44.32, 124.2 55.21, 123.71 64.81 C123.22 74.4, 120.09 85.1, 114.82 93.35 C109.55 101.6, 100.54 109.41, 92.08 114.3 C83.62 119.19, 73.53 122.19, 64.07 122.67 C54.61 123.15, 43.93 121.09, 35.32 117.17 C26.71 113.25, 17.98 106.53, 12.4 99.14 C6.83 91.74, 3.5 82.2, 1.85 72.8 C0.19 63.4, -0.26 52.03, 2.47 42.74 C5.2 33.45, 9.72 24.16, 18.24 17.06 C26.75 9.97, 46.06 2.89, 53.57 0.17 C61.09 -2.54, 63.25 -0.32, 63.34 0.79 M73.98 2.74 C83.25 3.66, 94.98 7.55, 102.25 13.69 C109.51 19.83, 114.08 30.66, 117.55 39.59 C121.03 48.52, 123.98 57.81, 123.07 67.27 C122.16 76.73, 117.61 88.22, 112.1 96.34 C106.59 104.45, 98.28 111.42, 90.03 115.97 C81.78 120.52, 71.69 123.57, 62.58 123.63 C53.48 123.69, 44.11 120.89, 35.4 116.35 C26.7 111.8, 16.3 104.08, 10.35 96.37 C4.39 88.66, 0.62 79.43, -0.31 70.07 C-1.25 60.71, 1.51 49.27, 4.72 40.21 C7.93 31.16, 11.9 21.85, 18.93 15.73 C25.96 9.6, 37.4 6.07, 46.89 3.47 C56.38 0.87, 71.12 0.25, 75.87 0.14 C80.61 0.04, 75.93 1.69, 75.36 2.86" stroke="#1e1e1e" stroke-width="1" fill="none"></path></g><g stroke-linecap="round"><g transform="translate(155.572690749214 95.37370370100805) rotate(0 57.1930980874174 -0.461368956663204)"><path d="M-0.68 -0.53 C18.43 -0.74, 95.65 -1.81, 114.81 -2.03 M1.17 1.81 C20.14 1.77, 95.37 -0.61, 114.08 -1.07" stroke="#1e1e1e" stroke-width="1" fill="none"></path></g><g transform="translate(155.572690749214 95.37370370100805) rotate(0 57.1930980874174 -0.461368956663204)"><path d="M90.84 8.14 C97.26 6.1, 103.55 2.33, 114.08 -1.07 M90.84 8.14 C95.33 6.5, 101.95 4.27, 114.08 -1.07" stroke="#1e1e1e" stroke-width="1" fill="none"></path></g><g transform="translate(155.572690749214 95.37370370100805) rotate(0 57.1930980874174 -0.461368956663204)"><path d="M90.36 -8.96 C96.83 -5.66, 103.27 -4.1, 114.08 -1.07 M90.36 -8.96 C94.79 -6.73, 101.52 -5.11, 114.08 -1.07" stroke="#1e1e1e" stroke-width="1" fill="none"></path></g></g><mask></mask><g stroke-linecap="round" transform="translate(299.78515625 22.9322599631339) rotate(0 137.09375 75.693359375)"><path d="M191.02 5.21 C206.22 7.46, 221.06 14.17, 232.92 20.58 C244.78 26.99, 255.46 35.13, 262.19 43.67 C268.93 52.2, 272.36 62.82, 273.34 71.81 C274.31 80.8, 272.94 89.1, 268.04 97.61 C263.15 106.13, 254.46 115.72, 243.94 122.91 C233.42 130.11, 219.37 136.36, 204.93 140.79 C190.49 145.23, 173.55 147.92, 157.32 149.53 C141.09 151.14, 123.46 152.1, 107.57 150.43 C91.67 148.75, 75.52 144.74, 61.95 139.48 C48.37 134.22, 35.64 126.4, 26.12 118.86 C16.59 111.31, 8.88 103.05, 4.78 94.21 C0.69 85.36, -0.49 74.91, 1.53 65.8 C3.56 56.7, 9.36 47.53, 16.95 39.6 C24.53 31.66, 34.52 24.14, 47.05 18.18 C59.57 12.22, 76.32 6.93, 92.07 3.84 C107.83 0.75, 124.64 -1, 141.56 -0.37 C158.48 0.25, 184.34 5.96, 193.58 7.59 C202.82 9.21, 197.85 8.43, 197 9.37 M195.16 8.39 C210.31 11.07, 226.21 18.49, 237.6 24.87 C248.99 31.26, 257.28 38.5, 263.47 46.7 C269.67 54.89, 274.39 65.08, 274.79 74.04 C275.2 83, 271.55 91.77, 265.88 100.44 C260.21 109.1, 251.7 118.8, 240.8 126.03 C229.89 133.26, 215.02 139.84, 200.44 143.81 C185.87 147.78, 169.72 148.76, 153.35 149.83 C136.97 150.91, 118.21 152.19, 102.18 150.25 C86.14 148.31, 70.45 143.98, 57.13 138.2 C43.81 132.42, 31.3 123.53, 22.25 115.57 C13.21 107.62, 6.37 99.3, 2.86 90.49 C-0.66 81.67, -1.39 71.8, 1.16 62.69 C3.71 53.59, 9.54 43.84, 18.16 35.86 C26.78 27.88, 39.91 20.32, 52.88 14.8 C65.84 9.29, 80.19 5.44, 95.95 2.78 C111.7 0.12, 130.77 -1.93, 147.43 -1.17 C164.09 -0.41, 188.03 5.68, 195.91 7.31 C203.78 8.94, 195.89 7.49, 194.69 8.61" stroke="#1e1e1e" stroke-width="1" fill="none"></path></g><g stroke-linecap="round"><g transform="translate(594.1610529190848 100.64761394982811) rotate(0 57.1930980874174 -0.461368956663204)"><path d="M-1.2 -1.17 C17.79 -1.22, 95.13 -0.69, 114.46 -0.68 M0.38 0.83 C19.17 0.42, 94.58 -2.56, 113.55 -2.67" stroke="#1e1e1e" stroke-width="1" fill="none"></path></g><g transform="translate(594.1610529190848 100.64761394982811) rotate(0 57.1930980874174 -0.461368956663204)"><path d="M90.28 6.46 C96.34 3.68, 106.68 1.08, 113.55 -2.67 M90.28 6.46 C96.4 4.8, 103.02 0.89, 113.55 -2.67" stroke="#1e1e1e" stroke-width="1" fill="none"></path></g><g transform="translate(594.1610529190848 100.64761394982811) rotate(0 57.1930980874174 -0.461368956663204)"><path d="M89.85 -10.64 C96.01 -7.54, 106.5 -4.28, 113.55 -2.67 M89.85 -10.64 C96.17 -7.38, 102.91 -6.38, 113.55 -2.67" stroke="#1e1e1e" stroke-width="1" fill="none"></path></g></g><mask></mask><g transform="translate(935.3560653964596 51.36292822831439) rotate(0 31.480141300217525 55.52501927735358)" stroke="none"><path fill="#1e1e1e" d="M 1.07,1.86 Q 1.07,1.86 -1.34,3.13 -3.76,4.40 -4.99,5.09 -6.21,5.78 -8.22,5.93 -10.22,6.09 -11.70,5.28 -13.17,4.47 -14.62,3.69 -16.07,2.92 -17.64,2.08 -19.21,1.25 -20.55,0.53 -21.89,-0.18 -23.60,-1.33 -25.31,-2.48 -26.90,-3.67 -28.50,-4.87 -30.02,-6.22 -31.55,-7.57 -32.85,-8.74 -34.16,-9.91 -35.74,-11.39 -37.33,-12.87 -39.18,-14.36 -41.03,-15.86 -43.02,-17.23 -45.01,-18.61 -47.09,-19.81 -49.16,-21.01 -51.28,-22.05 -53.41,-23.08 -55.55,-23.93 -57.69,-24.79 -59.96,-25.63 -62.24,-26.48 -64.66,-27.20 -67.08,-27.92 -69.54,-28.48 -72.00,-29.03 -74.65,-29.51 -77.30,-30.00 -80.19,-30.43 -83.08,-30.86 -86.05,-31.09 -89.02,-31.31 -91.99,-31.24 -94.96,-31.16 -98.03,-30.84 -101.09,-30.51 -104.26,-29.91 -107.44,-29.31 -110.55,-28.40 -113.66,-27.48 -116.77,-26.21 -119.89,-24.95 -123.00,-23.42 -126.11,-21.90 -128.53,-20.52 -130.96,-19.14 -134.10,-16.78 -137.25,-14.42 -140.23,-11.77 -143.21,-9.12 -145.98,-6.04 -148.75,-2.96 -150.82,-0.35 -152.89,2.26 -155.50,5.79 -158.11,9.33 -160.45,12.83 -162.79,16.33 -164.58,19.22 -166.37,22.12 -168.22,25.48 -170.07,28.85 -171.90,33.14 -173.74,37.43 -174.88,40.82 -176.02,44.21 -176.86,48.11 -177.70,52.00 -178.17,56.21 -178.65,60.41 -178.85,64.84 -179.05,69.27 -178.94,73.68 -178.84,78.09 -178.48,82.47 -178.11,86.86 -177.48,90.93 -176.84,95.00 -175.95,98.91 -175.05,102.83 -173.90,106.68 -172.74,110.53 -171.27,114.13 -169.80,117.74 -168.09,120.98 -166.39,124.21 -164.39,127.25 -162.40,130.28 -160.22,132.90 -158.04,135.52 -155.60,137.68 -153.16,139.84 -149.37,142.32 -145.58,144.80 -143.36,146.10 -141.13,147.41 -137.83,148.46 -134.52,149.51 -130.39,149.71 -126.26,149.90 -123.74,149.82 -121.22,149.74 -117.86,148.98 -114.50,148.22 -109.81,146.49 -105.12,144.77 -100.64,142.66 -96.16,140.55 -91.79,138.06 -87.42,135.56 -79.80,130.71 -72.18,125.86 -67.20,122.62 -62.23,119.39 -58.36,116.78 -54.50,114.17 -50.12,111.36 -45.73,108.55 -40.10,105.24 -34.46,101.93 -31.09,100.04 -27.72,98.16 -21.46,95.11 -15.20,92.06 -10.61,90.02 -6.02,87.98 -2.31,86.56 1.38,85.13 5.33,83.92 9.27,82.71 13.32,81.87 17.38,81.02 21.38,80.59 25.38,80.15 29.14,80.11 32.91,80.07 36.64,80.44 40.38,80.80 44.02,81.48 47.65,82.16 51.15,83.26 54.65,84.36 57.43,85.54 60.21,86.71 63.93,88.75 67.66,90.78 70.94,92.74 74.23,94.69 77.35,96.62 80.48,98.54 83.01,100.16 85.54,101.77 89.08,104.18 92.63,106.59 95.97,108.76 99.31,110.94 102.80,112.76 106.29,114.57 109.21,115.84 112.14,117.10 116.29,118.28 120.45,119.47 125.25,120.29 130.05,121.12 133.57,121.52 137.09,121.92 141.00,121.99 144.91,122.06 149.85,121.87 154.79,121.67 157.70,121.54 160.61,121.41 165.19,120.84 169.76,120.27 175.80,118.29 181.83,116.30 185.29,114.97 188.75,113.63 192.67,111.45 196.58,109.28 200.59,106.77 204.59,104.26 207.77,102.06 210.95,99.86 214.28,96.74 217.61,93.62 220.74,89.92 223.86,86.22 226.18,83.00 228.50,79.78 231.00,74.81 233.51,69.83 235.37,65.04 237.24,60.24 238.50,55.39 239.77,50.54 240.51,46.68 241.24,42.83 241.50,37.66 241.75,32.49 241.26,27.14 240.77,21.80 239.50,16.60 238.23,11.41 237.04,7.72 235.85,4.03 233.80,-0.07 231.74,-4.17 230.44,-6.56 229.15,-8.94 226.78,-12.30 224.42,-15.67 220.81,-19.33 217.20,-22.99 212.18,-26.72 207.16,-30.45 202.38,-32.96 197.59,-35.46 193.53,-36.78 189.47,-38.10 185.57,-38.60 181.68,-39.10 178.55,-39.12 175.41,-39.14 172.57,-38.91 169.72,-38.67 166.14,-38.03 162.56,-37.39 158.61,-36.46 154.66,-35.52 150.69,-34.31 146.72,-33.10 142.70,-31.69 138.69,-30.29 134.76,-28.68 130.83,-27.08 126.20,-24.77 121.56,-22.46 115.97,-19.35 110.38,-16.24 106.65,-14.15 102.93,-12.05 98.68,-9.67 94.44,-7.29 91.98,-5.95 89.51,-4.61 85.92,-2.73 82.33,-0.84 80.18,0.27 78.02,1.40 74.49,3.01 70.96,4.62 66.51,6.09 62.06,7.56 59.61,8.29 57.17,9.01 53.73,9.53 50.30,10.05 48.32,10.30 46.34,10.55 44.42,10.62 42.49,10.69 40.21,10.53 37.94,10.36 35.35,10.06 32.77,9.75 29.87,9.37 26.97,8.99 24.07,8.65 21.17,8.31 18.42,8.07 15.67,7.82 12.96,7.52 10.26,7.21 7.61,6.72 4.96,6.24 2.20,5.32 -0.55,4.39 -2.35,3.55 -4.15,2.70 -5.64,1.83 -7.13,0.95 -7.32,0.78 -7.51,0.60 -7.64,0.37 -7.76,0.15 -7.81,-0.10 -7.85,-0.35 -7.81,-0.61 -7.78,-0.86 -7.66,-1.09 -7.54,-1.32 -7.35,-1.50 -7.17,-1.68 -6.93,-1.80 -6.70,-1.91 -6.44,-1.94 -6.19,-1.97 -5.93,-1.92 -5.68,-1.87 -5.46,-1.73 -5.23,-1.60 -5.06,-1.41 -4.89,-1.21 -4.79,-0.97 -4.70,-0.74 -4.68,-0.48 -4.66,-0.22 -4.73,0.02 -4.79,0.27 -4.94,0.49 -5.08,0.70 -5.28,0.86 -5.49,1.02 -5.73,1.11 -5.98,1.19 -6.23,1.20 -6.49,1.20 -6.74,1.12 -6.99,1.04 -7.19,0.89 -7.40,0.73 -7.55,0.52 -7.70,0.31 -7.77,0.06 -7.84,-0.18 -7.83,-0.44 -7.82,-0.70 -7.73,-0.94 -7.63,-1.18 -7.47,-1.38 -7.30,-1.58 -7.08,-1.71 -6.86,-1.85 -6.61,-1.91 -6.36,-1.97 -6.10,-1.94 -5.84,-1.92 -5.61,-1.81 -5.37,-1.71 -5.37,-1.71 -5.37,-1.71 -4.12,-0.77 -2.87,0.16 -1.28,1.02 0.29,1.88 2.87,2.75 5.44,3.62 8.00,4.09 10.56,4.55 13.23,4.84 15.90,5.14 18.69,5.37 21.48,5.61 24.40,5.93 27.32,6.25 30.20,6.61 33.07,6.97 35.60,7.23 38.12,7.49 40.29,7.61 42.47,7.73 44.25,7.77 46.04,7.80 47.98,7.63 49.91,7.45 53.17,6.97 56.43,6.49 58.83,5.78 61.23,5.07 65.55,3.65 69.87,2.23 73.34,0.65 76.81,-0.92 78.96,-2.04 81.11,-3.16 84.68,-5.04 88.26,-6.92 90.71,-8.25 93.16,-9.58 97.40,-11.96 101.64,-14.34 105.37,-16.44 109.10,-18.54 114.75,-21.68 120.39,-24.82 125.11,-27.16 129.84,-29.51 133.83,-31.14 137.82,-32.77 141.89,-34.19 145.95,-35.61 150.00,-36.84 154.05,-38.07 158.07,-39.03 162.10,-39.98 165.80,-40.64 169.51,-41.29 172.47,-41.53 175.43,-41.77 178.73,-41.74 182.02,-41.71 186.15,-41.15 190.28,-40.60 194.54,-39.19 198.81,-37.79 203.77,-35.18 208.73,-32.56 213.90,-28.70 219.07,-24.83 222.82,-21.01 226.57,-17.18 229.01,-13.69 231.46,-10.19 232.77,-7.77 234.09,-5.34 236.22,-1.06 238.35,3.22 239.57,7.00 240.79,10.79 242.08,16.17 243.38,21.56 243.88,27.09 244.38,32.62 244.10,37.97 243.82,43.31 243.07,47.26 242.31,51.21 241.00,56.20 239.69,61.19 237.77,66.10 235.85,71.02 233.24,76.16 230.63,81.31 228.25,84.61 225.87,87.91 222.64,91.73 219.41,95.54 215.93,98.78 212.44,102.01 209.22,104.25 205.99,106.48 201.92,109.03 197.86,111.58 193.78,113.83 189.70,116.08 186.18,117.44 182.65,118.80 176.37,120.84 170.09,122.87 165.41,123.45 160.73,124.04 157.81,124.17 154.89,124.30 149.87,124.49 144.86,124.68 140.82,124.61 136.79,124.53 133.20,124.12 129.60,123.71 124.66,122.85 119.72,122.00 115.41,120.75 111.10,119.51 108.09,118.21 105.08,116.90 101.48,115.02 97.88,113.14 94.52,110.95 91.15,108.76 87.64,106.37 84.12,103.98 81.61,102.38 79.10,100.78 75.99,98.86 72.88,96.95 69.64,95.02 66.40,93.08 62.79,91.11 59.18,89.13 56.52,88.00 53.86,86.86 50.51,85.80 47.17,84.74 43.64,84.08 40.12,83.41 36.53,83.06 32.93,82.70 29.30,82.73 25.66,82.76 21.79,83.18 17.91,83.59 13.97,84.41 10.04,85.23 6.18,86.41 2.32,87.59 -1.31,88.98 -4.95,90.38 -9.50,92.40 -14.05,94.43 -20.24,97.44 -26.44,100.45 -29.79,102.32 -33.13,104.19 -38.72,107.48 -44.31,110.76 -48.67,113.55 -53.03,116.35 -56.91,118.97 -60.79,121.59 -65.78,124.83 -70.77,128.07 -78.44,132.96 -86.12,137.84 -90.58,140.39 -95.04,142.93 -99.63,145.09 -104.22,147.24 -109.07,149.01 -113.92,150.78 -117.53,151.57 -121.13,152.37 -123.77,152.45 -126.40,152.52 -130.85,152.27 -135.30,152.02 -138.88,150.85 -142.45,149.68 -144.74,148.34 -147.02,146.99 -150.96,144.40 -154.90,141.80 -157.48,139.50 -160.05,137.20 -162.32,134.46 -164.59,131.72 -166.65,128.58 -168.71,125.44 -170.47,122.08 -172.23,118.73 -173.74,115.00 -175.26,111.28 -176.43,107.35 -177.61,103.41 -178.52,99.41 -179.44,95.40 -180.09,91.24 -180.73,87.08 -181.10,82.61 -181.46,78.15 -181.57,73.65 -181.68,69.14 -181.47,64.63 -181.26,60.12 -180.76,55.78 -180.26,51.45 -179.39,47.41 -178.51,43.37 -177.33,39.88 -176.16,36.40 -174.26,31.99 -172.37,27.59 -170.49,24.16 -168.61,20.73 -166.79,17.80 -164.97,14.87 -162.60,11.32 -160.22,7.77 -157.59,4.20 -154.95,0.62 -152.82,-2.04 -150.70,-4.72 -147.83,-7.90 -144.96,-11.08 -141.89,-13.80 -138.83,-16.52 -135.54,-18.97 -132.26,-21.43 -129.76,-22.85 -127.27,-24.27 -124.07,-25.82 -120.88,-27.38 -117.64,-28.70 -114.40,-30.01 -111.16,-30.95 -107.93,-31.90 -104.65,-32.52 -101.37,-33.14 -98.20,-33.47 -95.03,-33.81 -91.93,-33.88 -88.82,-33.96 -85.76,-33.72 -82.69,-33.49 -79.76,-33.06 -76.82,-32.63 -74.12,-32.14 -71.42,-31.66 -68.86,-31.09 -66.31,-30.53 -63.80,-29.80 -61.30,-29.06 -58.98,-28.23 -56.66,-27.40 -54.42,-26.54 -52.18,-25.67 -49.94,-24.63 -47.71,-23.60 -45.50,-22.39 -43.30,-21.18 -41.17,-19.81 -39.04,-18.44 -37.04,-16.98 -35.04,-15.51 -33.31,-14.12 -31.58,-12.73 -30.35,-11.58 -29.12,-10.43 -27.66,-9.25 -26.21,-8.06 -24.69,-7.02 -23.16,-5.99 -21.44,-5.04 -19.72,-4.09 -18.48,-3.38 -17.24,-2.67 -15.62,-1.91 -14.00,-1.14 -12.40,-0.36 -10.81,0.40 -9.42,1.25 -8.03,2.10 -6.86,1.58 -5.69,1.05 -3.38,-0.40 -1.07,-1.86 -0.83,-1.96 -0.59,-2.06 -0.34,-2.11 -0.08,-2.15 0.17,-2.13 0.43,-2.11 0.67,-2.02 0.92,-1.94 1.14,-1.80 1.36,-1.66 1.54,-1.48 1.72,-1.29 1.85,-1.06 1.98,-0.84 2.05,-0.59 2.12,-0.34 2.13,-0.08 2.14,0.17 2.09,0.42 2.04,0.68 1.93,0.91 1.82,1.15 1.65,1.35 1.49,1.55 1.28,1.70 1.07,1.86 1.07,1.86 L 1.07,1.86 Z"></path></g><g stroke-linecap="round"><g transform="translate(1208.8552747463145 92.05235130021137) rotate(0 50.51121244563518 0)"><path d="M-0.13 -1.16 C16.58 -0.9, 83.85 0.43, 100.86 0.69 M-1.66 0.84 C14.83 0.84, 82.61 -0.64, 99.82 -1.07" stroke="#1e1e1e" stroke-width="1" fill="none"></path></g><g transform="translate(1208.8552747463145 92.05235130021137) rotate(0 50.51121244563518 0)"><path d="M76.53 8.01 C82.77 4.6, 93.96 3.2, 99.82 -1.07 M76.53 8.01 C83.45 4.69, 92.66 1.29, 99.82 -1.07" stroke="#1e1e1e" stroke-width="1" fill="none"></path></g><g transform="translate(1208.8552747463145 92.05235130021137) rotate(0 50.51121244563518 0)"><path d="M76.14 -9.08 C82.39 -6.54, 93.72 -2, 99.82 -1.07 M76.14 -9.08 C83.31 -6.73, 92.65 -4.47, 99.82 -1.07" stroke="#1e1e1e" stroke-width="1" fill="none"></path></g></g><mask></mask><g stroke-linecap="round" transform="translate(1362.8527007244543 33.09688288051598) rotate(0 58.7969054635189 58.7969054635189)"><path d="M45.77 0.8 C54.1 -2.27, 65.59 -1.35, 74.5 1.09 C83.42 3.53, 92.49 9.09, 99.24 15.44 C105.99 21.79, 112 30.81, 115.02 39.18 C118.04 47.56, 118.59 56.7, 117.36 65.69 C116.13 74.67, 112.92 85.49, 107.64 93.09 C102.35 100.69, 93.99 107.34, 85.67 111.28 C77.35 115.22, 67.03 116.78, 57.74 116.75 C48.45 116.71, 38.01 115.41, 29.93 111.07 C21.84 106.74, 14.12 98.54, 9.23 90.74 C4.33 82.94, 1.39 73.28, 0.56 64.28 C-0.28 55.29, 1 45.16, 4.21 36.77 C7.42 28.38, 12.56 19.8, 19.82 13.95 C27.09 8.1, 42.69 3.86, 47.83 1.69 C52.96 -0.48, 50.41 -0.01, 50.63 0.91 M56.45 1.3 C65.06 0.38, 76.04 3.35, 84.51 6.9 C92.99 10.44, 101.92 15.66, 107.3 22.59 C112.68 29.52, 115.82 39.08, 116.81 48.47 C117.8 57.86, 116.24 70.04, 113.25 78.92 C110.26 87.8, 105.39 95.67, 98.87 101.74 C92.34 107.81, 82.58 113.01, 74.09 115.35 C65.6 117.68, 56.78 117.63, 47.94 115.77 C39.1 113.91, 28.3 109.86, 21.04 104.16 C13.77 98.46, 8 89.75, 4.35 81.56 C0.7 73.37, -1.86 63.92, -0.87 55.02 C0.12 46.13, 5.07 36.26, 10.28 28.18 C15.48 20.1, 22.51 11.27, 30.35 6.53 C38.19 1.8, 52.64 0.55, 57.3 -0.21 C61.96 -0.96, 58.55 0.95, 58.31 2.01" stroke="#1e1e1e" stroke-width="1" fill="none"></path></g><g stroke-linecap="round" transform="translate(1520.7556235673608 31.099873326091256) rotate(0 58.7969054635189 58.7969054635189)"><path d="M66.19 -0.48 C75.05 -0.28, 84.61 5.08, 92.03 10.28 C99.46 15.48, 106.43 22.7, 110.75 30.74 C115.07 38.78, 117.77 49.21, 117.95 58.54 C118.14 67.87, 116.15 78.71, 111.87 86.72 C107.58 94.72, 99.81 101.59, 92.25 106.59 C84.69 111.59, 75.35 115.56, 66.52 116.73 C57.69 117.89, 47.78 116.78, 39.27 113.56 C30.76 110.33, 21.77 104.02, 15.44 97.39 C9.11 90.76, 3.57 82.32, 1.29 73.77 C-1 65.22, -0.41 55.08, 1.72 46.11 C3.85 37.14, 8.26 26.8, 14.08 19.93 C19.89 13.05, 26.94 7.86, 36.6 4.86 C46.25 1.85, 65.25 1.9, 72.02 1.9 C78.78 1.91, 77.59 3.91, 77.18 4.88 M74.16 2.36 C82.35 3.76, 91.57 9.7, 98.21 16.13 C104.86 22.55, 111.07 32.46, 114.01 40.9 C116.96 49.33, 117.45 58.03, 115.88 66.73 C114.31 75.43, 109.95 85.37, 104.57 93.09 C99.2 100.81, 91.88 108.83, 83.62 113.06 C75.37 117.28, 64.07 118.88, 55.03 118.45 C45.98 118.03, 37.1 115.43, 29.35 110.52 C21.6 105.6, 13.64 96.66, 8.53 88.95 C3.42 81.24, -0.77 73, -1.3 64.26 C-1.82 55.52, 1.8 45.11, 5.4 36.5 C9 27.89, 13.25 18.23, 20.31 12.59 C27.38 6.95, 38.68 4.5, 47.78 2.65 C56.89 0.81, 70.48 1.47, 74.94 1.53 C79.41 1.6, 74.85 1.77, 74.58 3.03" stroke="#1e1e1e" stroke-width="1" fill="none"></path></g></svg>